<?xml version="1.0" encoding="UTF-8"?>
<svg id="Layer_1" data-name="Layer 1" xmlns="http://www.w3.org/2000/svg" viewBox="0 0 839.58 479.76">
  <defs>
    <style>
      .cls-1 {
        fill: #ee610e;
      }

      .cls-2 {
        fill: #8db53f;
      }

      .cls-3 {
        fill: #f89415;
      }

      .cls-4 {
        fill: #10141a;
      }

      .cls-5 {
        fill: #c5320c;
      }

      .cls-6 {
        fill: #f9fb9e;
      }

      .cls-7 {
        fill: #b66220;
      }

      .cls-8 {
        fill: #e3bea0;
      }

      .cls-9 {
        fill: #231a19;
      }

      .cls-10 {
        fill: #7a770a;
      }

      .cls-11 {
        fill: #8b6116;
      }

      .cls-12 {
        fill: #69b008;
      }

      .cls-13 {
        fill: #c7e276;
      }

      .cls-14 {
        fill: #ca6f0c;
      }

      .cls-15 {
        fill: #fecc46;
      }

      .cls-16 {
        fill: #8d592d;
      }

      .cls-17 {
        fill: #eebf82;
      }

      .cls-18 {
        fill: #f9fb77;
      }

      .cls-19 {
        fill: #e5eff2;
      }

      .cls-20 {
        fill: #497c2a;
      }

      .cls-21 {
        fill: #f8f1e8;
      }

      .cls-22 {
        fill: #fff;
      }

      .cls-23 {
        fill: #c2c7cb;
      }

      .cls-24 {
        fill: #e1480e;
      }

      .cls-25 {
        fill: #699b36;
      }

      .cls-26 {
        fill: #eca867;
      }

      .cls-27 {
        fill: #fbf43a;
      }

      .cls-28 {
        fill: #f47a0e;
      }

      .cls-29 {
        fill: #fce012;
      }

      .cls-30 {
        fill: #e4d2b5;
      }

      .cls-31 {
        fill: #fef8b7;
      }

      .cls-32 {
        fill: #cf8230;
      }

      .cls-33 {
        fill: #bf7f0a;
      }

      .cls-34 {
        fill: #ffb81a;
      }

      .cls-35 {
        fill: #edcc2b;
      }

      .cls-36 {
        fill: #2e2d07;
      }

      .cls-37 {
        fill: #f5a732;
      }
    </style>
  </defs>
  <g id="Generative_Object" data-name="Generative Object">
    <g id="Background">
      <path class="cls-22" d="M592.83,69.34c-2.84,3.45-4.32,7.81-7.18,11.24-21.76-10.48-49.18,1.87-56.85,24.36-10.18-1.48-24.76-.94-31.23,8.12l-73.71.62c-2.02,1.8-3.37,2.91-.62,5l416.36,1.25v29.36c-26.47,2.48-50.05,15.54-65.59,37.17-11.36,15.82-12.33,34.69-28.42,47.16-1.61-6.47-3.74-12.91-3.44-19.68.21-4.75,4.48-16.5,3.75-19.99-1.18-5.65-14.25-7.08-17.49-1.87-4.51,7.24,5.74,35.45,7.5,44.35-52.77,8.15-86.71,46.5-84.96,100.58.07,2.15,3.02,12.51.94,13.43H182.72c-1.71-.67.86-9.06.94-10.93C188.24,230.66,54.48,193.57,0,284.23v-111.19l311.41.62c15.6-8.81-9.73-5.96-11.87-6.87-.55-.23-4.76-7.31-7.5-9.37-10.18-7.65-30.63-10.31-42.48-6.25-20.22-39.62-74.82-57.05-108.7-23.74-28.64-23.45-79.57-25.2-97.45,11.87-16.46-2.77-30.8.53-43.42,11.24v-81.21h592.83Z"/>
      <path class="cls-23" d="M839.58,14.99v54.35h-43.1c-28.44-44.13-92.93-42.97-123.38-1.87-22.74-21.84-59.43-23.45-80.27,1.87H0V14.99h839.58Z"/>
      <path class="cls-37" d="M695.28,409.8c-5.54.87-38.99,4.36-39.98,9.68-.26,1.41,1.24,2.68,2.19,3.44,8.29,6.59,63.25,9.61,76.21,10,35.32,1.05,70.92-.69,105.88-5v36.86H0v-38.73c21.33,4.35,43.48,6.17,65.28,6.87,17.44.56,116.07-.14,124.94-10.62.5-.59,1.08-2,.94-2.81-1.07-6.19-42.21-9.55-48.73-10.31,18.75-12.76,31.62-32.24,38.42-53.72h473.52c6.6,22.02,21.21,42.37,40.92,54.35Z"/>
      <rect class="cls-9" y="464.77" width="839.58" height="14.99"/>
      <rect width="839.58" height="14.99"/>
      <path class="cls-21" d="M839.58,293.6c-16.57-36.75-51.7-54.43-90.58-57.78,11.18-7.13,26.13-5.23,39.04-7.18,20.36-3.08,37.43-13.43,51.54-28.11v93.08Z"/>
      <path class="cls-7" d="M839.58,412.92v14.99c-34.96,4.3-70.56,6.05-105.88,5-12.96-.39-67.93-3.41-76.21-10-.95-.75-2.45-2.03-2.19-3.44.99-5.33,34.44-8.81,39.98-9.68,21.14,12.85,45.51,17.02,69.97,13.74-4.24,7.89,17.68,6.42,18.12,3.44.57-3.94-9.79-2.54-11.24-4.69,11.37-2.41,23.41-7.33,33.11-13.74l34.36,4.37Z"/>
      <path class="cls-7" d="M101.2,425.41c2.36,7.22,31.85,3.58,13.74-2.5,8-2.33,20.53-9.01,27.49-13.74,6.51.76,47.66,4.12,48.73,10.31.14.81-.44,2.22-.94,2.81-8.87,10.48-107.5,11.18-124.94,10.62-21.8-.7-43.95-2.52-65.28-6.87v-11.87l30.61-5c21.37,14.67,44.81,19.78,70.59,16.24Z"/>
      <path class="cls-19" d="M839.58,69.34v29.36c-10.05-4.16-21.62-8.41-32.17-3.75-2.92-8.89-5.84-17.7-10.93-25.61h43.1Z"/>
      <path class="cls-37" d="M839.58,412.92l-34.36-4.37c14.7-9.71,25.96-23.99,34.36-39.36v43.73Z"/>
      <path class="cls-17" d="M30.61,409.17l-30.61,5v-39.36c8.07,13.82,17.3,25.22,30.61,34.36Z"/>
      <path class="cls-37" d="M418.23,364.19c55.54-1.62,155.45,1.8,205.52,24.36,57.66,25.98-48.43,43.76-64.97,46.23-80.7,12.06-230.67,15.08-307.35-11.24-61.48-21.1-7.11-36.26,23.11-43.1,44.46-10.06,98.02-14.91,143.68-16.24Z"/>
      <path class="cls-31" d="M177.1,439.16c1.09-.2,9.74-.1,9.06,2.19-1.71,1.53-12.66,1.46-12.49-.62.57-.72,2.68-1.43,3.44-1.56Z"/>
      <path class="cls-32" d="M765.25,423.54c2.56-.34,4.38-.72,6.87-1.25,1.45,2.15,11.82.74,11.24,4.69-.43,2.98-22.36,4.45-18.12-3.44Z"/>
      <path class="cls-32" d="M114.94,422.92c18.1,6.08-11.38,9.72-13.74,2.5,4.07-.56,9.9-1.38,13.74-2.5Z"/>
    </g>
    <g>
      <g>
        <path class="cls-21" d="M214.89,123.69c4.88,7.73,21.6,24.75,6.56,31.23-7.44,3.21-26.9,4.84-35.61,5.62-61.14,5.49-124.44.89-185.85,3.75v-4.37c12.75-15.23,30.78-18.59,49.66-13.74-.04-12.94,12.05-22.02,23.11-26.24,23.23-8.86,51.74-1.71,68.09,16.87,17.35-23.35,49.28-25.89,74.03-13.12Z"/>
        <path d="M0,173.04v-6.25h292.04c-10.16-11.35-32.91-16.29-45.6-6.25-6.87-14.74-16.73-29.21-31.55-36.86-24.74-12.77-56.67-10.23-74.03,13.12-16.35-18.58-44.86-25.73-68.09-16.87-11.06,4.22-23.15,13.3-23.11,26.24-18.88-4.85-36.91-1.49-49.66,13.74v-9.37c12.61-10.72,26.96-14.02,43.42-11.24,17.89-37.07,68.82-35.32,97.45-11.87,33.88-33.31,88.48-15.89,108.7,23.74,11.85-4.06,32.3-1.4,42.48,6.25,2.74,2.06,6.94,9.14,7.5,9.37,2.14.91,27.47-1.94,11.87,6.87L0,173.04Z"/>
        <path class="cls-8" d="M0,166.79v-2.5c61.41-2.86,124.7,1.74,185.85-3.75,8.7-.78,28.17-2.42,35.61-5.62,15.05-6.48-1.68-23.51-6.56-31.23,14.82,7.65,24.68,22.12,31.55,36.86,12.7-10.04,35.44-5.11,45.6,6.25H0Z"/>
      </g>
      <g>
        <path d="M796.48,69.34c5.1,7.91,8.01,16.72,10.93,25.61,10.55-4.66,22.12-.41,32.17,3.75v7.5c-12.3-7.61-24.72-9.43-37.79-2.5-1.36-20.59-13.26-39.32-30.3-50.6-35.26-23.34-76.29-9.97-97.76,24.36-23.63-29.53-73.16-27.85-83.71,11.87-19.57-12.67-51.7-5.61-54.66,19.99-8.56.47-17.92.17-25.92,3.12h330.15v7.5l-416.36-1.25c-2.75-2.09-1.4-3.2.62-5l73.71-.62c6.47-9.06,21.06-9.6,31.23-8.12,7.67-22.49,35.09-34.84,56.85-24.36,2.86-3.43,4.35-7.8,7.18-11.24,20.84-25.33,57.53-23.71,80.27-1.87,30.44-41.1,94.94-42.26,123.38,1.87Z"/>
        <path class="cls-30" d="M839.58,106.2v6.25h-330.15c8-2.95,17.37-2.66,25.92-3.12,68.76-3.74,138.49,2.26,207.71-3.75,6.75-.59,38.88-3.47,42.17-7.81,8.3-10.98-8.28-34.71-13.74-44.67,17.04,11.28,28.94,30.01,30.3,50.6,13.07-6.93,25.49-5.11,37.79,2.5Z"/>
        <path class="cls-22" d="M771.49,53.1c5.46,9.95,22.05,33.69,13.74,44.67-3.28,4.34-35.42,7.22-42.17,7.81-69.22,6.01-138.95,0-207.71,3.75,2.96-25.6,35.09-32.66,54.66-19.99,10.55-39.72,60.08-41.4,83.71-11.87,21.48-34.33,62.5-47.7,97.76-24.36Z"/>
      </g>
      <g>
        <g>
          <path class="cls-5" d="M839.58,303.6v54.35c-19.13,57.3-96.66,80.69-144.93,44.98,11.94,1.86,23.68,5.81,35.92,6.25,84.02,2.97,112.86-90.33,60.28-149.61-4.54-5.12-12.7-15.08-19.37-7.81-2.57-.43-2.62,2.29-2.81-1.25-1.77.24-9.28,5.03-10,5-.47-.02-1.45-1.83-1.56-1.87.75.08.97.23,1.25-.62.08-.26.08-1.7,0-1.87l6.87-7.5c34.04,5.88,62.17,27.2,74.34,59.97Z"/>
          <path class="cls-2" d="M839.58,172.41l-7.18,3.12c-1.24-.56,5.94-5.26,2.5-5l-33.11,24.36,1.87-9.37c-2.67,2.55-2.96,9.1-4.69,11.56-2.38,3.39-14.05,9.4-17.18,13.43l1.87-13.74c-4.04,3.97-3.2,12.5-5.31,16.55-1.06,2.03-20.52,17.12-21.24,14.99,2.01-1.62,3.14-3.75,4.37-5.93,8.93-9.94,13.21-23.27,21.24-34.05,14.91-20.03,33.37-25.42,56.85-30.92v14.99Z"/>
          <path class="cls-20" d="M839.58,182.41v11.24c-14.81,17.76-36.48,30.57-59.97,29.99,16.18-4.81,32.61-16.11,44.98-27.49,1.72-.07,3.25-.74,5.31,0,0-.78-2.23-1.7-2.81-1.87l12.49-11.87Z"/>
          <path class="cls-13" d="M839.58,154.3v3.12c-23.47,5.5-41.94,10.9-56.85,30.92-8.03,10.78-12.31,24.11-21.24,34.05,6.47-11.43,9.41-23.07,17.49-34.05,14.57-19.79,36.38-30.97,60.59-34.05Z"/>
          <path class="cls-26" d="M739.01,244.88c-64.38,10.86-99.46,74.74-64.97,133.37,3.03,5.15,12.68,18.39,16.87,22.18-52.38-36.96-47.05-114.73,8.43-146.18,5.42-3.07,35.04-15.49,39.04-11.56.25.24.49,1.94.62,2.19Z"/>
          <path class="cls-2" d="M824.59,196.15c-12.37,11.38-28.8,22.67-44.98,27.49-1.35.4-8.7,2.99-9.37,1.56,8.88-7.9,17.58-11.68,29.05-14.68-1.44-2.39-11.93,1.71-12.18.94,3.96-2.29,15.02-14.45,18.43-15.3,2.68-.68,15.12.16,19.05,0Z"/>
          <path class="cls-1" d="M765.25,243.63l-6.87,7.5c-.6-1.33-5.24-3.23-6.87-3.12-.9.06-1.27,1.67-2.5,1.25-.12-.26-.66-5.31-.62-5.62,4.99-.58,10.51,1.15,14.99-.62,1.06.15,1.32.53,1.87.62Z"/>
          <g>
            <path d="M839.58,149.3v5c-24.21,3.08-46.03,14.25-60.59,34.05-8.08,10.98-11.02,22.62-17.49,34.05-1.24,2.19-2.37,4.31-4.37,5.93.72,2.12,20.18-12.96,21.24-14.99,2.11-4.06,1.27-12.59,5.31-16.55l-1.87,13.74c3.13-4.03,14.8-10.04,17.18-13.43,1.73-2.46,2.01-9.01,4.69-11.56l-1.87,9.37,33.11-24.36c3.45-.26-3.74,4.44-2.5,5l7.18-3.12v2.5l-8.75,2.19,8.75.94v3.12c-2.5.17-10.59-2.13-12.18-1.87-2.5.4-14.45,12.22-17.8,14.06,6.09,1.08,11.03-1.03,17.49.94.59.18,2.82,1.09,2.81,1.87-2.06-.74-3.59-.07-5.31,0-3.93.16-16.37-.68-19.05,0-3.41.86-14.47,13.01-18.43,15.3.25.78,10.74-3.33,12.18-.94-11.47,3-20.17,6.78-29.05,14.68.67,1.43,8.02-1.16,9.37-1.56,23.49.58,45.16-12.22,59.97-29.99v6.87c-14.11,14.68-31.18,25.03-51.54,28.11-12.91,1.95-27.86.05-39.04,7.18,38.88,3.35,74.01,21.04,90.58,57.78v10c-12.17-32.77-40.3-54.09-74.34-59.97-.55-.1-.81-.47-1.87-.62-4.85-.7-9.74-1.43-14.68-1.25-.57.3-.24,1.3-.31,1.87-.04.31.51,5.37.62,5.62.43.93,6.7,3.76,8.12,4.37.11.05,1.1,1.86,1.56,1.87.71.03,8.22-4.76,10-5,.19,3.54.24.82,2.81,1.25.61.1,5.24,1.15,2.81,2.5-1.61.89-11.74-1.22-14.06,4.06,3.33,1.11,9.16-1.28,10.93,2.81l-46.23,8.75c-.82-4.25,10.95-6.9,10.93-7.81-1.95-1.08-6.42-3.29-8.43-3.44-4.34-.31-5.76,1.97-8.75,2.5-1.98.35,1.99-2.44-1.56-2.19,2.93-4.99,15.15-1.28,15.93-1.56,1.2-.44.73-2.16,1.25-2.5,5.39-3.53,8.31-3.18,4.69-10-.13-.25-.38-1.94-.62-2.19-4-3.94-33.63,8.49-39.04,11.56-55.49,31.45-60.81,109.22-8.43,146.18,1.3,1.18,2.56,1.62,3.75,2.5,48.27,35.72,125.8,12.33,144.93-44.98v11.24c-8.4,15.36-19.66,29.64-34.36,39.36-9.7,6.41-21.74,11.33-33.11,13.74-2.49.53-4.31.91-6.87,1.25-24.45,3.28-48.82-.89-69.97-13.74-19.7-11.98-34.32-32.33-40.92-54.35H180.85c-6.8,21.49-19.66,40.96-38.42,53.72-6.95,4.73-19.49,11.41-27.49,13.74-3.84,1.12-9.67,1.94-13.74,2.5-25.78,3.54-49.22-1.57-70.59-16.24-13.31-9.13-22.54-20.53-30.61-34.36v-9.37c5.55,7.8,9.36,16.68,15.62,24.05s16.43,15.58,24.99,20.3c5.31,2.93,10.88,5.54,16.87,6.87,72.34,23.55,140.81-43.02,116.19-116.82-2.79-8.36-6.12-14.84-11.24-21.86C122.29,216.64,28.34,228.8,0,294.85v-10.62c54.48-90.67,188.24-53.57,183.66,55.29-.08,1.88-2.65,10.26-.94,10.93h469.14c2.09-.92-.87-11.28-.94-13.43-1.75-54.07,32.18-92.43,84.96-100.58-1.76-8.9-12.01-37.11-7.5-44.35,3.25-5.21,16.31-3.77,17.49,1.87.73,3.49-3.54,15.24-3.75,19.99-.3,6.77,1.82,13.21,3.44,19.68,16.09-12.47,17.06-31.35,28.42-47.16,15.54-21.63,39.12-34.69,65.59-37.17Z"/>
            <g>
              <path class="cls-6" d="M162.42,277.99c-1.73-2.37-4.8-5.29-6.87-7.5-13.75-14.65-31.39-26.11-51.54-29.36-.42-.07-.2,1.31-.62,1.25-.28-.04-4.64-2.48-5-2.5-7.19-.41-18.62.78-25.92,1.87-29.53,4.41-59.89,25.81-70.59,54.04-.11.3,2.92,1.23-1.87,2.81v-3.75c28.34-66.05,122.29-78.22,162.42-16.87Z"/>
              <g>
                <polygon class="cls-2" points="839.58 174.91 839.58 178.04 830.84 177.1 839.58 174.91"/>
                <path class="cls-2" d="M744.63,242.38c.5,1.79,4.16,14.71,5.31,14.37s-1.9-2.72,1.25-2.5l4.69,3.44c-6.23,2.68-12.96,7.04-18.74,1.25-.43-1.97,6.55-5.04,6.87-6.25.2-.76-3.22-13.03-3.75-15.3l4.37,5Z"/>
                <path class="cls-12" d="M740.26,198.03c-.61,8.4-2.59,12.56-1.25,21.86l-3.75-.62c-1.61-6.49-6.33-15.29-4.37-22.49,3.43,1.24,5.64,2.53,9.37,1.25Z"/>
                <path class="cls-25" d="M739.01,219.89c.84,5.79,3.94,16.51,5.62,22.49l-4.37-5c-1.4-6.05-3.5-12.08-5-18.12l3.75.62Z"/>
                <path class="cls-13" d="M740.26,198.03c-3.73,1.28-5.94,0-9.37-1.25.9-3.32,9.88-5.8,9.37,1.25Z"/>
                <path class="cls-17" d="M763.37,243c-4.48,1.77-10,.04-14.99.62.07-.57-.26-1.57.31-1.87,4.94-.18,9.83.55,14.68,1.25Z"/>
                <path class="cls-10" d="M758.37,253c-.28.86-.5.7-1.25.62-1.42-.61-7.69-3.44-8.12-4.37,1.23.42,1.6-1.19,2.5-1.25l6.87,5Z"/>
              </g>
            </g>
          </g>
          <path class="cls-36" d="M758.37,251.13c.08.17.08,1.62,0,1.87l-6.87-5c1.63-.11,6.27,1.8,6.87,3.12Z"/>
          <g>
            <path class="cls-2" d="M839.58,181.16v1.25l-12.49,11.87c-6.46-1.97-11.4.14-17.49-.94,3.36-1.83,15.3-13.65,17.8-14.06,1.59-.26,9.68,2.04,12.18,1.87Z"/>
            <path class="cls-4" d="M824.28,187.41c.43-.05,3.47-.41,3.12.62l-15.3,4.69c3.09-1.99,8.64-4.87,12.18-5.31Z"/>
          </g>
          <g>
            <path class="cls-28" d="M739.01,244.88c3.62,6.81.7,6.46-4.69,10-.52.34-.05,2.06-1.25,2.5-.78.29-13-3.43-15.93,1.56,3.55-.25-.42,2.53,1.56,2.19,2.99-.52,4.4-2.81,8.75-2.5,2.02.14,6.48,2.36,8.43,3.44.02.91-11.75,3.56-10.93,7.81l46.23-8.75c-1.78-4.09-7.6-1.7-10.93-2.81,2.32-5.28,12.45-3.17,14.06-4.06,2.43-1.35-2.2-2.4-2.81-2.5,6.67-7.27,14.83,2.69,19.37,7.81,52.57,59.28,23.73,152.58-60.28,149.61-12.24-.43-23.98-4.39-35.92-6.25-1.18-.88-2.45-1.32-3.75-2.5-4.19-3.79-13.84-17.03-16.87-22.18-34.49-58.63.59-122.51,64.97-133.37Z"/>
            <path class="cls-21" d="M693.72,276.74c12.82-.58,5.67,28.89-6.25,31.23-20.16,3.98-7.32-30.62,6.25-31.23Z"/>
            <path class="cls-21" d="M714.96,277.36c9.26-1.42,14.32,22.07,3.12,22.49s-10.33-21.38-3.12-22.49Z"/>
          </g>
        </g>
        <g>
          <path class="cls-3" d="M98.7,245.5c5.47.59,9.18,1.57,14.37,3.12l-.31,2.5c-2.43-1.31-6.17-3.46-8.43-1.25-.81-.1-1.68.05-2.5,0-1.67-2.03-7.67-2.34-10.31-2.5-5.97-.35-15.46-1.05-20.3,2.5-.82.05-1.69-.1-2.5,0-.78-1.21-3.67-.98-3.12.62-.37.06-2.45,1.1-3.12,1.25-2.25-2.35-7.02,1.92-8.12,2.5-3.69,1.33-9.87,2.22-11.87,6.87-.72.54-2.99,1.75-3.12,1.87l-.31-1.87c-2.39-.2-25.08,21.31-25.61,26.24l3.12-3.75c.48.17.36,1.37.31,1.87-6.78,7.59-9.25,15.43-11.87,24.99l-3.12,5.31.94-8.43-2.81,6.87v-8.12c17.99-41.55,52.44-65.59,98.7-60.59Z"/>
          <path class="cls-29" d="M57.47,412.92c-4.44-.9-8.49-2.6-12.81-3.75-.53-.14-4.53-1.36-4.06.62-8.55-4.72-18.66-12.84-24.99-20.3s-10.07-16.25-15.62-24.05v-19.99c4.31,12.68,8.41,25.86,16.87,36.54,4.86,6.14,12.2,10.48,16.55,17.18l24.05,13.74Z"/>
          <path class="cls-29" d="M72.46,241.76c.32.88.86,1.49,1.87,1.56,5.55.37,15.74-1.95,20.3-.94.62.14-.01,1.58.62,1.87.91.41,3.69-1.01,3.44,1.25-46.26-4.99-80.71,19.04-98.7,60.59v-7.5c4.79-1.58,1.76-2.51,1.87-2.81,10.7-28.22,41.06-49.62,70.59-54.04Z"/>
          <path class="cls-3" d="M5,310.47c-9.1,33.22,3.44,64.39,29.67,86.21,17.81,14.81,40.35,17.83,62.78,16.87-.12.02-1.92,1.22-2.19,1.25-6.61.73-13.73-1.06-20.3.62-5.7-1.24-11.86-1.36-17.49-2.5l-24.05-13.74c-4.36-6.7-11.69-11.04-16.55-17.18-8.46-10.69-12.56-23.87-16.87-36.54v-31.23l2.81-6.87-.94,8.43,3.12-5.31Z"/>
          <path class="cls-37" d="M57.47,416.67c1.36.3,11.16,1.78,12.81,1.87,9.17.54,18.24-.71,27.17-2.5,7.17-.57,18.05-3.24,24.68-6.25,1.27-.58.72-2.24,1.25-2.5,33.87-16.37,49.65-39.35,50.91-77.46.34-10.34,1.12-19.65-.62-29.99,24.62,73.79-43.85,140.37-116.19,116.82Z"/>
          <path class="cls-29" d="M162.42,277.99c5.12,7.02,8.45,13.5,11.24,21.86,1.75,10.33.97,19.65.62,29.99h-1.25c.03-19.68-5.34-31.78-14.37-48.73-1.29-2.42-2.55-4.77-5-6.25.06-.19-.06-.43,0-.62.32-1.05,2.76-1.4,1.87-3.75,2.07,2.21,5.14,5.12,6.87,7.5Z"/>
          <path class="cls-37" d="M57.47,412.92c5.63,1.14,11.8,1.26,17.49,2.5,7.03.5,15.56,1.17,22.49.62-8.94,1.79-18,3.03-27.17,2.5-1.65-.1-11.44-1.57-12.81-1.87-5.98-1.33-11.56-3.94-16.87-6.87-.47-1.99,3.53-.77,4.06-.62,4.32,1.14,8.37,2.85,12.81,3.75Z"/>
          <path class="cls-18" d="M10,328.59v2.5c-12.71,7.79,5.13,58.1,23.74,51.54-3.15,7.43,3.09,13.05,8.43,17.18,7.83,6.04,28.46,14.27,38.11,11.24,2.6-.82,5.85-4.96,6.25-5,.68-.07,5.66,5.09,8.75,5.62,5.16.89,11.45-1.22,16.55-1.87-5.59,1.81-7.9,2.89-14.37,3.75-22.43.96-44.97-2.06-62.78-16.87-26.24-21.81-38.77-52.99-29.67-86.21,2.62-9.55,5.09-17.4,11.87-24.99-.15,1.62-5.76,9.41-6.87,12.18-3.66,9.08-8.17,23.51,0,30.92Z"/>
          <path class="cls-29" d="M155.55,270.49c.88,2.35-1.55,2.7-1.87,3.75-1.15-1.71-2.71-3.18-4.37-4.37-9.25-9.53-23.4-17.41-36.23-21.24-5.19-1.55-8.9-2.53-14.37-3.12.26-2.26-2.53-.84-3.44-1.25-.64-.29,0-1.74-.62-1.87-4.56-1.01-14.75,1.31-20.3.94-1.02-.07-1.56-.68-1.87-1.56,7.31-1.09,18.73-2.28,25.92-1.87.36.02,4.72,2.46,5,2.5.43.06.2-1.32.62-1.25,20.15,3.25,37.78,14.71,51.54,29.36Z"/>
          <path class="cls-37" d="M113.07,248.63c12.83,3.83,26.99,11.71,36.23,21.24-.32-.23-.89.66-.94.62-3.99-2.93-7.41-7.98-12.81-9.06.85,1.7,5.14,3.23,5.93,4.06,3.13,3.28,5.22,5.66,8.75,8.75,1.1.96,5.26,4.98,4.06,6.87-1.76-1.49-2.07-1.83-4.37-2.5-4.41-1.27-6.23-1.82-10.93,0,5.27-9.14-3.56-12.48-7.81-18.12-.21-.28-.89-2.01-1.25-.62-.19-.2-.44-.45-.62-.62-1.36-1.29-1.27-.65-2.5-1.25-7.04-3.43-14.6-7.15-22.49-8.12,2.27-2.21,6-.06,8.43,1.25l.31-2.5Z"/>
          <path class="cls-37" d="M39.36,262.99c-3.94,3.65-8.25,9.29-5,14.68-7.26-2.71-12.99,2.76-17.49,7.81.05-.5.17-1.7-.31-1.87l-3.12,3.75c.53-4.93,23.22-26.43,25.61-26.24l.31,1.87Z"/>
          <path class="cls-6" d="M101.82,249.88c-3.38-.21-6.97-.94-10.31.62-.94.44-3.84,4.32-4.37,4.37-.99.1-4.62-4.34-6.87-5-2.46-.72-6.49-.15-9.06,0,4.84-3.55,14.33-2.85,20.3-2.5,2.64.16,8.64.47,10.31,2.5Z"/>
          <path class="cls-14" d="M174.29,329.84c-1.26,38.11-17.04,61.09-50.91,77.46-.53.26.02,1.92-1.25,2.5-6.62,3.01-17.5,5.68-24.68,6.25s-15.46-.13-22.49-.62c6.57-1.68,13.69.11,20.3-.62.27-.03,2.06-1.23,2.19-1.25,6.47-.85,8.78-1.94,14.37-3.75.94-.31,2.12-.88,3.12-1.25l1.87-.62c.18-.07.45.08.62,0,4.85-2.07,5.31-1.79,10-5,6.37-4.36,16.17-11.07,12.18-19.99,7.69,3.1,14.26-3.62,18.43-9.37.5,2.58,3.03-2.63,3.12-2.81,5.7-10.79,7.34-18.6,10-30.3.48-2.11,3.05-3.66,3.12-5.93,0-.24-1.25-2.05-1.25-4.69h1.25Z"/>
          <path class="cls-3" d="M149.3,269.87c1.67,1.19,3.22,2.67,4.37,4.37-.06.19.06.43,0,.62-.57,1.87,2.25,6.68,5,6.25,9.03,16.94,14.4,29.05,14.37,48.73,0,2.64,1.26,4.44,1.25,4.69-.07,2.27-2.64,3.83-3.12,5.93,1.11-17.43-2.7-47.35-16.87-59.35,1.2-1.9-2.96-5.91-4.06-6.87-3.53-3.08-5.61-5.47-8.75-8.75-.79-.83-5.08-2.36-5.93-4.06,5.4,1.08,8.82,6.13,12.81,9.06.05.03.62-.85.94-.62Z"/>
          <path class="cls-3" d="M158.67,281.11c-2.75.43-5.57-4.37-5-6.25,2.45,1.48,3.71,3.82,5,6.25Z"/>
          <g>
            <path d="M101.82,249.88c.82.05,1.69-.1,2.5,0,7.89.97,15.45,4.7,22.49,8.12l2.5,1.25c.19.18.43.43.62.62.27.28.08.97,1.25.62,4.25,5.64,13.08,8.98,7.81,18.12,4.71-1.82,6.52-1.27,10.93,0,10.45,6.38,23.05,36.85,17.49,47.16-1.09,2.03-4.67,3.79-6.87,4.37,16.71,4.31,4.09,34.33-2.5,43.42-4.17,5.75-10.74,12.47-18.43,9.37,3.99,8.92-5.81,15.63-12.18,19.99l-10,5c-.18.08-.45-.07-.62,0-.46.19-1.27.4-1.87.62-1.01.37-2.18.94-3.12,1.25-5.1.66-11.4,2.77-16.55,1.87-3.09-.53-8.07-5.69-8.75-5.62-.4.04-3.65,4.18-6.25,5-9.64,3.03-30.27-5.2-38.11-11.24-5.35-4.12-11.58-9.75-8.43-17.18-18.61,6.57-36.45-43.75-23.74-51.54.48-.3,2.41.56,3.12-.94-1.23-.32-2.18-.71-3.12-1.56-8.17-7.42-3.66-21.84,0-30.92,1.12-2.77,6.72-10.57,6.87-12.18,4.51-5.05,10.23-10.51,17.49-7.81-3.25-5.39,1.05-11.03,5-14.68.13-.12,2.4-1.33,3.12-1.87,3.74-2.79,7.77-4.72,11.87-6.87,2.67-.96,5.33-1.87,8.12-2.5.68-.15,2.75-1.18,3.12-1.25.93-.16,2.57-.56,3.12-.62.81-.1,1.68.05,2.5,0,2.57-.15,6.59-.72,9.06,0,2.25.66,5.88,5.1,6.87,5,.53-.06,3.43-3.93,4.37-4.37,3.34-1.57,6.93-.83,10.31-.62Z"/>
            <g>
              <path class="cls-29" d="M54.35,254.25c-4.1,2.15-8.13,4.08-11.87,6.87,2-4.65,8.18-5.54,11.87-6.87Z"/>
              <path class="cls-29" d="M62.47,251.75c-2.79.63-5.45,1.53-8.12,2.5,1.1-.58,5.87-4.85,8.12-2.5Z"/>
              <path class="cls-29" d="M68.72,249.88c-.55.07-2.19.46-3.12.62-.55-1.61,2.35-1.83,3.12-.62Z"/>
              <path class="cls-34" d="M61.84,309.85c1.79,1.53,14.22,13.06,14.37,14.06.09.65.16,1.67-.31,2.19-1.08,1.19-28.19.67-32.17.62.47-1.75-.92-2.15-2.19-2.5-9.19-2.57-19.19-2.22-28.42-4.69-.61-1.31,5.97-25.41,10-26.55-1.53,3.23-3.43,9.06-2.81,12.49,1.75,1.42,6.16-13.34,6.56-14.68.47-1.56-.65-1.48-.62-1.56.42-1.43.98-5.57,4.06-5,1.31.24,17.19,15.23,19.99,17.49,3.32,2.69,8.66,5.63,11.56,8.12Z"/>
              <path class="cls-34" d="M148.05,287.36c7.36,7.64,11.38,22.49,12.49,32.8-.98,2.71-16.3,3.33-18.12,6.56-5.65.2-40.77.95-43.42,0-5.01-1.81,7.21-11.78,9.68-13.12,15.52-8.39,15.42-7.75,29.05-19.37,2.96-2.52,7.2-4.43,10.31-6.87Z"/>
              <path class="cls-37" d="M94.95,342.95l36.23,45.6c-2.9,2.38-5.52,4.88-8.75,6.87-1.44-4.75-4.25-.21-6.56.62-5.12,1.85-13.4,3.61-17.8,6.25l-3.12-.31-5-29.67c-.06-10.09.04-20.2,0-30.3,3.41-3.32,3.26-.22,5,.94Z"/>
              <path class="cls-1" d="M17.49,334.21c1.13,4.24-4.33,2.54-5,3.44-1.7,2.31,11.49,30.95,14.68,34.67,9.87-8.15,20.42-15.39,30.61-23.11,4.61-3.5,7.84-9.36,14.68-9.37-7.33,8.56-18.6,18.71-27.17,26.24-2.79,2.45-15.11,13.92-17.49,13.74-9.23-.7-25.9-40.54-16.87-44.98.43-.21,5.46-.48,6.56-.62Z"/>
              <path class="cls-28" d="M83.71,352.33c.49,13.11.25,29.7-.62,42.79-.8,11.98.14,14.08-13.43,12.81-7.4-.69-34.84-12.03-33.42-21.24l40.29,16.24c2.33-.82.37-41.68,4.69-49.04.73-1.24.77-1.87,2.5-1.56Z"/>
              <path class="cls-1" d="M96.2,315.47c2.28-2.6,4.11-7.22,5.62-10,1.38-2.53,4.09-5.62,5-8.12l24.36-24.05-36.86-20.3c8.01-3.11,27.24,5,34.05,10,3.26,2.39,9.38,7.3,8.43,11.56l-40.6,40.92Z"/>
              <path class="cls-1" d="M61.84,309.85c-2.9-2.49-8.24-5.43-11.56-8.12-2.8-2.27-18.68-17.25-19.99-17.49-3.08-.57-3.64,3.57-4.06,5-1.58.73-2.43,2.29-3.12,3.75-4.02,1.14-10.61,25.24-10,26.55,9.23,2.46,19.24,2.12,28.42,4.69,1.26.35,2.65.75,2.19,2.5-5.53-.06-28.78.02-32.17-1.25-5.93-2.22-1.38-18.66.31-23.43,1.85-5.21,11.68-22.05,17.8-21.55,4.1.33,27.88,24.87,32.17,29.36Z"/>
              <path class="cls-1" d="M142.43,326.71c1.82-3.23,17.14-3.85,18.12-6.56-1.12-10.31-5.13-25.16-12.49-32.8-1.43-1.49-2.21-3.66-4.69-3.12-2.27.49-24.96,25.25-31.55,25.61,3.71-3.81,29.52-28.19,32.17-28.74,9.65-2,20.16,24.72,20.93,32.17.16,1.53.31,8.97,0,10-1.11,3.72-18.27,3.28-22.49,3.44Z"/>
              <path class="cls-28" d="M134.93,384.81c.01,2.32-2.56,2.78-3.75,3.75l-36.23-45.6c6.39,4.28,36.46,35.47,39.98,41.85Z"/>
              <path class="cls-28" d="M74.34,312.35c-5.06-4.45-37.97-36.14-38.11-39.67.54-.96,1.31-1.89,1.87-2.81l38.11,39.04-1.87,3.44Z"/>
              <path class="cls-24" d="M91.83,405.42c1.25-1,2.44-.44,3.75-.62,10.68-1.49,17.74-3.73,26.86-9.37,3.23-2,5.84-4.49,8.75-6.87,1.18-.97,3.76-1.43,3.75-3.75,3.27,5.93-.41,8.85-5.93,13.12-6.3,4.86-31.97,15.53-37.17,7.5Z"/>
              <path class="cls-29" d="M154.3,281.11c14.17,11.99,17.98,41.91,16.87,59.35-2.66,11.7-4.3,19.51-10,30.3-.1.19-2.63,5.39-3.12,2.81,6.59-9.09,19.21-39.11,2.5-43.42,2.2-.58,5.78-2.34,6.87-4.37,5.56-10.32-7.04-40.79-17.49-47.16,2.31.66,2.61,1.01,4.37,2.5Z"/>
              <path class="cls-24" d="M165.54,339.83c1.35,9.55-10.48,42.43-22.18,39.98-.52-.11-1.46-1.81-1.56-1.87,1.84-1.05,3-2.85,4.37-4.37,2.8-3.09,4.55-5.25,6.87-8.75.77-1.16,2.27-2.8,3.12-4.06l9.37-20.93Z"/>
              <path class="cls-6" d="M93.7,324.84c2.21,3.23,1.11,6.63-.62,9.68-.35.62.66,1.19.62,1.25-1.88,2.87-10,3.56-12.49.62-.24-.29-3.17-6.5-3.12-6.87.03-.25,2.43-2.95,3.12-4.06l12.49-.62Z"/>
              <path class="cls-3" d="M148.05,287.36c-3.1,2.44-7.35,4.35-10.31,6.87-13.62,11.61-13.53,10.97-29.05,19.37.02-1.95,2.05-2.65,3.12-3.75,6.59-.36,29.28-25.12,31.55-25.61,2.48-.54,3.25,1.64,4.69,3.12Z"/>
              <path class="cls-28" d="M165.54,339.83l-9.37,20.93c-.85,1.26-2.36,2.9-3.12,4.06l8.75-25.92c-.94-1.92-19.74-.68-20.61-5.31,4.19.2,22.03.39,23.74,2.81.1.14.55,2.9.62,3.44Z"/>
              <path class="cls-28" d="M98.08,402.3c-.15.09-2.64,2.03-2.5,2.5-1.31.18-2.5-.38-3.75.62-.22-.34-1.15-1.15-1.25-1.56-1.19-5.14-.59-24.88-.62-31.55l5,29.67,3.12.31Z"/>
              <path class="cls-28" d="M146.18,373.56c-1.38,1.52-2.53,3.32-4.37,4.37-6.44-3.68-11.5-10.66-16.87-15.62l21.24,11.24Z"/>
              <path class="cls-3" d="M93.7,324.84l-12.49.62c.25-.4-.4-2.07.31-2.5.47-.28,2.61.28,3.12,0,.63-.35,2.2-2.5,2.5-2.5.39,0,6.34,4.05,6.56,4.37Z"/>
              <path class="cls-34" d="M127.44,402.93c-4.68,3.21-5.15,2.93-10,5l10-5Z"/>
              <path class="cls-33" d="M10,331.09v-2.5c.94.85,1.89,1.24,3.12,1.56-.72,1.5-2.64.64-3.12.94Z"/>
              <path class="cls-27" d="M129.31,259.25l-2.5-1.25c1.23.6,1.13-.05,2.5,1.25Z"/>
              <path class="cls-35" d="M116.82,407.92l-1.87.62c.6-.22,1.41-.44,1.87-.62Z"/>
              <path class="cls-16" d="M86.52,402.3c.3-.02.42.55.31.94-.35,2.32-1.11-.89-.31-.94Z"/>
              <polygon class="cls-11" points="87.14 257.37 87.46 258.31 86.52 258.62 86.21 258.31 87.14 257.37"/>
              <path class="cls-27" d="M131.18,260.5c-1.17.35-.98-.35-1.25-.62.36-1.39,1.04.35,1.25.62Z"/>
              <g>
                <path class="cls-34" d="M141.18,333.58c.88,4.63,19.67,3.39,20.61,5.31l-8.75,25.92c-2.32,3.49-4.08,5.65-6.87,8.75l-21.24-11.24c-3.79-3.5-28.33-25.04-27.49-27.8.43-.45,1.75-1.43,2.19-1.56,3.97-1.15,35.09.32,41.54.62Z"/>
                <path class="cls-22" d="M132.75,336.71c9.84-2.34,19.4,4.84,6.25,6.25-7.13.76-13.7-4.48-6.25-6.25Z"/>
              </g>
              <g>
                <path class="cls-34" d="M83.71,291.11c.02,4.19.78,24.37,0,26.55-1.79,4.95-7.77-3.9-9.37-5.31l1.87-3.44-38.11-39.04c2.85-4.66,15.85-13.59,21.24-13.74,1.44-.04,4,1.34,7.18,1.25,1.62-.05,7.93-2.26,9.37-1.87l1.56,1.56,6.25,34.05Z"/>
                <path class="cls-28" d="M83.71,291.11l-6.25-34.05-1.56-1.56c-1.44-.39-7.75,1.83-9.37,1.87-3.18.09-5.74-1.29-7.18-1.25,4.49-2.7,19.83-5.94,22.49-.94,1.64,3.08,1.84,30.2,1.87,35.92Z"/>
                <path class="cls-22" d="M66.53,259.25c.46-.05,1.4-.16,1.56.31-4.9,2.46-9.98,6.61-15.62,7.5,2.05-3.09,10.77-7.47,14.06-7.81Z"/>
              </g>
              <path class="cls-22" d="M23.11,292.98c.69-1.46,1.54-3.01,3.12-3.75-.02.08,1.09,0,.62,1.56-.4,1.34-4.81,16.1-6.56,14.68-.62-3.43,1.29-9.27,2.81-12.49Z"/>
              <g>
                <path class="cls-34" d="M72.46,339.83c-6.84,0-10.07,5.87-14.68,9.37-10.19,7.73-20.74,14.96-30.61,23.11-3.19-3.72-16.38-32.36-14.68-34.67.66-.9,6.12.8,5-3.44,18.8-2.56,38.83-.11,57.78-1.25,3.76,2.71-1.11,4.89-2.81,6.87Z"/>
                <path class="cls-22" d="M35.92,336.08c1.04-.02,4.08-.1,4.06,1.56-8.62,9.74-17.99-1.33-4.06-1.56Z"/>
              </g>
              <g>
                <path class="cls-34" d="M83.71,352.33c-1.73-.31-1.77.32-2.5,1.56-4.31,7.36-2.35,48.22-4.69,49.04l-40.29-16.24c.77-5.01,39.49-41.13,45.91-46.23,2.31.6,1.47,9.52,1.56,11.87Z"/>
                <path class="cls-22" d="M74.65,353.57c4.39-.1,2.49,18.53-3.75,15.62-2.84-1.32.07-15.53,3.75-15.62Z"/>
                <path class="cls-22" d="M57.78,371.07c7-.28-4.48,11.42-6.25,10-2.05-2.52,4.59-9.93,6.25-10Z"/>
                <path class="cls-15" d="M65.28,367.94c.47.08.52,3.12,0,3.75-1.64-1.05-.37-2.17,0-3.75Z"/>
              </g>
              <path class="cls-22" d="M106.82,297.35c-.91,2.5-3.62,5.59-5,8.12-11.13,3.04-2.09-18.34,4.69-16.24l1.56,1.56c.19,2.25-.5,4.5-1.25,6.56Z"/>
              <g>
                <path class="cls-34" d="M106.82,297.35c.75-2.06,1.44-4.31,1.25-6.56l-1.56-1.56c-6.78-2.1-15.81,19.28-4.69,16.24-1.51,2.78-3.34,7.39-5.62,10-1.55,1.77-3.66,5.57-6.25,2.81,1.82-11.63-2.61-55.63,1.87-63.72.36-.65,1.76-1.28,2.5-1.56l36.86,20.3-24.36,24.05Z"/>
                <path class="cls-22" d="M97.14,261.75l-.62,19.37c-2.19-7.41-3.2-11.98.62-19.37Z"/>
              </g>
              <path class="cls-3" d="M122.44,395.43c-9.12,5.64-16.18,7.88-26.86,9.37-.14-.47,2.35-2.41,2.5-2.5,4.41-2.64,12.69-4.4,17.8-6.25,2.31-.84,5.12-5.37,6.56-.62Z"/>
            </g>
          </g>
        </g>
      </g>
    </g>
  </g>
</svg>