<?xml version="1.0" encoding="UTF-8"?>
<svg id="Layer_1" data-name="Layer 1" xmlns="http://www.w3.org/2000/svg" viewBox="0 0 566.45 319.25">
  <defs>
    <style>
      .cls-1 {
        fill: #2c1816;
      }

      .cls-2 {
        fill: #fdf303;
      }

      .cls-3 {
        fill: #ee610e;
      }

      .cls-4 {
        fill: #8db53f;
      }

      .cls-5 {
        fill: #fbe2d4;
      }

      .cls-6 {
        fill: #b3d859;
      }

      .cls-7 {
        fill: #e34b0e;
      }

      .cls-8 {
        fill: #f6ead3;
      }

      .cls-9 {
        fill: #fe4e0b;
      }

      .cls-10 {
        fill: #c5320c;
      }

      .cls-11 {
        fill: #0147c5;
      }

      .cls-12 {
        fill: #c29e59;
      }

      .cls-13 {
        fill: #e3bea0;
      }

      .cls-14 {
        fill: #231a19;
      }

      .cls-15 {
        fill: #173d12;
      }

      .cls-16 {
        fill: #fcd939;
      }

      .cls-17 {
        fill: #fcfee5;
      }

      .cls-18 {
        fill: #32b2fb;
      }

      .cls-19 {
        fill: #f64129;
      }

      .cls-20 {
        fill: #e34042;
      }

      .cls-21 {
        fill: #b6ca75;
      }

      .cls-22 {
        fill: #f58d16;
      }

      .cls-23 {
        fill: #f7ad3f;
      }

      .cls-24 {
        fill: #dba479;
      }

      .cls-25 {
        fill: #fdfc80;
      }

      .cls-26 {
        fill: #d4b77d;
      }

      .cls-27 {
        fill: #ffe1c3;
      }

      .cls-28 {
        fill: #497c2a;
      }

      .cls-29 {
        fill: #f8f1e8;
      }

      .cls-30 {
        fill: #fbf3f9;
      }

      .cls-31 {
        fill: #699b36;
      }

      .cls-32 {
        fill: #eca867;
      }

      .cls-33 {
        fill: #f47a0e;
      }

      .cls-34 {
        fill: #fac170;
      }

      .cls-35 {
        fill: #366b27;
      }

      .cls-36 {
        fill: #fb7730;
      }

      .cls-37 {
        fill: #bb8a4a;
      }

      .cls-38 {
        fill: #fceafe;
      }

      .cls-39 {
        fill: #2ec3f8;
      }

      .cls-40 {
        fill: #b7effd;
      }

      .cls-41 {
        fill: #27872d;
      }

      .cls-42 {
        fill: #98743f;
      }

      .cls-43 {
        fill: #46d1f8;
      }

      .cls-44 {
        fill: #e6f3ff;
      }

      .cls-45 {
        fill: #cfdd91;
      }

      .cls-46 {
        fill: #99cc74;
      }

      .cls-47 {
        fill: #115a23;
      }

      .cls-48 {
        fill: #d1f2ff;
      }

      .cls-49 {
        fill: #0197d6;
      }

      .cls-50 {
        fill: #0a0b17;
      }

      .cls-51 {
        fill: #016dd9;
      }

      .cls-52 {
        fill: #fdfdfd;
      }

      .cls-53 {
        fill: #2588f3;
      }
    </style>
  </defs>
  <g id="Generative_Object" data-name="Generative Object">
    <path class="cls-1" d="M256.54,267.53c-1.09-.48-2.13-1.03-3.25-1.51-.05-.02-.12-.25-.93-.5-.07-.02-.34-1.24-1.16-1.01-5.06,4.17-3.29,14.2-4.88,18.37-1.92,5.03-15.09,5.6-8.36,18.37,1.46,2.78,2.02,3.34,4.65,4.53,3.83,1.73,7.55,1.84,11.62,1.01,18.36,2.87,19.97-12.73,21.84-28.19,7.86.03,2.23,7.84,2.79,13.34,17.16,1.74,35.24.27,52.74.76,1.29-.81.23-1.43.23-1.51.04-2.12-1.31-7.75-1.86-10.07,1.26-1.29,4.2-1.79,5.58-1.51,2.45,18.84,2.27,26.11,20.91,27.18,6.88.4,12.8,2.07,16.73-5.54,6.59-12.75-6.69-12.91-8.36-19.63,1.36,2.6,2.61-.52,3.02-.5.55.02,1.28,2.15,1.86,2.52.61.38.66-.53.7-.5,3.09,2.33,4.71,5.46,6.27,9.06,40.71,1.2,81.54.77,122.21,3.02,15.26.85,32.33,1.54,47.4,3.52,3.97.52,30.47,3.48,15.8,8.05-22.07,6.87-69.74,6.9-94.33,8.05-119.66,5.59-245.57,5.99-365.23.5-23.58-1.08-78.71-1.59-98.97-9.06-.67-.25-3.95-1.42-3.49-2.77,2.35-1.36,5.08-2.17,7.67-2.77,6.99-1.61,35.38-5.01,41.59-4.03,4.33.68,1.34,1.11,2.32,2.77.49.83,2.04,1.94,2.32,2.27.96,1.1.68,1.46,2.32,2.01,1.83.62,2.83.84,4.65,0,3.34-1.54,2.58-5.47,2.79-8.56,1.52.26.73-1.39.93-2.52l2.32,2.01,104.09-.5c2.22,1.32,5.51-1.53,5.58-3.52.17,3.06.2,12.63,3.49,13.59,1.94.57,3.57-.04,4.88-1.51,1.85-2.07,1.68-7.51,1.86-10.57,1.1-.35,2.22-.01,3.25,0,14.78.18,29.59-.13,44.38,0,1.22-2.94,4.97-9.32,7.67-10.57,1.17-.54,3.25.46,3.72-.25.22-.33.07-6.37.46-8.05,1.5-6.37,4.47-13.15,10.22-5.79Z"/>
    <g>
      <g>
        <path class="cls-52" d="M141.31,291.18c5.15,2.96,7.76-2.26,8.6-2.01.24.07,2.04,3.12,3.72,3.52,5.26,1.27,7.9-3.02,8.36-3.02.63,0,7.13,7.39,11.15,1.51l.23,2.27-2.32.76-104.09.5-.23-5.03c2.43,5.13,8.32,0,8.83,0,.12,0,1.46,1.51,1.86,1.51,5,.02,5.68-.42,7.9-5.54h52.04c1.39,1.9,1.75,4.27,3.95,5.54Z"/>
        <g>
          <path class="cls-32" d="M61.38,130.11l-.46,173.66c-1.82.84-2.82.62-4.65,0v-171.89l2.79-2.77c1.42.1,1.28.26,2.32,1.01Z"/>
          <path class="cls-13" d="M59.06,129.11l-2.79,2.77v171.89c-1.64-.56-1.37-.92-2.32-2.01l-1.39-4.28v-163.59c1.36-3.31,3.05-5.04,6.51-4.78Z"/>
          <path class="cls-37" d="M63.71,295.21c-.2,3.08.55,7.02-2.79,8.56l.46-173.66c1.42,1.01,1.69,1.62,2.32,3.27-2.59,52.78,3.46,109.5,0,161.83Z"/>
        </g>
        <path class="cls-29" d="M171.04,276.08c-6.72-1.95-7.66,2.69-9.06,2.52-.36-.04-2.15-2.69-2.79-3.02-5.83-3.03-8.67,3.02-9.29,3.02-1,0-7.95-9.33-12.08,2.52-6.9-1.47-50.04,1.92-52.97,0-.33-.22-.98-5.95-4.65-6.04-3.13-.07-4.34,3.98-4.65,4.03-.55.09-4.5-7.44-9.06-1.01.2-4.42-.15-8.91,0-13.34l1.63-.76,52.51.5c.84,4.12,3.92,7.01,7.9,6.04,3.29-.8,3.28-7.63,7.9-6.54.83.29,1.74,5.79,5.11,6.54,4.7,1.05,6.57-3.02,6.97-3.02.45,0,3.09,4.39,7.9,3.52,3.87-.7,4.77-6.18,5.58-6.54.49-.22,10.2-.74,10.69-.5l.7,12.84c-.82.44-1.26-.45-2.32-.76Z"/>
        <g>
          <path class="cls-37" d="M186.84,292.19c-.17,3.06-.01,8.5-1.86,10.57l-1.86.25.46-172.9c2.3.9,2.32,2.11,3.25,4.28-2.2,51.76,2.93,106.38,0,157.8Z"/>
          <g>
            <path class="cls-24" d="M183.59,130.11l-.46,172.9,1.86-.25c-1.31,1.47-2.94,2.08-4.88,1.51-3.29-.96-3.31-10.53-3.49-13.59-2.89-51.45,2.05-106.06.46-157.8,1.53-3.06,3.45-3.96,6.51-2.77Z"/>
            <path class="cls-34" d="M178.25,169.37c.39,41.77.39,83.57,0,125.33-.38-41.8-.43-83.55,0-125.33Z"/>
          </g>
        </g>
        <g>
          <path class="cls-11" d="M66.96,288.16c-.33-.58-.45-.47-.46-.5-1.09-3.14-.31-4.31.46-6.54-.53,3.28,3.12,3.16,3.72,1.26.39-1.23-1.98-1.64,2.79-3.78,4.42,5.94-2.48,16.76-6.51,9.56Z"/>
          <path class="cls-53" d="M73.46,278.6c-4.77,2.14-2.4,2.54-2.79,3.78-.6,1.9-4.25,2.02-3.72-1.26,1.24-3.59,3.49-6.57,6.51-2.52Z"/>
        </g>
        <g>
          <path class="cls-19" d="M161.29,284.64c-1.25,7.04-6.22,7.87-10.69,3.02v-.5c1.85-.73,1.34-4.14,2.32-5.79,1.61-2.68.94.25,1.86.76.86.47,2.04-1.16.46-1.51,1.16-2.74,2.64-.75,3.72-2.52,2.88,2.43,3,2.71,2.32,6.54Z"/>
          <path class="cls-19" d="M147.35,278.6c2.18,2.68,2.44,3.19,1.39,7.05s-4.15,5.68-7.43,3.52c-.07-.05-.75-1.23-.93-1.51.62-2.95-.05-6.27,2.56-8.05l.7,1.51-.7-.5c-1.42,1.81-.38,1.84.7.5,1.22-1.52.8-3.12,3.72-2.52Z"/>
          <path class="cls-33" d="M170.11,277.09c.09.04,1.18,1.27,1.39,1.51-1.88.96-6.15,1.48-6.97,3.78-.04.11.97,1.91.93,2.01-.07.19-2.34,2.13-2.32,3.27h-.46c-1.04-5.28,1.36-12.94,7.43-10.57Z"/>
          <path class="cls-36" d="M158.96,278.1c-1.08,1.77-2.56-.22-3.72,2.52-.12.29-.04,1-.46,1.51-.92-.51-.25-3.43-1.86-.76-.99,1.64-.47,5.06-2.32,5.79-1.79-6.33,2.21-14.24,8.36-9.06Z"/>
          <path class="cls-36" d="M147.35,278.6c-2.92-.61-2.5,1-3.72,2.52l-.7-1.51c-2.6,1.78-1.94,5.1-2.56,8.05-3.94-6.24,1.77-15.45,6.97-9.06Z"/>
          <path class="cls-29" d="M154.78,282.12c.43-.51.34-1.22.46-1.51,1.58.35.4,1.98-.46,1.51Z"/>
          <g>
            <path class="cls-19" d="M163.14,287.66c-.02-1.14,2.25-3.08,2.32-3.27.04-.11-.97-1.91-.93-2.01.82-2.3,5.09-2.82,6.97-3.78,4.44,4.98.75,14.95-5.81,12.08-.76-.33-2.54-2.35-2.56-3.02Z"/>
            <path class="cls-8" d="M167.09,281.12c.38-.06.91-.13,1.16.25l-2.09,1.26c-.81-.64.78-1.49.93-1.51Z"/>
          </g>
          <path class="cls-29" d="M143.63,281.12c-1.07,1.34-2.12,1.31-.7-.5l.7.5Z"/>
        </g>
        <g>
          <path class="cls-50" d="M171.04,276.08c-1.29-.03-1.67-.19-.93,1.01-6.08-2.37-8.48,5.29-7.43,10.57l-1.39-3.02c.68-3.84.56-4.12-2.32-6.54-6.15-5.18-10.15,2.73-8.36,9.06v.5c-.92-.99-.84-1.99-1.86-2.01,1.04-3.86.79-4.37-1.39-7.05-5.2-6.39-10.91,2.82-6.97,9.06.18.28.86,1.46.93,1.51v2.01c-2.2-1.27-2.56-3.64-3.95-5.54h-52.04c-2.22,5.12-2.9,5.56-7.9,5.54-.4,0-1.74-1.51-1.86-1.51-.51,0-6.4,5.13-8.83,0l.23,5.03-2.32-2.01c.33-1.84.58-3.69,2.32-4.53,4.02,7.2,10.93-3.63,6.51-9.56-3.01-4.05-5.26-1.07-6.51,2.52-.77,2.23-1.56,3.4-.46,6.54-2.33-3.04-.14-6.44,0-9.56,4.56-6.43,8.51,1.09,9.06,1.01.31-.05,1.51-4.1,4.65-4.03,3.66.09,4.32,5.82,4.65,6.04,2.93,1.92,46.07-1.47,52.97,0,4.13-11.85,11.08-2.51,12.08-2.52.62,0,3.46-6.05,9.29-3.02.64.33,2.43,2.98,2.79,3.02,1.4.17,2.34-4.46,9.06-2.52Z"/>
          <g>
            <path class="cls-11" d="M76.72,279.61l1.16,4.53c.58.39,1.86-1.77,2.09-2.01.9-.97.69-1.17.93-1.51.56-.81,1.14-1.38,1.86-2.01,1.74,2.82,1.82,6.57,0,9.31-3.97,5.98-8.84-1.68-6.04-8.31Z"/>
            <path class="cls-51" d="M82.76,278.6c-.72.63-1.3,1.21-1.86,2.01-1.22-1.72-3.06,1.51-.93,1.51-.23.25-1.51,2.4-2.09,2.01l-1.16-4.53c1.57-3.71,3.76-4.72,6.04-1.01Z"/>
            <path class="cls-44" d="M80.9,280.61c-.24.34-.03.54-.93,1.51-2.13,0-.3-3.23.93-1.51Z"/>
          </g>
        </g>
      </g>
      <g>
        <g>
          <g>
            <path class="cls-10" d="M256.54,267.53c6.58,2.89,13.13,5.84,20.21,7.05.65.75-.59,3.18-.7,4.03-1.87,15.46-3.48,31.06-21.84,28.19.35-.07,6.23-2.26,6.74-2.52,1.54-.78,4.79-2.88,5.81-4.28,1.19-1.63,5.08-15.27,5.11-17.11.03-1.64-.09-1.72-1.16-2.77l-15.1-9.56c-.99-1.32-2.32-2.64-2.32-4.53,1.12.48,2.16,1.03,3.25,1.51Z"/>
            <path class="cls-7" d="M254.22,306.79c-4.06.84-7.79.73-11.62-1.01,7.96-1.98,18.71.74,21.84-9.82,3.54-11.95-2.81-17.37-8.83-25.42l15.1,9.56c1.07,1.05,1.19,1.13,1.16,2.77-.03,1.85-3.92,15.49-5.11,17.11-1.02,1.4-4.26,3.5-5.81,4.28-.51.26-6.39,2.44-6.74,2.52Z"/>
            <path class="cls-34" d="M252.36,265.51c-1.54,5.37-1.73,12.64-4.65,17.37-1.86,3.01-8.23,6.81-9.29,10.07-.99,3.03.14,5.5-.46,8.31-6.72-12.77,6.44-13.34,8.36-18.37,1.59-4.17-.19-14.2,4.88-18.37.82-.23,1.09.98,1.16,1.01Z"/>
            <g>
              <path class="cls-33" d="M253.29,266.02c0,1.89,1.33,3.21,2.32,4.53,6.02,8.05,12.37,13.47,8.83,25.42-3.13,10.56-13.88,7.84-21.84,9.82-2.62-1.19-3.18-1.75-4.65-4.53.61-2.8-.53-5.27.46-8.31,1.06-3.25,7.43-7.05,9.29-10.07,2.91-4.72,3.11-11.99,4.65-17.37.81.26.88.48.93.5Z"/>
              <path class="cls-29" d="M247.95,288.67l1.63.76c1.06,2.7-4.29,5.16-6.27,5.29-2.57-4.55,3.35-2.11,4.65-6.04Z"/>
            </g>
          </g>
          <g>
            <path class="cls-7" d="M357.84,266.02c.11,1.07-.42,2.16-.93,3.02-2.76.07-4.34,3.63-6.74,5.54-1.44,1.14-10.25,6.12-10.46,6.8,1.5,7.28,2,17.85,8.6,21.9,2.6,1.59,6.13,1.3,8.13,3.52-18.64-1.08-18.46-8.34-20.91-27.18-.2-1.53-1.82-3.69-.23-5.03,7.9-1.74,15.09-5.46,22.54-8.56Z"/>
            <path class="cls-7" d="M356.91,269.04c-1.69,2.83-4.79,5.08-6.51,7.8-7.29,11.53-6,25.99,8.6,27.94,6.27.84,7.64.3,12.78-3.02.44-.28.83-.62,1.39-.5-3.93,7.6-9.85,5.93-16.73,5.54-2-2.22-5.53-1.93-8.13-3.52-6.6-4.05-7.1-14.62-8.6-21.9.2-.68,9.02-5.65,10.46-6.8,2.4-1.9,3.97-5.46,6.74-5.54Z"/>
            <path class="cls-34" d="M364.81,281.62c1.67,6.72,14.96,6.88,8.36,19.63-.57-.12-.96.22-1.39.5,4.91-10.11-4.98-13.24-8.36-18.88-2.84-4.72-2.67-12.27-4.65-17.37.07-.02.34-1.24,1.16-1.01,4.55,4.64,3.54,11.72,4.88,17.11Z"/>
            <g>
              <path class="cls-33" d="M358.77,265.51c1.98,5.09,1.8,12.64,4.65,17.37,3.39,5.63,13.27,8.77,8.36,18.88-5.14,3.32-6.51,3.86-12.78,3.02-14.6-1.95-15.89-16.4-8.6-27.94,1.72-2.72,4.82-4.97,6.51-7.8.51-.86,1.03-1.95.93-3.02.05-.02.12-.25.93-.5Z"/>
              <path class="cls-29" d="M362.26,288.67c1.89-.27,2.3,2.29,3.25,3.02.27.21,6.39.04,1.39,3.52-1.93-2.22-7.37-2.62-4.65-6.54Z"/>
            </g>
          </g>
        </g>
        <g>
          <path class="cls-14" d="M370.39,283.13s-.09.88-.7.5-1.31-2.49-1.86-2.52c-.41-.02-1.66,3.1-3.02.5-1.34-5.39-.33-12.48-4.88-17.11-.82-.23-1.09.98-1.16,1.01-.81.26-.88.48-.93.5-7.45,3.1-14.64,6.82-22.54,8.56-1.59,1.35.03,3.51.23,5.03-1.38-.28-4.31.22-5.58,1.51-.26-1.08,0-4.41-1.16-5.03-15.26,1.73-30.85,2.72-46-.5-1.54.53-2.42,13.52-3.49,15.86l52.51-.25c0,.08,1.06.7-.23,1.51-17.5-.49-35.58.99-52.74-.76-.56-5.49,5.07-13.31-2.79-13.34.1-.85,1.35-3.28.7-4.03-7.08-1.21-13.63-4.15-20.21-7.05-5.76-7.36-8.72-.58-10.22,5.79-.4,1.69-.25,7.72-.46,8.05-.47.71-2.55-.29-3.72.25.5-6.64,1.19-13.45,5.11-18.88-19.59-12.82-33.16-28.85-42.75-51.34-1.55-3.63-3.21-12.68-4.65-15.1-1.26-2.13-7.73-5.42-9.53-7.8l-.23,103.69c-1.04-.01-2.15-.35-3.25,0,2.93-51.42-2.2-106.04,0-157.8-.94-2.17-.95-3.38-3.25-4.28-3.06-1.19-4.98-.29-6.51,2.77,1.59,51.74-3.35,106.35-.46,157.8-.06,1.99-3.36,4.84-5.58,3.52l2.32-.76-.23-2.27c-4.02,5.88-10.52-1.51-11.15-1.51-.46,0-3.11,4.29-8.36,3.02-1.67-.4-3.48-3.45-3.72-3.52-.84-.24-3.45,4.97-8.6,2.01v-2.01c3.28,2.16,6.44.16,7.43-3.52,1.02.02.94,1.02,1.86,2.01,4.46,4.85,9.44,4.02,10.69-3.02l1.39,3.02h.46c.01.67,1.79,2.69,2.56,3.02,6.56,2.87,10.25-7.1,5.81-12.08-.22-.24-1.3-1.47-1.39-1.51-.74-1.2-.36-1.04.93-1.01,1.06.31,1.5,1.19,2.32.76l-.7-12.84c-.49-.24-10.19.28-10.69.5-.81.36-1.71,5.85-5.58,6.54-4.81.87-7.45-3.52-7.9-3.52-.4,0-2.27,4.07-6.97,3.02-3.37-.75-4.28-6.26-5.11-6.54-4.62-1.08-4.61,5.74-7.9,6.54-3.97.97-7.06-1.92-7.9-6.04l-52.51-.5-1.63.76c-.15,4.43.2,8.92,0,13.34-.14,3.12-2.33,6.53,0,9.56.01.03.14-.08.46.5-1.74.84-1.99,2.69-2.32,4.53-.2,1.12.59,2.78-.93,2.52,3.46-52.32-2.59-109.05,0-161.83-.64-1.65-.9-2.27-2.32-3.27-1.05-.74-.91-.9-2.32-1.01-3.46-.26-5.15,1.47-6.51,4.78v163.59l1.39,4.28c-.28-.32-1.83-1.44-2.32-2.27-.99-1.66,2.01-2.08-2.32-2.77l.46-164.34c13.11-19.18,18.98,3.69,16.96,17.37,1.63-4.68,5.82-7.49,10.22-5.03,2.11,1.18,3.44,5.38,3.72,5.54.81.45,17.29.38,18.12,0,.47-.22,1.99-5.63,5.58-6.04,5.34-.61,6,5.6,6.97,6.04,1.27.57,26.16.59,27.42,0,.53-.25,1.24-4.87,2.09-6.29.61-1.03,14.63-15.77,15.57-16.36,2.1-1.32,5.93-2.13,8.36-2.01,3.15.15,10.13,4.1,10.69,4.03.42-.05,3.44-3.89,7.43-3.52,11.15,1.03,4.7,20.32,6.74,25.92.34.93,5.96,2.39,6.27,2.27,1.05-.41,4.36-20.12,5.34-23.41,11.1-37.04,43.12-70.22,79.23-76.26,7.72-1.29,15.76-.7,23.47-2.27.15-7.39-.46-15-2.32-22.15-1.91-7.3-12.2-22.46-4.88-27.94,14.63-10.95,23.54,20.82,23.7,31.71,10.58-12.9,26.79-22.38,42.75-24.16,30.25-3.38,55.88,13.53,85.73,12.84-17.29,30.12-50.11,49.68-83.18,46.81,27.87,19.62,47.22,51.2,49.72,87.58,5.58,2.09,18.46,7.98,21.37,13.59,2.6,5.01,2.33,18.67.93,24.16-.86,3.35-6.41,10.91-6.51,11.58-.23,1.61,2.54,8.38,1.39,11.07-2.48,5.6.67,14.34-1.86,19.63-4.35,9.1-30.69,5.49-33.22-5.79-1.86-.53-13.72,14.64-16.26,17.11-5.36,5.2-11.56,9.38-17.43,13.84,4.91,6.06,3.38,14.7,6.51,20.89Z"/>
          <g>
            <g>
              <path class="cls-52" d="M81.13,155.28c.82-.37,16.88-.44,17.66,0,.36.21,1.78,5.69,5.58,6.04,4.92.45,6.02-5.65,6.97-6.04,1.35-.55,27.43-.44,28.81,0,.44.14,3.42,3.83,5.11,4.53,3.16,1.31,6.64.33,8.83,1.01.65.2,4.64,3.9,6.51,4.53,3.35,1.13,6.43.5,9.53,1.76-.79.83-.63,5.39-1.16,5.79-1.45,1.1-31.01-.84-35.31,0-2.21-3.99-5.11-7.32-9.76-5.54-1.45.56-3.03,3.49-3.25,3.52-.86.14-8.78-10.38-13.48,2.01h-39.96l-.7-14.85c2.97,3.61,7.32,5.8,11.38,2.77,1.52-1.13,2.76-5.31,3.25-5.54Z"/>
              <path class="cls-52" d="M67.19,221.22c.53-.26,11.07-.2,11.62,0,.97.35,2.34,4.96,4.65,5.54,4.32,1.09,5.79-2.94,6.51-3.02.51-.06,3.07,4.3,7.9,3.02,2.54-.67,3.58-5.26,4.18-5.54,1.67-.76,34.57-.76,36.24,0,1.07.49,1.56,7.01,7.43,5.54,1.12-.28,2.38-2.62,3.25-2.52.27.03,2.18,2.75,3.25,3.02,6.07,1.52,6.37-5.46,7.9-6.04.59-.23,11.97-.28,12.55,0l.7,12.84-7.2-1.26c-5.68,4.93-3.59,1.72-6.51.5-6.45-2.69-7.33,4.44-8.83,5.03-1.63.65-33.22.66-34.85,0-.38-.15-2.23-4.19-3.72-5.03-5.61-3.19-9.21,3.1-9.76,3.02-.31-.05-2.48-3.71-5.11-4.03-4.48-.54-6.56,3.96-6.97,4.03-.5.08-3.17-5.67-8.83-3.52-1.1.42-3.04,3-3.25,3.02-.67.08-7.7-7.56-11.62-.5l.46-14.09Z"/>
              <path class="cls-52" d="M106.69,177.43c1.02.35,1.77,8.9,9.76,7.05,1.71-.4,3.47-3.49,3.72-3.52.73-.11,5.23,8.93,12.31.25.38-.46.65-3,1.16-3.27,3.47-1.85,29.53,1.41,35.31,0,1.34,4.44,2.11,9.1,4.88,12.84-.51,1.02-3.18-1.61-3.95-1.76-5.13-1-7.45,3.56-7.9,3.52s-2.36-4.71-7.43-3.52c-2.76.65-4.37,5.74-5.11,6.04-1.5.62-30.54.55-32.06,0-.98-.35-3.01-5.46-6.04-6.04-5.46-1.04-7.44,4.02-7.9,4.03-.3,0-2.13-3.55-4.65-4.03-5.79-1.1-7.44,3.97-7.9,4.03-.49.06-2.44-5.38-8.36-4.03-1.52.35-3.92,3.52-4.18,3.52-.67,0-7.32-7.9-11.62-1.01v-13.59l39.96-.5Z"/>
              <path class="cls-52" d="M117.37,199.57c1.48-.67,30.64-.8,32.06,0,.35.2,1.22,5.75,4.65,6.54,5.1,1.17,7.02-2.95,7.43-3.02.66-.11,7.25,7.77,11.62,1.51l.23,11.33c-.38.94-12.84,1.14-13.71.76-.36-.16-2.06-4.53-4.18-5.03-3.85-.92-6.14,3.08-6.51,3.02-1.33-.22-6-9.09-10.69,2.01h-35.78c-1.92-3.61-3.78-7.02-8.36-6.04-1.88.4-3.48,3.47-3.72,3.52-1.13.25-3.85-6.22-9.06-1.26-.56.53-1.41,3.49-2.09,3.78-2.11.87-9.77-.65-12.55,0v-12.08c4.22,6.24,10.96-1.01,11.62-1.01.25,0,2.63,2.7,4.18,3.02,5.37,1.1,7.56-3.11,8.36-3.02.21.02,2.49,2.72,3.25,3.02,5.76,2.24,8.35-3.02,9.29-3.02.45,0,2.86,4.37,7.9,3.52,4.75-.8,5.06-7.11,6.04-7.55Z"/>
              <path class="cls-52" d="M115.98,243.37c1.47-.96,32.81-.74,34.39,0,.74.35,1.44,5.3,4.65,6.04,4.69,1.08,6.58-2.51,6.97-2.52.61,0,6.96,7.2,10.69,1.51l.7,10.32c-.39.96-10.44,1.11-11.38.76-.64-.24-2.73-5.45-5.58-6.04-4.61-.96-7.01,3.52-7.43,3.52-.4,0-2.75-4.32-6.97-3.52-3.06.58-4.55,5.79-5.11,6.04-4.66,2.07-4.51-3.5-6.97-5.03-4.2-2.62-7.79.7-9.29,5.03h-53.9v-11.58c3.21,6.16,10.89-.59,11.62-.5.2.02,2.19,2.2,3.25,2.52,5.39,1.62,7.91-2.63,8.83-2.52.2.02,2.19,2.21,3.25,2.52,6.25,1.8,8.21-3.02,8.83-3.02.42,0,3.21,4,7.43,3.52,5.13-.58,5.64-6.78,6.04-7.05Z"/>
              <path class="cls-37" d="M133.64,174.41c1.53-.95,33.84-1.05,35.31,0,.3.22.35,1.6.23,1.76-1.07,1.5-31.12-.25-35.08.25-.59-.34-1.1-1.62-.46-2.01Z"/>
              <path class="cls-19" d="M99.95,155.28c2.1-.82,1.63-3.29,1.86-4.28.33-1.44,1.78,1.22,3.02-.25.16-.19.69-2.87,2.09-4.03,8.93,5.07-4.01,19.22-6.97,8.56Z"/>
              <path class="cls-12" d="M116.45,239.84c1.54-1.1,29.67.84,33.92,0l.23,1.76c-4.15-.34-32.73,1.27-34.15.25-.38-.27-.38-1.74,0-2.01Z"/>
              <polygon class="cls-12" points="119.93 263 66.49 262.49 120.16 260.98 119.93 263"/>
              <path class="cls-42" d="M106.92,175.41l-40.43.5,40.43-.5Z"/>
              <path class="cls-42" d="M119.93,263l-53.44-.5,53.44.5Z"/>
              <path class="cls-42" d="M149.67,197.06l-32.53.5,32.53-.5Z"/>
              <path class="cls-42" d="M137.59,220.21l-35.31-1.01,35.31,1.01Z"/>
              <path class="cls-26" d="M106.92,175.41l-40.43.5,40.43-.5Z"/>
              <g>
                <g>
                  <path class="cls-28" d="M121.32,179.44c1.65-1.55.09-3.2,2.32-3.27-1.47-.88-.78-2.9.7-3.27-1.63,5.51,3.78-1.49,4.41-3.52,8.62,5.02-1.99,20.89-7.43,10.07Z"/>
                  <path class="cls-46" d="M128.76,169.37c-.64,2.04-6.04,9.04-4.41,3.52-1.47.37-2.17,2.39-.7,3.27-2.23.07-.68,1.73-2.32,3.27-2.5-4.97,1.29-13.65,7.43-10.07Z"/>
                </g>
                <g>
                  <path class="cls-28" d="M110.17,180.95c-.84-2.27-.45-3.04.93-4.78-4.17.02-.22-4.08,2.09-1.26.21-4.06.48-2.48,3.95-5.03,6.23,4.8-.66,17.62-6.97,11.07Z"/>
                  <path class="cls-46" d="M117.14,169.88c-3.47,2.56-3.74.97-3.95,5.03-2.31-2.82-6.26,1.28-2.09,1.26-1.38,1.74-1.77,2.51-.93,4.78-4.77-4.95,0-16.44,6.97-11.07Z"/>
                </g>
              </g>
              <path class="cls-12" d="M81.13,151.76c.94-.67,14.81.51,17.19,0l.7,1.76c-2.29.1-17.14.78-17.89.25-.38-.27-.38-1.74,0-2.01Z"/>
              <path class="cls-26" d="M149.67,197.06l-32.53.5,32.53-.5Z"/>
              <path class="cls-36" d="M106.92,146.72c-1.4,1.15-1.93,3.84-2.09,4.03-1.24,1.48-2.69-1.18-3.02.25-.22.99.24,3.46-1.86,4.28-1.39-5,1.9-11.43,6.97-8.56Z"/>
              <g>
                <path class="cls-49" d="M98.56,213.67c6.83,7.3-5.65,17.65-7.9,7.05.78-1.91,2.31-.63,2.32-.76.15-1.1-1.02-2.11-.23-3.27,3.02,2.66,2.3-2.63,5.81-3.02Z"/>
                <path class="cls-49" d="M82.29,223.73l-.93-4.78c3.45,1.26.24-.76,1.63-2.27,2.06,3.99,1.24-2.41,4.88-2.52,3.98,5.04-.67,14.26-5.58,9.56Z"/>
                <path class="cls-39" d="M98.56,213.67c-3.51.39-2.79,5.68-5.81,3.02-.79,1.16.39,2.17.23,3.27-.02.13-1.55-1.15-2.32.76-1.18-5.57,3.02-12.26,7.9-7.05Z"/>
                <path class="cls-39" d="M87.87,214.17c-3.64.11-2.82,6.51-4.88,2.52-1.39,1.5,1.83,3.53-1.63,2.27l.93,4.78c-4.83-4.63.81-15.59,5.58-9.56Z"/>
              </g>
              <polygon class="cls-12" points="137.59 220.21 102.27 219.2 138.28 217.69 137.59 220.21"/>
              <path class="cls-42" d="M111.1,152.76l28.34-.5-28.34.5Z"/>
              <path class="cls-26" d="M139.45,152.26l-28.34.5,28.34-.5Z"/>
              <path class="cls-12" d="M160.12,217.69c3.6,1.55,8.57-.36,12.08.5.56.14,2,.06,1.16,1.26-.9,1.3-11.23.54-13.24.76v-2.52Z"/>
              <path class="cls-12" d="M77.41,217.69c1.61.15,3.35,1.44,1.86,2.52-.89.64-16.85-.21-12.08-2.01.48-.18,9.58-.56,10.22-.5Z"/>
              <g>
                <path class="cls-49" d="M147.35,215.18c4.86,10.13-8.72,14.26-7.9,3.02l2.09,2.01c.48-.16-1.13-5.8,1.39-2.01.7.06,2.01-6.19,4.41-3.02Z"/>
                <path class="cls-23" d="M149.2,221.22c2.08-.26,1.89-3.43,2.09-3.52.42-.2,1.28.94,1.86.5.21-.16,1.64-3.26,3.02-4.03,7.16,6.91-5.41,16.73-6.97,7.05Z"/>
                <path class="cls-16" d="M156.17,214.17c-1.38.76-2.81,3.87-3.02,4.03-.58.44-1.44-.7-1.86-.5-.21.1-.02,3.26-2.09,3.52-.68-4.22,2.69-11.18,6.97-7.05Z"/>
                <path class="cls-43" d="M147.35,215.18c-2.41-3.17-3.71,3.08-4.41,3.02-2.52-3.78-.92,1.86-1.39,2.01l-2.09-2.01c.36-4.91,5.21-8.63,7.9-3.02Z"/>
              </g>
              <path class="cls-12" d="M161.98,260.98c.49-.29,10.64-.23,11.15,0,4.34,1.92-9.51,2.61-10.69,2.01-.14-.07-.64-1.91-.46-2.01Z"/>
              <g>
                <path class="cls-33" d="M173.83,145.21c-2.07,1.99-3.82,13.53-5.34,14.6-2.56,1.8-6.46-1.16-8.6.5-.7-.43-.69-.78-.93-1.01l6.04-9.82c-.33-.27-.36-.8-.93-.5-.32.17-3.58,4.27-5.11,5.29-4.19,2.78-8.5,4.56-13.24,1.51-5.43-3.49-3.11-7.7-.23-11.58,4.92-2.51,12.25-10.48,17.19-12.08,2.39-.77,6.79-.03,9.29-1.51,4.16,2.56,1.85,9.53,1.86,14.6Z"/>
                <path class="cls-7" d="M159.89,160.31c2.14-1.66,6.04,1.29,8.6-.5,1.52-1.07,3.28-12.6,5.34-14.6,0,2.43.54,16.32-.7,17.11-4.28.72-9.36.36-13.24-2.01Z"/>
                <path class="cls-34" d="M168.72,129.61c-1.84,1.14-4.83.26-6.04,2.52-4.94,1.6-12.27,9.57-17.19,12.08,1.19-1.6,13.25-14.25,14.17-14.6,2.5-.95,6.46-.56,9.06,0Z"/>
                <path class="cls-3" d="M158.96,159.31c-3.33-3.24-.39-.89,0-5.03,1.53-1.02,4.79-5.12,5.11-5.29.57-.3.6.23.93.5l-6.04,9.82Z"/>
                <path class="cls-22" d="M171.97,130.62c-2.51,1.48-6.9.74-9.29,1.51,1.21-2.26,4.2-1.37,6.04-2.52.7.15,2.77.71,3.25,1.01Z"/>
              </g>
              <g>
                <g>
                  <path class="cls-2" d="M167.09,190.01c10.23-.69,6.65,19.83-2.32,14.09-5.08-3.25-2.89-13.74,2.32-14.09Z"/>
                  <polygon class="cls-30" points="164.77 197.06 165.24 197.56 165.24 198.06 164.77 198.06 164.77 197.06"/>
                </g>
                <g>
                  <path class="cls-2" d="M155.48,190.01c1.01-.11,2.42.46,3.25,1.01,5.92,3.87.91,16.86-5.58,12.58-4.61-3.04-2.37-13.09,2.32-13.59Z"/>
                  <path class="cls-17" d="M155.01,194.54c2.18-.37.92,2.11-.93,1.51-.41-.37.85-1.5.93-1.51Z"/>
                  <polygon class="cls-52" points="152.69 197.06 153.15 197.56 153.15 198.06 152.69 198.06 152.69 197.06"/>
                </g>
              </g>
              <g>
                <g>
                  <path class="cls-2" d="M167.09,233.8c9.96-1.22,7.07,19.67-2.32,13.59-4.56-2.95-2.4-13.01,2.32-13.59Z"/>
                  <path class="cls-25" d="M167.56,235.31c3.09-.29.15,3.06-.46,4.53,1.06-3.28-3.14-.34-2.09-2.27.27-.49,2.17-2.23,2.56-2.27Z"/>
                  <path class="cls-38" d="M164.77,240.85c.58.92.18,2.08-.46,1.01-.33-.55.18-.61.46-1.01Z"/>
                </g>
                <g>
                  <path class="cls-2" d="M155.01,234.31c9.68-3.11,8.09,17.19-.46,13.09-4.34-2.08-3.31-11.88.46-13.09Z"/>
                  <path class="cls-17" d="M156.41,238.33c1.35.87-1.57,2.82-2.09,1.76-.23-.47,1.98-1.83,2.09-1.76Z"/>
                </g>
              </g>
              <g>
                <path class="cls-51" d="M67.89,155.78c2.88-1.02-.33-1.39,3.25-4.53,1.43,1.29,1.53-.27,2.32-1.01,1.03-.95,2.36-2.1,2.79-3.52,9.3,6.44-4.8,21.43-8.36,9.06Z"/>
                <path class="cls-18" d="M76.25,146.72c-.43,1.43-1.76,2.57-2.79,3.52-1.22-.96-1.71.47-2.32,1.01-3.59,3.14-.37,3.51-3.25,4.53-1.75-6.09,2.16-13.35,8.36-9.06Z"/>
                <path class="cls-44" d="M73.46,150.25c-.8.73-.9,2.3-2.32,1.01.61-.53,1.11-1.97,2.32-1.01Z"/>
              </g>
              <g>
                <path class="cls-2" d="M94.84,191.02c-.7,2.81-2.79,4.11-1.63,7.55.52-2.65.94-1.71,1.63-2.52,1.85,1.29,3.29-1.41,1.39-1.51,1.15-.98,2.62-1.52,3.25-3.02,6.13,3.87,2.6,14.8-3.95,13.59-5.74-1.06-6.59-11.38-.7-14.09Z"/>
                <path class="cls-49" d="M105.06,202.59c-1.36-4.03.79-1.36,1.39-2.77.08-.18-.08-3.85,0-4.03.47-1.05.9.29.93.25.65,2.3,3.29-.35,1.86-1.51.07-.04-.2-.77.23-1.01.54-.3,2.84.5,3.49-1.01,6.71,6.39-2.78,17.9-7.9,10.07Z"/>
                <path class="cls-39" d="M112.96,192.53c-.64,1.51-2.95.71-3.49,1.01-.43.24-.16.97-.23,1.01-.54.3-1.47,1.05-1.86,1.51-.03.04-.46-1.3-.93-.25-.08.18.08,3.84,0,4.03-.61,1.4-2.76-1.26-1.39,2.77-4.23-6.46,1.35-16.3,7.9-10.07Z"/>
                <path class="cls-2" d="M99.48,191.52c-.63,1.5-2.11,2.04-3.25,3.02-.56.48-.92.96-1.39,1.51-.69.81-1.11-.13-1.63,2.52-1.16-3.44.93-4.74,1.63-7.55.54-.25,1.44-1.03,2.09-1.01.51.02,2.04,1.18,2.56,1.51Z"/>
                <g>
                  <path class="cls-2" d="M71.37,190.01c.64-.04,2.67.66,3.25,1.01,6.61,3.96,1.8,16.71-5.11,13.59-5.55-2.5-4.05-14.2,1.86-14.6Z"/>
                  <path class="cls-29" d="M71.37,194.54c1.38-.07.49,2.01,0,2.01-.77,0-.84-1.97,0-2.01Z"/>
                </g>
                <g>
                  <path class="cls-2" d="M83.45,190.01c8.24-1.01,8.66,14.45,1.39,15.1-8.06.72-8.1-14.28-1.39-15.1Z"/>
                  <path class="cls-17" d="M83.92,194.54c1.5.95-1.61,3.07-1.63,1.26,0-.14,1.54-1.31,1.63-1.26Z"/>
                </g>
                <path class="cls-17" d="M94.84,196.05c.47-.55.84-1.03,1.39-1.51,1.89.1.45,2.8-1.39,1.51Z"/>
                <path class="cls-48" d="M107.38,196.05c.39-.46,1.32-1.21,1.86-1.51,1.44,1.16-1.21,3.81-1.86,1.51Z"/>
              </g>
              <g>
                <path class="cls-19" d="M87.4,235.82c10.06,9.2-10.74,19.75-8.83,4.53l1.16,3.52c1.31-2.35.07-4.4,2.56-5.03-.01,1.99,1.2.59,1.86-.25-.6-.77-.92.26-1.39.25-.45-1.93,3.24-2.22,4.65-3.02Z"/>
                <path class="cls-19" d="M100.41,236.32c6.55,7.72-6.29,17.8-9.29,8.05,1.05.24,1.33-1.23,1.39-2.01v-1.01c.03-.1-1.3-.94.23-2.01s.94.55,1.63.5c.6-.04,2.59-.2,1.86-1.51,1.39-1.18,1.13-2.21,4.18-2.01Z"/>
                <path class="cls-19" d="M75.79,236.32c6.62,8.04-6.2,17.82-9.29,7.55l2.32-2.27c-1.3-4.91.99-.77,2.56-1.76.93-.59-.29-4.71,4.41-3.52Z"/>
                <path class="cls-19" d="M104.13,245.38c.97-1.85.6-6.1,2.79-6.54-.53,3.29,1.57-.2,1.86-.5.73-.76,1.61-2.27,2.79-3.02,7.65,5.39-1.85,19.09-7.43,10.07Z"/>
                <path class="cls-36" d="M75.79,236.32c-4.71-1.19-3.48,2.93-4.41,3.52-1.57.99-3.86-3.15-2.56,1.76l-2.32,2.27c-1.99-6.63,4.21-13.72,9.29-7.55Z"/>
                <path class="cls-33" d="M100.41,236.32c-3.05-.2-2.79.84-4.18,2.01-.21.18-2.13-.35-1.86,1.51-.68.04-.09-1.58-1.63-.5s-.21,1.92-.23,2.01c-.07.26.03.68,0,1.01-.07.79-.35,2.25-1.39,2.01-2.2-7.15,3.76-14.58,9.29-8.05Z"/>
                <path class="cls-33" d="M111.57,235.31c-1.17.75-2.06,2.26-2.79,3.02-.7.63-1.2.37-1.86.5-2.19.44-1.81,4.69-2.79,6.54-.26-.41-.77-.87-.93-1.51v-1.51c-.47-5.63,3.11-10.75,8.36-7.05Z"/>
                <path class="cls-3" d="M87.4,235.82c-1.41.8-5.09,1.09-4.65,3.02-.14,0-.33-.03-.46,0-2.49.63-1.24,2.68-2.56,5.03l-1.16-3.52c.72-5.73,4.22-8.74,8.83-4.53Z"/>
                <path class="cls-9" d="M103.2,243.87c-.1-.39.04-1.02,0-1.51v1.51Z"/>
                <path class="cls-5" d="M82.29,238.84c.13-.03.32,0,.46,0,.47.01.79-1.02,1.39-.25-.66.84-1.87,2.24-1.86.25Z"/>
                <path class="cls-13" d="M96.23,238.33c.73,1.31-1.25,1.47-1.86,1.51-.27-1.86,1.65-1.33,1.86-1.51Z"/>
                <path class="cls-17" d="M92.51,242.36c.03-.33-.07-.75,0-1.01v1.01Z"/>
                <path class="cls-27" d="M106.92,238.84c.66-.13,1.16.13,1.86-.5-.29.3-2.38,3.79-1.86.5Z"/>
              </g>
              <g>
                <path class="cls-49" d="M129.69,256.96c3.9,4.29,1.16,13.17-4.88,11.58-3.79-1-3.83-7.97-2.09-11.07,2.33.68-1.43,5.9,1.86,5.29l-.93-2.01c-.29-1.22.88-.72.93-.76-.05,2.09,2.9.6,2.32-1.01.15-.09,1.8-2.41,2.79-2.01Z"/>
                <path class="cls-49" d="M146.88,257.46c5.78,8.6-7.1,16.13-8.83,7.05l1.63-4.53c.68,1.43-.96,3.01,1.16,3.27-.5-2.42-.39-2.17.46-3.27.48,1.97,2.81.49,1.39-1.01.99-.61,1.29-1.86,4.18-1.51Z"/>
                <path class="cls-39" d="M157.57,256.45c-1.28,1.63-5.76,1.69-6.04,4.28-.19,1.77,1.03.91.93,2.01-.13,1.38-4.89,1.16,0,5.79-6.59-2.43-3.07-18.47,5.11-12.08Z"/>
                <path class="cls-39" d="M146.88,257.46c-2.89-.35-3.19.9-4.18,1.51-.2.12-1.34.94-1.39,1.01-.85,1.1-.96.85-.46,3.27-2.12-.27-.48-1.84-1.16-3.27l-1.63,4.53c-1.17-6.11,4.28-13.81,8.83-7.05Z"/>
                <path class="cls-39" d="M129.69,256.96c-.99-.4-2.64,1.93-2.79,2.01-.43.26-1.22.04-2.32,1.01-.05.04-1.22-.46-.93.76l.93,2.01c-3.29.62.47-4.6-1.86-5.29,2.01-3.6,4.53-3.18,6.97-.5Z"/>
                <path class="cls-12" d="M133.17,260.98c1.78-.78,5.84.64,3.25,2.01-2.14,1.13-4.69-1.38-3.25-2.01Z"/>
                <path class="cls-40" d="M126.9,258.97c.58,1.61-2.38,3.09-2.32,1.01,1.1-.96,1.9-.75,2.32-1.01Z"/>
                <g>
                  <path class="cls-49" d="M152.46,268.53c-4.89-4.63-.13-4.41,0-5.79.1-1.1-1.12-.25-.93-2.01.28-2.59,4.76-2.65,6.04-4.28,5.1,3.98,1.79,14.62-5.11,12.08Z"/>
                  <path class="cls-48" d="M154.08,258.97c1.39.31.43,2.72-1.39,2.01-.85-.85,1.28-2.04,1.39-2.01Z"/>
                </g>
                <path class="cls-44" d="M141.31,259.98c.05-.07,1.2-.88,1.39-1.01,1.41,1.5-.91,2.98-1.39,1.01Z"/>
              </g>
            </g>
            <g>
              <path class="cls-47" d="M298.83,65.18l3.49,8.05c5.28-3.69,11.38-2.12,15.8,2.52.05-2.3,1.21-6.08,3.95-5.54-1.65,2.52-1.23,10.22-1.63,10.57-6.76-6.63-13.41-7.1-21.37-2.52,1.73-6.27.94-8.02-4.41-11.33-.22-1.36,3.46-1.67,4.18-1.76Z"/>
              <path class="cls-6" d="M316.95,39.51l-2.09,3.02c-4.56-3.54-.75-8.07-.7-11.83.11-8.17-5.02-15.27-8.83-21.39-1.89-3.03-1.09-3.76,2.09-2.01,6.35,3.49,9.27,25.24,9.53,32.21Z"/>
              <path class="cls-52" d="M320.44,46.05l8.6,8.31c-6.73-.39-11.23,1.1-8.6-8.31Z"/>
              <g>
                <path class="cls-7" d="M420.57,163.33c.21.73.8,1.17,1.39,1.51-2.95,7.48-4,15.8-6.51,23.41-1.1,3.34-3.08,6.82-4.18,9.82,2.66-11.77,4.65-23.78,4.18-35.99.55-.94,4.29.96,5.11,1.26Z"/>
                <path class="cls-34" d="M429.86,202.59c3.44-7.74,5.28-26.2-.23-32.72-1.81-2.15-5.3-3.69-7.67-5.03-.59-.34-1.19-.78-1.39-1.51,4.28,1.53,13.67,7.4,14.87,12.33,1.92,7.91.29,21.2-5.58,26.93Z"/>
                <path class="cls-7" d="M412.67,238.33c-3.76-.66-9.5-2.81-11.15-6.8-3.36-8.12,1.21-10.48,3.72-16.86-.95,7.93-4.4,13.38,2.09,19.63,1.52,1.46,5.39,2.29,5.34,4.03Z"/>
                <path class="cls-34" d="M429.86,215.68c-.05,4.67-1.98,5.48-2.32,8.31-.57,4.72,2.87,7.01-.46,11.83-3.86-9.54-1.17-17.42-.23-27.18,1.24,2.97,1.42,7.19.7,10.32l2.32-3.27Z"/>
                <g>
                  <path class="cls-33" d="M429.86,202.59c-2.86-2.1-6.45-5.93-10.22-4.78,6.17,1.44,10.29,11.41,10.22,17.87l-2.32,3.27c.73-3.12.55-7.35-.7-10.32-.94,9.76-3.63,17.64.23,27.18-2.77,4-10.18,3.26-14.4,2.52.05-1.74-3.83-2.56-5.34-4.03-6.49-6.25-3.05-11.71-2.09-19.63,2.14-5.46,4.02-11.1,6.04-16.61,1.1-2.99,3.08-6.48,4.18-9.82,2.5-7.6,3.55-15.93,6.51-23.41,2.36,1.35,5.85,2.89,7.67,5.03,5.51,6.52,3.67,24.98.23,32.72Z"/>
                  <path class="cls-29" d="M420.8,230.28c.5.17,2.51,4.92-.93,4.03-3.17-.82-.16-4.4.93-4.03Z"/>
                  <path class="cls-29" d="M418.94,226.25c1.62-.1,1.55,3.55.46,4.03-2.21.98-1.95-3.94-.46-4.03Z"/>
                </g>
              </g>
              <g>
                <path class="cls-41" d="M305.33,9.31c3.81,6.12,8.94,13.23,8.83,21.39-.05,3.76-3.86,8.29.7,11.83l2.09-3.02c.33,9.13-.2,19.11-2.32,27.94,2.26,1.9,2.38-4.32,3.49-4.78,1.52-.63,7.8,2.84,9.53,3.78.22,1.03-4.58,2.25-5.58,3.78-2.74-.54-3.9,3.23-3.95,5.54-4.42-4.64-10.51-6.21-15.8-2.52l-3.49-8.05c.82-.1,3.06-.82,3.49-.5.68.51-.58,3.03,1.86,2.01,5.42-2.25,3.8-25.29,3.02-30.96-.65-4.71-7.09-24.81-6.51-26.68,1.28-4.07,3.41,3.34,4.65.25Z"/>
                <path class="cls-6" d="M310.21,56.62c2.27.04-.1,12.7-2.32,12.08-1.57-.43.87-11.04,2.32-12.08Z"/>
              </g>
              <g>
                <path class="cls-28" d="M333.68,39.51c8.47,2.7,24.07,5.27,32.99,6.04,3,5.04,8.1,7.28,12.78,10.07.71.42,2.6,2.95,2.79,3.02,2.85,1.07,16.15-3.61,19.52-5.03,8.27-3.5,15.98-9.28,23.47-14.35-.19-.73-5.81-.77-6.27.25-.4-.32-.4-.68,0-1.01,2.05-1.65,10.9-4.78,13.94-6.54,1.42-.82,3.76-3.36,4.88-4.03.84-.5,2.31-1.03,3.25-.5-7.46,18.81-43.93,36.97-62.03,38.25-14.84,1.06-48.94-8.05-56.46-23.41-2.67-5.46,8.84-14.3,13.01-16.86,1.18-.72,4.72-2.47,6.04-3.02l-14.4,12.84c1.18,2.87,3.84,3.43,6.51,4.28Z"/>
                <path class="cls-4" d="M388.04,14.85l-.7,2.01c5.59-.17,10.75,4.81,15.8,6.04,3.16.77,7.73.35,11.15,1.01,5.36,1.03,10.77,2.55,16.03,4.03-3.8.29-7.53,1.15-11.38,1.01-2.97-.11-17.78-3.55-18.59-3.02-.29.19,1.05,4.94-4.41,1.26l1.16-2.27c-1.77.12-13.88-1.97-14.4-2.52-.74-.78,1.28-1.48-.93-2.52-9.72-4.56-30.3-1.58-40.19,2.52-1.32.55-4.86,2.3-6.04,3.02,15.52-12.15,34.06-13.37,52.51-10.57Z"/>
                <path class="cls-21" d="M441.02,27.43c-.95-.53-2.41,0-3.25.5-2.46.03-4.97-.19-7.43,0-5.26-1.48-10.68-3-16.03-4.03-3.42-.66-7.99-.23-11.15-1.01-5.05-1.24-10.21-6.21-15.8-6.04l.7-2.01c18.09,2.74,35.14,11.51,53.67,11.58.53.57-.67.95-.7,1.01Z"/>
                <g>
                  <path class="cls-31" d="M430.33,27.93c2.47-.19,4.97.03,7.43,0-1.12.67-3.46,3.2-4.88,4.03-3.04,1.77-11.89,4.89-13.94,6.54-.4.32-.4.68,0,1.01.46-1.03,6.08-.99,6.27-.25-7.48,5.06-15.19,10.84-23.47,14.35-3.37,1.43-16.67,6.1-19.52,5.03-.19-.07-2.08-2.6-2.79-3.02-4.68-2.79-9.77-5.03-12.78-10.07,14.26,1.24,29.33.04,43.21-3.52,2.56-.66,5.1-1.37,7.67-2.01l.7-.76c-1.02-1.47-3.23,1.57-4.65-.25,1.37-1.49,3.94-6.7,3.95-9.06l-5.81,10.57c-1.6.99-1.45-.26-2.09,0-.41.16-.18.99-.23,1.01-23.95,7.95-48.64,1.77-72.26-2.52-.67-.12-3.22-.68-3.49.5-2.67-.85-5.32-1.4-6.51-4.28l14.4-12.84c9.89-4.1,30.47-7.07,40.19-2.52,2.21,1.04.19,1.74.93,2.52.52.55,12.63,2.64,14.4,2.52l-1.16,2.27c5.46,3.69,4.13-1.07,4.41-1.26.8-.53,15.61,2.91,18.59,3.02,3.86.14,7.59-.72,11.38-1.01Z"/>
                  <g>
                    <path class="cls-15" d="M409.42,41.52l.46.5c-13.89,3.56-28.95,4.76-43.21,3.52-8.92-.77-24.52-3.34-32.99-6.04.27-1.19,2.81-.63,3.49-.5,23.62,4.29,48.3,10.47,72.26,2.52Z"/>
                    <path class="cls-4" d="M366.67,19.38l-.46,2.01c-.74-.1-.32-.97-.7-1.01-5.31-.57-10.76.38-16.03.76,5.02-1.97,11.88-2.26,17.19-1.76Z"/>
                    <path class="cls-45" d="M366.21,21.39l.46-2.01c1.21.11,7.49.5,6.97,2.27-.49,1.67-6.2-.08-7.43-.25Z"/>
                    <path class="cls-4" d="M370.15,29.44c-.49,5.19-4.34,9.91-8.83,11.58,2.04-2.15,4.51-3.79,6.27-6.29,1.06-1.5,1.64-3.66,2.56-5.29Z"/>
                    <path class="cls-35" d="M409.88,42.03l-.46-.5c.05-.02-.18-.84.23-1.01.65-.26.49.99,2.09,0,.58-.36,1.4-1.01,1.86-1.51,1.42,1.82,3.62-1.22,4.65.25l-.7.76c-2.56.65-5.11,1.36-7.67,2.01Z"/>
                    <path class="cls-4" d="M342.04,35.48c2.46-2.19,4.26-5.35,6.74-7.55-.87,3.56-3.89,5.84-6.74,7.55Z"/>
                    <path class="cls-4" d="M388.74,31.96c-.11,3.96-3.77,8.3-6.97,10.07l5.34-6.29,1.63-3.78Z"/>
                    <path class="cls-4" d="M413.6,39.01c-.46.5-1.28,1.15-1.86,1.51l5.81-10.57c-.01,2.36-2.58,7.57-3.95,9.06Z"/>
                    <polygon class="cls-4" points="402.68 32.46 400.13 39.26 397.11 42.03 402.68 32.46"/>
                    <path class="cls-4" d="M342.04,35.48c-.76.68-1.51,1.88-2.79,1.76.16-1.27,2.14-1.38,2.79-1.76Z"/>
                  </g>
                </g>
              </g>
              <g>
                <path class="cls-7" d="M236.1,247.9c1.01-.79,4.44.42,5.58,1.01.55.28.85.72,1.39,1.01.48.25.95,1.42,2.09,2.01,1.34.7,8.94,3.15,9.29,3.52.91.97-2.36,5.03,3.25,3.52,1.26-.34-.72-1.22,3.49-1.01,2.02.1,4.03.72,6.04,1.01,25.75,3.61,45.28.97,68.07-13.09,43.86-27.06,74.13-95,41.12-143.71-1.13-1.67-10.98-13.74-11.85-13.84-.48-.06-2.82,2.31-3.49.25-.29-.9,3.43-2.81-.46-3.52l-1.16,2.77c-2.86-.7-1.52-4.04-1.63-4.28-.96-2.19-13.89-7.34-16.73-8.31-1.94-1.86-4.03-5.57-6.04-7.05-2.7-1.98-17.05-6.79-17.19-7.8.72-.35.25-1.5.7-1.76.53-.32,10.54,1.23,12.08,1.51,44.29,8,79.93,55,80.16,103.44.44,97.08-108.33,141.34-174.72,84.31Z"/>
                <path class="cls-23" d="M257.94,73.23c-16.7,8.87-27.23,21.06-37.64,37.5-8.57,13.54-15.6,28.5-19.05,44.55,5.63-26,9.9-47.04,29.27-65.94,6.71-6.54,15.88-12.74,24.4-16.11.57-.22,2.71-.98,3.02,0Z"/>
                <path class="cls-34" d="M303.01,60.65c-1.41.59-5.37-.14-6.27,0-8.62,1.36-17.44,3.99-25.79,7.05-4.5,1.64-8.74,3.27-13.01,5.54-.31-.98-2.45-.22-3.02,0-8.51,3.36-17.69,9.57-24.4,16.11,19.08-21.48,45.14-32.21,72.72-31.71,1.24.83.3,2.01-.23,3.02Z"/>
                <path class="cls-22" d="M303.01,60.65c-.91,1.71-3.04,2.96-5.34,3.52-3.97.98-7.27-.32-10.92,0-.71.06-2.41-.25-2.79.25,3.76,2.73,3.56,6.72.46,9.82-.1.1-.78.38-.93.5l-14.4-3.52c.6-1.21,1.8-2.37,1.86-3.52,8.35-3.06,17.17-5.68,25.79-7.05.91-.14,4.86.59,6.27,0Z"/>
                <path class="cls-10" d="M293.72,82.29c-.38-3.93-4.67-11.18-5.11-14.35-.21-1.49.08-1.44.93-2.27,1.44.78,9.05,5.66,9.29,6.8.45,2.14-3.49,8.29-5.11,9.82Z"/>
                <path class="cls-7" d="M322.99,83.8c-.13,1.27-.67.79-1.63.5-4.11-1.22-8.79-4.78-13.71-2.52-3.35-.37-8.93.69-12.55,1.01,9.57-8.21,18.54-6.52,27.88,1.01Z"/>
                <path class="cls-3" d="M286.75,64.17c.93.47,1.87,1.01,2.79,1.51-.84.83-1.14.78-.93,2.27.44,3.16,4.73,10.41,5.11,14.35-.27.25-1.35.91-.46,1.01-.21.02-1.84,2.26-3.72.5,1.51-8.51.1-5.53-5.11-9.56,3.1-3.09,3.29-7.08-.46-9.82.37-.51,2.08-.19,2.79-.25Z"/>
                <path class="cls-7" d="M341.11,75.25c-1.1-.38-7.46-2.95-8.13-3.02-3.81-.39-7.37,2.39-10.92,3.02.91-7.32,7.86-5.96,13.01-7.05,2.01,1.48,4.1,5.18,6.04,7.05Z"/>
                <path class="cls-22" d="M194.74,158.8c-2.16,3.6-.91,13.4-5.11,13.59-.02-4.54.96-9.64.46-14.35.13-.25,3.94.71,4.65.76Z"/>
                <path class="cls-20" d="M262.12,186.99c-4.34,1.4-18.05,1.03-20.45-4.03-4.41-9.29,17.99-11.82,24.4-6.54,5.42,4.47.9,9.01-3.95,10.57Z"/>
                <path class="cls-23" d="M283.49,74.74c-6.13,4.91-22.48,12.88-14.4-3.52l14.4,3.52Z"/>
                <g>
                  <path class="cls-27" d="M248.18,94.37c.3,9.34-5.15,17.05-13.48,19.13-3.85.96-8.84,1.53-10.69-3.52-.32-.88-.75-1.77-.46-2.77.35-1.24,15.64-17.71,16.96-18.37,5.27-2.63,7.48-.24,7.67,5.54Z"/>
                  <path class="cls-27" d="M255.15,89.84c.09.25.06,1.62,0,2.01-.38,2.49-3.13,5.26-4.65,1.51-1.65-4.09,3.47-6.86,4.65-3.52Z"/>
                </g>
                <g>
                  <path class="cls-22" d="M270.95,67.7c-.06,1.15-1.26,2.31-1.86,3.52-8.07,16.4,8.28,8.44,14.4,3.52.15-.12.83-.41.93-.5,5.21,4.04,6.62,1.05,5.11,9.56-12.18-.23-22.82,2.21-34.39,6.04-1.18-3.33-6.3-.57-4.65,3.52l-2.32,1.01c-.19-5.78-2.4-8.16-7.67-5.54-1.32.66-16.61,17.13-16.96,18.37-.29,1,.14,1.89.46,2.77-1.4-.07-3.13,3.19-3.72,4.28-3.31,6.16-8.26,19.21-8.83,26.17-1.67,20.42,13.38,36.45,30.2,42.53,2.4,5.05,16.1,5.42,20.45,4.03,3.32,2.94,15.24-.46,17.43.5,1.05.46.79,3.2,2.56,3.02,9.88,20.35,30.89,23.45,42.75,3.27,2.5-4.25,7.27-13.65,3.25-17.37-3.06-2.83-6.24-.82-10.22-2.27,4.19-.97,12.2-10.5,14.87-11.58,1.17-.47,1.01.49,1.86.76,15.85,27.16,48.1-13.56,23.7-31.21-.42-3.73-10.29-3.81-10.69-4.28-.21-.24-.71-5.91-.93-6.54-4.97-14.39-18.51-29.94-31.37-36.49-.51-.26-2.22.25-2.79,0-.52-.23.66-1.08.23-1.26-1.27-.52-3.82-1.62-5.11-1.76,4.92-2.26,9.59,1.29,13.71,2.52.96.28,1.5.77,1.63-.5s-1.31-5.52-.93-8.56c3.55-.63,7.11-3.41,10.92-3.02.67.07,7.03,2.65,8.13,3.02,2.84.97,15.77,6.12,16.73,8.31.1.23-1.24,3.58,1.63,4.28l1.16-2.77c3.9.71.17,2.62.46,3.52.67,2.06,3-.31,3.49-.25.87.1,10.72,12.17,11.85,13.84,33,48.71,2.74,116.65-41.12,143.71-22.8,14.06-42.33,16.7-68.07,13.09-.06-2.3,3.27-3.52.23-6.04-2.39,1.15-5.63,1.91-6.27,5.03-4.21-.21-2.22.67-3.49,1.01-5.61,1.5-2.35-2.55-3.25-3.52-.35-.38-7.95-2.82-9.29-3.52-1.14-.6-1.61-1.76-2.09-2.01,2.18-2.56-.28-4.65-1.39-1.01-1.14-.59-4.57-1.8-5.58-1.01-12.23-10.51-21.75-23.86-27.88-39.51-1.28-3.28-3.29-14.03-4.18-15.6-1-1.75-13.71-9.11-14.4-11.58-.37-1.31.01-6.89,0-8.81,4.21-.19,2.96-9.99,5.11-13.59,1.81.12,3.52.62,5.34.5.67-.32.95-3.04,1.16-4.03,3.45-16.05,10.48-31.01,19.05-44.55,10.41-16.44,20.94-28.63,37.64-37.5,4.27-2.27,8.52-3.89,13.01-5.54Z"/>
                  <g>
                    <path class="cls-20" d="M352.96,173.4c19.21-.71,19.27,15.69-.46,14.6-15.71-.87-15.83-14,.46-14.6Z"/>
                    <path d="M297.9,212.66c3.96,3.61,10.02,3.61,14.4,1.01-1.95,7.08-12.71,5.99-15.33-.25l.93-.76Z"/>
                    <path class="cls-3" d="M267.23,258.97c-2.01-.28-4.02-.9-6.04-1.01.65-3.12,3.88-3.88,6.27-5.03,3.04,2.53-.3,3.74-.23,6.04Z"/>
                    <path class="cls-27" d="M312.3,213.67c-4.39,2.6-10.44,2.6-14.4-1.01l14.4,1.01Z"/>
                    <path class="cls-23" d="M355.75,200.08c3.45-1.07,2.35,6.88-2.32,5.03-1.21-.59,2.05-4.95,2.32-5.03Z"/>
                    <path class="cls-29" d="M264.21,245.88c1.47-.65,2.33,1.98.93,2.52-2.06.79-2.11-1.99-.93-2.52Z"/>
                    <path class="cls-29" d="M237.26,201.59c1.76-.15,1.38,3.09,0,3.02-1.24-.07-1.32-2.91,0-3.02Z"/>
                    <path class="cls-29" d="M221.46,214.67c1.49-.61,2.32,1.95.93,2.52-1.49.61-2.32-1.95-.93-2.52Z"/>
                    <path class="cls-29" d="M242.37,235.31c1.49-.61,2.32,1.95.93,2.52-1.49.61-2.32-1.95-.93-2.52Z"/>
                    <path class="cls-29" d="M232.15,193.03c1.49-.61,2.32,1.95.93,2.52-1.49.61-2.32-1.95-.93-2.52Z"/>
                    <path class="cls-29" d="M229.82,230.28c1.44-.65,2.35,1.94.93,2.52-1.78.73-1.8-2.12-.93-2.52Z"/>
                    <path class="cls-29" d="M264.67,199.07c1.51-.53,2,3.04.46,3.02-.64,0-1.94-2.51-.46-3.02Z"/>
                    <path class="cls-29" d="M277.69,251.42c1.02-.15,1.85,2.54.46,3.02-1.46.51-1.85-2.82-.46-3.02Z"/>
                    <path class="cls-29" d="M291.63,234.31c2.22-.72,2,2.11.93,2.52-.83.32-2.44-2.02-.93-2.52Z"/>
                    <path class="cls-29" d="M221.46,185.98c1.26.07,1.28,2.94,0,3.02-1.51.09-1.55-3.1,0-3.02Z"/>
                    <path class="cls-29" d="M316.72,230.78c.83-.32,2.44,2.02.93,2.52-2.22.72-2-2.11-.93-2.52Z"/>
                    <path class="cls-29" d="M276.76,243.87c1.44-.65,2.35,1.94.93,2.52-1.78.73-1.8-2.12-.93-2.52Z"/>
                    <path class="cls-29" d="M331.12,237.33c1.26.07,1.28,2.94,0,3.02-1.51.09-1.55-3.1,0-3.02Z"/>
                    <path class="cls-29" d="M270.25,217.69c1.51-.09,1.55,3.1,0,3.02-1.26-.07-1.28-2.94,0-3.02Z"/>
                    <path class="cls-29" d="M299.99,239.34c.83-.32,2.44,2.02.93,2.52-2.22.72-2-2.11-.93-2.52Z"/>
                    <path class="cls-29" d="M221.46,177.43c1.78-.73,1.8,2.12.93,2.52-1.44.65-2.35-1.94-.93-2.52Z"/>
                    <path class="cls-29" d="M302.31,246.89c2-.84,1.72,2.46.46,2.52-1.36.06-1.59-2.04-.46-2.52Z"/>
                    <path class="cls-29" d="M243.07,249.91c-.55-.29-.85-.72-1.39-1.01,1.11-3.64,3.57-1.55,1.39,1.01Z"/>
                    <path class="cls-29" d="M328.33,228.77c.86-.29,2.43,2,.93,2.52-1.65.56-2.22-2.07-.93-2.52Z"/>
                    <path class="cls-29" d="M308.35,223.73c1.36-.06,1.59,2.04.46,2.52-2,.84-1.72-2.46-.46-2.52Z"/>
                    <path class="cls-29" d="M251.66,217.69c1.36-.06,1.59,2.04.46,2.52-2,.84-1.72-2.46-.46-2.52Z"/>
                    <path class="cls-29" d="M356.68,213.67c1.03-.39,2.03,2.11.93,2.52-2.13.79-2.05-2.09-.93-2.52Z"/>
                    <path class="cls-29" d="M245.62,209.14c2-.84,1.72,2.46.46,2.52-1.36.06-1.59-2.04-.46-2.52Z"/>
                    <path class="cls-29" d="M339.95,201.08c1.56-.61,2.28,2.03.93,2.52-1.62.58-1.69-2.22-.93-2.52Z"/>
                    <path class="cls-29" d="M226.11,202.09c1.24-.02,1.57,1.96.93,2.52-1.56,1.36-2.69-2.48-.93-2.52Z"/>
                    <path class="cls-29" d="M215.88,208.63c1.16-.13,1.6,1.95.93,2.52-1.71,1.44-2.6-2.33-.93-2.52Z"/>
                    <path class="cls-29" d="M260.96,230.28c1.42-.05,1.53,2.13.46,2.52-1.83.66-1.63-2.47-.46-2.52Z"/>
                    <path class="cls-29" d="M213.56,195.04c1.42-.05,1.53,2.13.46,2.52-1.83.66-1.63-2.47-.46-2.52Z"/>
                    <path class="cls-29" d="M319.04,241.35c1.07-.28,1.62,1.96.93,2.52-1.54,1.24-2.39-2.13-.93-2.52Z"/>
                    <path class="cls-29" d="M280.94,224.24c1.07-.28,1.62,1.96.93,2.52-1.54,1.24-2.39-2.13-.93-2.52Z"/>
                    <path class="cls-29" d="M345.06,230.28c1.43-.05,1.52,2.15.46,2.52-1.32.46-1.95-2.46-.46-2.52Z"/>
                    <path class="cls-29" d="M333.45,217.19c1.82-.49,1.32,2.29.46,2.52-1.22.33-1.62-2.21-.46-2.52Z"/>
                  </g>
                </g>
                <g>
                  <path class="cls-33" d="M307.66,81.79c1.29.14,3.84,1.24,5.11,1.76.43.18-.75,1.03-.23,1.26.57.25,2.28-.26,2.79,0,12.85,6.55,26.39,22.1,31.37,36.49.22.63.72,6.3.93,6.54.4.47,10.27.55,10.69,4.28-17.42-12.6-34.29,13.05-23.7,31.21-.85-.27-.69-1.23-1.86-.76-2.67,1.08-10.68,10.61-14.87,11.58,3.98,1.45,7.17-.56,10.22,2.27-6.41-.89-13.3-1.87-19.75-2.01-3.74-.08-26.39.44-28.34,1.51-4.27,2.34.53,11.38,2.09,14.6-1.76.18-1.51-2.56-2.56-3.02-2.19-.97-14.11,2.44-17.43-.5,4.85-1.56,9.37-6.1,3.95-10.57-6.4-5.27-28.8-2.75-24.4,6.54-16.82-6.08-31.87-22.11-30.2-42.53.57-6.96,5.52-20.01,8.83-26.17.58-1.09,2.32-4.35,3.72-4.28,1.85,5.06,6.83,4.48,10.69,3.52-8.37,12.45-12.35,28.26-13.48,43.54,6.33,2.35,13.58,2.51,20.21,2.27.85-.03,2.29.51,2.09-1.01,6.81,23.47,40.21,14.29,33.46-14.6,9.88-11.64,8.66-39.91-4.88-47.82-4.48-2.62-11.88-3.95-16.96-4.03.06-.4.09-1.76,0-2.01,11.57-3.83,22.21-6.27,34.39-6.04,1.88,1.76,3.51-.49,3.72-.5.8-.06,1.06-.43,1.86-.5,3.62-.32,9.2-1.38,12.55-1.01Z"/>
                  <path class="cls-27" d="M224.71,116.52c4.64-.77,3.36,11.54-1.39,10.07-3.33-1.03-.5-9.75,1.39-10.07Z"/>
                </g>
                <g>
                  <path class="cls-22" d="M276.99,143.7c-6.24-26.68-41.72-13.9-33.46,14.6.2,1.51-1.24.98-2.09,1.01-6.63.24-13.88.08-20.21-2.27,1.12-15.28,5.11-31.09,13.48-43.54,8.32-2.08,13.78-9.79,13.48-19.13l2.32-1.01c1.52,3.75,4.27.98,4.65-1.51,5.08.07,12.48,1.41,16.96,4.03,13.54,7.91,14.76,36.18,4.88,47.82Z"/>
                  <path class="cls-27" d="M252.59,99.91c.75-.11,1.56.07,2.32,0l1.16,1.76c.74,4.13-6.37,10.51-9.53,8.31-3.87-2.7,3.62-9.72,6.04-10.07Z"/>
                </g>
                <g>
                  <path d="M358.31,132.13c24.4,17.65-7.85,58.37-23.7,31.21-10.59-18.15,6.27-43.81,23.7-31.21Z"/>
                  <path class="cls-52" d="M342.27,135.65c8.38-2.09,9.28,14.85,2.79,17.62-8.61,3.67-10-15.82-2.79-17.62Z"/>
                  <path class="cls-52" d="M348.32,154.78c3.43-1.32,4.31,4.68,1.86,5.54-3.52,1.23-3.67-4.84-1.86-5.54Z"/>
                </g>
                <g>
                  <path d="M276.99,143.7c6.75,28.88-26.65,38.07-33.46,14.6-8.26-28.5,27.22-41.28,33.46-14.6Z"/>
                  <path class="cls-52" d="M253.52,135.65c7.95-1.89,9.27,13.71,3.25,17.11-9.18,5.2-10.79-15.33-3.25-17.11Z"/>
                  <path class="cls-52" d="M259.56,154.78c3.6-1.38,3.72,4.79,1.86,5.54-3.35,1.35-4.06-4.69-1.86-5.54Z"/>
                </g>
                <g>
                  <path d="M328.1,176.42c4.02,3.72-.76,13.11-3.25,17.37-11.86,20.18-32.87,17.07-42.75-3.27-1.56-3.22-6.36-12.26-2.09-14.6,1.95-1.07,24.6-1.59,28.34-1.51,6.45.14,13.34,1.12,19.75,2.01Z"/>
                  <path class="cls-19" d="M314.16,201.59c-11.13,6.83-21.65,1.6-27.88-9.31-.28-.77.85-1.13.93-1.26,3.3,5.65,8.93,10.21,15.1,11.07,4.04.57,7.91-.92,11.85-.5Z"/>
                  <g>
                    <path class="cls-19" d="M314.16,201.59c-3.94-.42-7.81,1.07-11.85.5-6.17-.86-11.8-5.42-15.1-11.07,6.64-10.36,28.32-8.5,35.31,1.26-2.66,3.33-4.67,7.05-8.36,9.31Z"/>
                    <path class="cls-52" d="M299.99,185.98c3.62-.82,5.29,3.49,2.79,4.53-4.11,1.71-6.9-3.6-2.79-4.53Z"/>
                    <path class="cls-30" d="M303.71,185.48c1.24-.75,2.99,2.32.93,2.01-.2-.03-1.69-1.56-.93-2.01Z"/>
                  </g>
                </g>
              </g>
            </g>
          </g>
        </g>
      </g>
    </g>
  </g>
</svg>