<?xml version="1.0" encoding="UTF-8"?>
<svg id="Layer_1" xmlns="http://www.w3.org/2000/svg" version="1.1" viewBox="0 0 564.97 588">
  <!-- Generator: Adobe Illustrator 29.8.1, SVG Export Plug-In . SVG Version: 2.1.1 Build 2)  -->
  <defs>
    <style>
      .st0 {
        fill: #f7b34c;
      }

      .st1 {
        fill: #2c1816;
      }

      .st2 {
        fill: #f58210;
      }

      .st3 {
        fill: #ee610e;
      }

      .st4 {
        fill: #8db53f;
      }

      .st5 {
        fill: #f89415;
      }

      .st6 {
        fill: #e34b0e;
      }

      .st7 {
        fill: #271d18;
      }

      .st8 {
        fill: #c5320c;
      }

      .st9 {
        fill: #b8825f;
      }

      .st10 {
        fill: #e3bea0;
      }

      .st11 {
        fill: #231a19;
      }

      .st12 {
        fill: #f79d28;
      }

      .st13 {
        fill: #b3260b;
      }

      .st14 {
        fill: #f68e16;
      }

      .st15 {
        fill: #f7452b;
      }

      .st16 {
        fill: #f79f23;
      }

      .st17 {
        fill: #f37e19;
      }

      .st18 {
        fill: #e1bc9f;
      }

      .st19 {
        fill: #eebf82;
      }

      .st20 {
        fill: #f64129;
      }

      .st21 {
        fill: #f7a52b;
      }

      .st22 {
        fill: #ee5c13;
      }

      .st23 {
        fill: #3ba1a5;
      }

      .st24 {
        fill: #f58d16;
      }

      .st25 {
        fill: #f7ad3f;
      }

      .st26 {
        fill: #f89719;
      }

      .st27 {
        fill: #dba479;
      }

      .st28 {
        fill: #91b841;
      }

      .st29 {
        fill: #497c2a;
      }

      .st30 {
        fill: #f89c1c;
      }

      .st31 {
        fill: #f8f1e8;
      }

      .st32 {
        fill: #e1480e;
      }

      .st33 {
        fill: #699b36;
      }

      .st34 {
        fill: #eca867;
      }

      .st35 {
        fill: #a91012;
      }

      .st36 {
        fill: #f68712;
      }

      .st37 {
        fill: #f47a0e;
      }

      .st38 {
        fill: #366b27;
      }

      .st39 {
        fill: #d89d72;
      }

      .st40 {
        fill: #ec590e;
      }

      .st41 {
        fill: #321e18;
      }

      .st42 {
        fill: #c02e0c;
      }

      .st43 {
        fill: #ca9167;
      }

      .st44 {
        fill: #f16811;
      }

      .st45 {
        fill: #f7941d;
      }

      .st46 {
        fill: #ef8a81;
      }

      .st47 {
        fill: #c84014;
      }

      .st48 {
        fill: #f38b1e;
      }

      .st49 {
        fill: #f5a732;
      }

      .st50 {
        fill: #e0551a;
      }

      .st51 {
        fill: #f5c171;
      }

      .st52 {
        fill: #7caa3e;
      }
    </style>
  </defs>
  <path class="st1" d="M506.52,318.85c-1.84,24.84-6.99,48.34-16.36,70.78-10.09,24.16-24.41,45.19-42.78,63.18-11.46,11.23-23.88,21.25-37.84,28.88-4.45,2.43-3.54,4.22-.36,7.12,8.02,8.18,7.86,19.89-.22,28.1-4.98,5.07-11.11,7.63-18.65,8.03-18.07,1.63-34.69-2.41-50.85-8.84-5.44-2.16-10.74-3.08-16.5-2.23-27.86,4.12-55.74,3.91-83.61.1-5.5-.75-10.64.09-15.88,2.12-15.31,5.96-30.97,10.27-48.14,8.89-4.42.15-8.19-.18-11.9-1.42-14.87-4.96-20.78-19.11-13.36-33.25,1.6-2.7,3.73-4.73,2.1-8.26-25.43-15.02-45.94-35.46-62.72-59.72-8.56-12.37-17.19-25.23-19.91-41.5-.67-2.65.5-3.88,2.39-5.17,5.69,1.66,5.44,7.46,8.25,11.64,1.14,3.19,2.22,5.86,3.8,8.83,1.29,2.71,2.23,5.05,3.68,7.67.39.68.54.96.91,1.64,2.45,4.52,4.87,8.5,8.11,12.47.5.61.69.86,1.14,1.5,3.24,5.25,6.63,9.75,11,14.05.52.6.72.85,1.19,1.5,3.78,5.75,8.33,10.05,13.49,14.37,1.37,1,2.23,1.88,3.45,3.03,1.71,1.75,3.01,3.31,4.92,4.78.56.38.78.54,1.31.94.51.41.71.58,1.5,1.25,1,.81,1.41,1.1,2.17,1.58.56.34.79.48,1.34.86.77.57,1.21.91,2.01,1.51,4.6,3.31,8.76,6.51,13.88,9.09,35.91,21.86,74.28,32.3,115.24,32.8,2.26.03,4.51.09,7.3.49,19.72-.17,38.87-.51,58.21-5.29,14.65-2.37,28.17-6.79,41.94-12.27,28.53-11.08,52.99-27.73,73.24-50.71,6.43-7.3,13.81-14.2,16.81-24.82,11.49-13.83,17.35-30.08,22.73-46.55,1.3-3.99,2.38-8.08,3.57-12.68,11.71-57.41,4.42-111.22-26.66-159.9-17.65-27.64-41.37-48.96-71.82-60.94-3.61-1.42-7.44-1.92-11.54-3.45-3.88-1.91-7.49-2.93-11.65-3.98-1.92-.56-3.15-1.3-4.41-2.95-.79-2.72,0-4.2,2.59-4.86,11.46-.31,20.92,4.86,30.7,8.77,19.74,7.88,36.83,20.37,51.75,35.53,11.13,11.32,20.53,24.47,28.36,38.82,13.15,24.09,20.32,50.16,24.98,77.13.78,4.52-.06,9.34,1.44,14.46-1.56,9.13-.33,17.75-.33,26.87Z"/>
  <path class="st10" d="M516.92,506.98c7.46,8.39,10.98,8.09,18.46,4.06,3.21-1.73,7.11-2.42,10.77-2.8,9.31-.95,15.27,7.58,12.04,16.77-.46,1.31-1.14,1.84-2.35,2.05-11.03,1.88-22.02,4.03-33.09,5.63-17.71,2.58-35.43,5.02-53.2,7.08-7.95.92-16,.55-24.02,1.15-10.88.81-21.87,1.39-32.77,2.03-24.36,1.43-48.76,1.54-73.09,2.88-32.82,1.81-65.61,1.08-98.38.64-12.48-.17-25.09.07-37.56-1.07-16.91-1.54-33.86-1.99-50.8-2.75-2.59-.12-5.15-.94-8.31-1.54-4.3-8.24-2.41-11.77,8.16-15.61,7.98-1.33,15.16.16,22.84,2.08,2.33.22,4.14.21,6.42.66,2.43.64,4.33,1.38,6.81.27,2.84-.61,5.2-.68,8.05-.03,1.74.56,2.74,1.54,4.55,1.77,2.97-.43,5.45-.77,8.42.37,6.56,2.41,12.95,2.26,19.13,2.71,37.57,2.69,75.24,2.43,112.8,1.21,35.71-1.15,71.56-2.62,106.87-9.48,13.26-2.58,26.79-4.59,38.18-13.16,2.03-1.53,4.32-.96,7.04-1.49.51-.36.64-.43.68-.37,2.31-1.24,4.78-.24,7.59-.87,1.98-.75,3.48-1.28,5.49-1.85,3.16-1.33,5.97-.46,9.25-.36Z"/>
  <path class="st18" d="M153.66,526.51c-6.1,2.43-11.51,4.89-9.61,13.93-1.45.67-2.91.74-4.91.72-.76-.23-.97-.36-1.52-.3-22.69-2.1-45.37-2.68-67.29-7.27-14.23-2.98-28.8-5.38-42.79-9.99-4.75-1.56-9.71-2.53-14.63-3.4-5.11-.9-6.95-5.12-7.73-9.19-.82-4.25,3.63-4.97,6.41-6.5,3.76-2.07,7.75-3.16,12.61-2.86,6.07-1.46,11.68-.21,17.79-.9,9.91-3.97,18.74-10.8,29.6-4.79,2.02,1.12,4.29-.27,6.3-1.38,10.84-5.98,22.02-8.32,34.42-5.86,7.31,1.45,14.82.41,21.96-3.63,4.9-2.78,10.93-3.2,17.28-3.35,5.38,1.35,5.51,3.77,1.54,7.23-4.27,2.87-8.84,3.17-13.18,4.3-7.22,1.89-14.42,3.9-20.52,8.6-6.52,5.03-6.18,9.83,1.02,13.9,5.61,3.17,12,3.81,18.08,5.44,5.11,1.37,10.93.36,15.17,5.29Z"/>
  <path class="st7" d="M369.81,116.97c-1.06,1.08-2.06,2.12-2.36,4.25-.55.98-1.15,1.31-2.38,1.49-1.23.02-1.93-.02-3.18-.13-5.71-.24-10.78-1.47-16.52-1.73-12.1-1.78-23.72-.63-35.83-1.35-3.91.12-7.26.04-10.61.09-7.53.11-8.66,1.53-7.43,9.18.3,1.84.77,3.65,1.48,5.91.83,3.22,2.23,5.56,3.79,7.8,4.57,6.54,5.44,6.69,12.15,2.23,2.43-1.62,4.96-3.03,8.36-3.53,1.84.02,3.08.36,4.35,1.79.64,4.19-2.46,4.71-4.61,6.08-2.39,1.53-5.45,2.46-5.13,6.86.04,1.58-.15,2.6-.9,4-1.47,1.36-2.82,1.65-4.73,1.82-4.77-.11-8.85.62-13.05,2.99-2.62,1.25-4.5,2.66-5.81,5.42-1.8,2.91-2.01,5.87-2.97,9.11-.8,1.31-1.58,1.88-3.05,2.15-3.56-1.9-3.42-5.77-5.53-8.82-.63-.94-.98-1.48-1.59-2.42-3.58-6.59-9.44-7.53-15.84-8.35-4.36-.72-8.09,1.78-12.42.22-1.19-5.35,3.96-4.73,6.17-7.95-5.88-1.23-10.8,1-15.61,3.05-13.18,5.63-26.54,10.75-40.75,12.44-11.38,1.35-22.9,2.34-34.27-3.09-1.26-1.81-1.44-3.33-1.02-5.51.39-.9.61-1.22,1.31-1.86,6.81-1.48,12.77,1.49,19.54,1.43,20.27-.57,38.46-7.38,56.94-15.11,2.47-.33,4.3-1.12,6.19-1.7q7.8-2.4,5.17-10.88c-2.34-16.76-4.51-33.04-13.6-47.69-5.99-9.98-13.5-17.52-23.57-22.93-10.35-5.66-20.46-10.49-32.26-11.96-19.12-1.06-37.13,1.33-54.68,9.82-1.75.89-3.11,1.26-4.89,2-2.72,1.02-4.81,2.17-7.44,3.43-9.86,4.63-19.14,9.37-30.22,10.09-4.65-.37-8.93,1.05-13.25-1.71-1.1-2.13-.58-3.62.73-5.46,1.45-.44,2.46-.48,3.98-.52,2.41,1.44,4.54.53,6.92.33,14.53-2.21,26.66-10.03,39.7-15.22,11.86-4.72,23.66-9.61,37.1-10.55,2.49-1.22,4.63-.36,7.05-1.04,26.65,1.09,50.75,8.01,69.55,28.7,8.48,9.34,14.35,20.24,17.48,32.67,2.67,10.6,2.56,10.63,12.96,8.87,2.19-2.52.92-5.36,1.24-8.44-.3-2.68-.47-4.91-.68-7.82-1.13-2.85-.33-5.2-.77-7.91-.94-11.54,7.18-27.29,15.96-31.67,2.25-1.13,4.31-.35,6.42.7,6.12,3.06,11.4,7.4,16.31,12.14,6.01,5.8,4.86,11.04-2.73,14.15-10.02,4.1-12.88,8.85-12.14,20.13.06.93.37,1.99.08,2.79-2.35,6.38,1.48,6.33,5.64,6.07,1.79-.11,3.6-.05,6.01-.11,8.69-1.34,16.82-.34,25.51-.3,15.07-.19,29.26,2.07,43.72,5.58Z"/>
  <path class="st11" d="M161.5,159.64c.2,1.89.17,3.31.14,5.25-2.75,3.06-5.55,1.35-8.24.49-4.51-1.43-9.01-2.9-13.82-5.01-4.79-2.98-9.13-5.65-13.64.42-26.93,23.15-44.09,52.28-53.7,87.1-4.52,12.8-5.42,25.85-8.06,39.06-.24,1.32-2.03,1.63-.61,3.32.6,4.7-.18,8.87-.1,13.65.52,6.93-.17,13.31.76,20.22.47,11.4,2.88,21.92,4.64,33.08.14,1.22.22,1.9.36,3.05.19,1.08.3,1.69.51,2.72.25.98.39,1.54.68,2.49.3.93.47,1.46.79,2.37.38.9.61,1.41,1.07,2.3.91,1.77,1.3,3.19.45,5.09-1.13,1.63-1.97,2.91-3.03,4.62-5.07-7.95-6.54-17.58-9.61-27.18-.57-1.28-.65-2.16-1.16-3.31-.26-1.78-.23-3.24-.22-5.25-1.2-2.52-.35-4.73-.99-7.25-.31-1.04-.34-1.64-.39-2.68-1.3-3.86-.23-7.43-.98-11.4-.31-.77-.34-1.03-.39-1.7-1.28-6.92-.34-13.51-.28-20.67.27-.87.29-1.13.34-1.8,1.33-2.45.42-4.75.7-7.48.03-2.85-.06-5.13.32-7.93,6.56-53.11,26.62-98.1,67.72-132.09-4.59-3.6-8.78-6.91-12.99-10.17-9.74-7.55-16.4-17.85-22.75-28.31-7.13-11.73-15.51-22.35-24.66-32.37-1.21-1.32-2.57-2.49-2.96-4.56-1.5-7.96.62-10.05,9.05-7.94.2,1.49-.08,2.72-.72,4.24,1.04,5.76,6.48,8.03,8.97,13.23.81,1.77.79,3.45,2.48,4.63.64.32.89.45,1.52.8.85.53,1.31.88,2.07,1.53.54.48.75.68,1.57,1.52.8.87,1,1.1,1.48,1.68.46.61.64.87,1.06,1.53,3.22,5.07,6.25,9.69,9.03,14.49,9.53,16.5,23.28,28.13,39.87,37.17,7.97,4.04,16.18,6.19,23.72,11.04Z"/>
  <path class="st27" d="M493.93,510.1c-21.85,16.57-48.1,18.25-74.01,21.3-21.85,2.57-43.8,3.13-65.72,4.49-34.42,2.13-68.8.73-103.2.91-13.18.07-26.36-1.75-39.54-2.8-.76-.06-1.47-.88-2.4-1.87,3.47-4.49,8.28-3.48,12.59-3.16,36.49,2.7,73.03.87,109.54,1.16,18.24.15,36.42-2.25,55.25-2.62,15.81-.8,31.06-1.42,45.7-6.57,2.34-.82,4.6-1.88,6.76-3.14,10.13-5.93,10.59-10.13,1.97-18.05-.85-.78-1.62-1.62-1.96-3.3,2.36-1.77,4.96-.49,7.73-1.77,2.46-1.11,4.59-.52,7.15-.95,14.89-1.58,27.73.98,36.12,14.96.81,1.34,2.11,1.61,4.02,1.43Z"/>
  <path class="st43" d="M439.57,495.7c.52.99,1.31,1.82,2.25,2.4,10.94,6.86,10.91,13.85-.19,20.65-11.13,6.82-23.61,8.65-36.11,9.58-5.14.38-10.17,1.68-15.92,1.53-2.08-2.21-1.26-4.08.51-6.24,1.9-.71,3.44-1.01,4.96-1.41,16.76-4.46,21.84-15.67,14.53-32.63,9.53,1.09,19.31,1.58,29.09,5.21.77.28.99.47.88.92Z"/>
  <path class="st23" d="M87.72,454.8c-3.01.05-6.41,1.5-7.12-2.48-.34-1.89-1.38-4.65,1.72-6,1.7-.74,3.31-2,4.88-.4,2.44,2.49,3.12,5.45.52,8.87Z"/>
  <path class="st17" d="M28.03,329.9c.81-.93,1.32-1.68,1.86-1.71,2.94-.16,6.66-1.6,7.12,3.51.2,2.16.83,4.7-2.93,4.74-4.19.05-7.23-.56-6.05-6.54Z"/>
  <path class="st17" d="M42.97,176.7c-2.3-1.68-5.74-2.22-3.48-6.26,1.12-1.99,2.46-3.22,4.29-2.75,2.02.52,4.19,1.42,4.18,4.54-.01,3.31-1.4,4.69-4.99,4.48Z"/>
  <path class="st37" d="M56.33,394.6c-2.51-1.58-4.03-2.96-1.48-5.5,2.23-2.22,5.52-3.04,7.57-2.08,1.78.83,3.14,4.53-.33,7.15-2.06.78-3.75.57-5.76.43Z"/>
  <path class="st23" d="M56.99,426.03c.42,3.06.86,5.81-2.63,6.35-2.08.32-3.91-.02-4.95-2.34-.78-1.76-1.29-3.75.23-4.94,2.26-1.77,4.84-1.72,7.35.94Z"/>
  <path class="st52" d="M38.47,374.55c-3.82-.36-4.88-2.75-4.65-5.7.16-2.04,1.53-3.05,3.77-2.84,2.09.2,4.11.19,4.88,2.73.98,3.28-1.19,4.57-3.99,5.81Z"/>
  <path class="st17" d="M34.37,403.55c1.36,2.25,3.27,3.83.89,6.25-1.73,1.75-2.93,1.03-4.66.22-2.76-1.29-1.72-3.7-1.45-5.42.52-3.33,3.1-1.35,5.22-1.05Z"/>
  <path class="st17" d="M19.67,309.09c2.73,3.8.05,5.15-2.15,5.49-1.33.21-3.77-.66-3.48-3.66.43-4.51,3.09-2.56,5.62-1.84Z"/>
  <path class="st41" d="M506.85,318.74c-2.63-7.94-1.27-16.65-.37-25.75.41,8.08.42,16.59.37,25.75Z"/>
  <path class="st23" d="M45.42,203.6c-1.1,1.22-1.68,2.37-2.31,3.63-.97-2.36-1.06-4.58,1.19-5.96,1.51-.93,3.49-1.32,4.96.04,1.85,1.73,1.85,3.89.46,6.07-2.49-.09-1.04-4.2-4.3-3.77Z"/>
  <path class="st38" d="M326.33,111.2c-7.72.46-15.8.47-24.5.47,7.56-2.63,15.89-.85,24.5-.47Z"/>
  <path class="st9" d="M78,143.91c-.59-3.66,1.15-3.99,3.4-3.6,2.44.43,1.75,2.8,1.36,3.78-1.08,2.68-3.01,1.33-4.76-.18Z"/>
  <path class="st9" d="M55.5,300.15c.47,6.2.47,12.73.47,19.9-2.6-5.98-.45-12.84-.47-19.9Z"/>
  <path class="st9" d="M46.49,247.16c1.43,2.61.89,3.96-1.45,4.41-2.51.48-3.66-2.63-3.46-3.32.65-2.3,2.67-2.79,4.92-1.09Z"/>
  <path class="st29" d="M23.45,424.54c-1.5-2.52-.67-4.12,1.31-4.44,1.76-.29,2.65,1.45,2.63,3.13-.03,2.97-1.91,2.3-3.94,1.32Z"/>
  <path class="st31" d="M41.94,500.41c-4.75,2.68-10.41.83-16.54,1.27,4.69-3.07,10.43-.68,16.54-1.27Z"/>
  <path class="st29" d="M72.34,419.32c-2.23-1-3.46-2.15-1.4-4.09.94-.89,1.94-.89,2.89.02,2.09,2.01.69,3.08-1.49,4.07Z"/>
  <path class="st28" d="M28.26,449.57c1.04,1.66,4.12,1.92,2.44,4.5-.93,1.42-2.8,1.69-3.53.9-1.64-1.76-2.07-3.99,1.09-5.4Z"/>
  <path class="st9" d="M44.56,352.93c-2.9-.32-3.88-1.89-3.02-4.32.18-.49,1.88-1.01,2.27-.69,1.48,1.18,3.3,2.55.75,5.01Z"/>
  <path class="st7" d="M56.06,322.9c2.52,2.51.88,6.2,1.29,10.22-2.69-2.49-.82-6.21-1.29-10.22Z"/>
  <path class="st9" d="M266.36,103.34c.51,2.28,1.21,5.1-.09,8.16-.28-2.43-.1-5.02.09-8.16Z"/>
  <path class="st31" d="M517.34,506.69c-2.59.58-5.3.62-8.59.63,2.16-2.75,5.42-1.01,8.59-.63Z"/>
  <path class="st20" d="M453.74,493.44c-1.09,2.17-3.38,1.19-5.92,1.5-.84.13-1.14.24-1.72-.07,1.92-2.67,4.63-1.19,7.64-1.43Z"/>
  <path class="st33" d="M264.84,87.55c1.35,1.55.98,3.88.97,6.67-2.53-1.36-.83-3.91-.97-6.67Z"/>
  <path class="st31" d="M502.12,508.86c-1.48,2.41-4.1.85-6.94,1.28,1.35-2.8,4.11-.81,6.94-1.28Z"/>
  <path class="st28" d="M55.03,224.35c.82,2.67-2.35,2.08-2.19,5.61-.8-3.73-1.57-5.91,2.19-5.61Z"/>
  <path class="st38" d="M56.9,283.03c.4,2.03.39,4.39.38,7.32-.17.92-.35,1.24-.81,1.08-.1-3.02-1.09-5.6.43-8.41Z"/>
  <path class="st46" d="M445.28,494.5c.79.03,1.04.11,1.64.32-1.77,1.91-4.28,1.03-7.17,1.18-.53-.03-.53-.58-.52-.85,1.84-.38,3.67-.49,6.05-.65Z"/>
  <path class="st41" d="M165.15,41.11c-1.07,2.05-3.29,1.26-5.83,1.37,1.02-2.27,3.3-1.21,5.83-1.37Z"/>
  <path class="st7" d="M56.13,291.55c.07-.61.61-.54.88-.58.3,2.16.8,4.39-.57,6.88-.37-1.65-.37-3.67-.31-6.3Z"/>
  <path class="st48" d="M56.19,394.8c1.42-.4,2.99-1.72,5.06-.57-1.04,2.45-3,1.42-5.06.57Z"/>
  <path class="st7" d="M57.43,336.98c1.91,1.12,1.16,3.41,1.3,6.04-2.08-1.08-1.15-3.42-1.3-6.04Z"/>
  <path class="st41" d="M81.2,67.93c-1.29,2.07-3.4,1.7-5.88.38,1.56-.39,3.44-.4,5.88-.38Z"/>
  <path class="st7" d="M58.66,349.51c.45.27.91,1,1.35,2.19-.46-.27-.9-1-1.35-2.19Z"/>
  <path class="st10" d="M137.62,541.13c-.07-.61.28-.74.85-.27.12.19-.53.37-.85.27Z"/>
  <path class="st40" d="M495.04,352.53c-4.66,22.85-13.21,43.19-26.39,61.96-5.09-4.68-.61-9.25.67-14.53,3.47-10.51,8.46-19.88,10.15-30.44.36-2.22,1.24-4.44,0-8.47-38.84,55.79-88.18,93.55-153.36,107.09-2.2.26-3.94.2-6.08,1.09-1.61.42-2.71.56-4.4.63-33.9,6.12-66.72,2.49-99.29-5.61-3.46-.86-7.03-1.69-10.1-4.88-.35-4.77,2.69-4.19,4.92-3.64,7.98,1.95,16.26.65,24.19,2.57,11.89,2.88,21.96-2.05,32.38-7.99,6.66-3.73,13.61-2.65,20.19-3.85,18.38-3.38,36.33-8.21,53.23-16.68,1.21-.61,2.49-1.04,4.36-1.33,4.5,1.07,8.05-.31,11.56-2.02,22.55-10.97,44.07-23.92,63.11-40.59,13.13-11.5,23.9-25.44,30.39-42.54,4.14-10.89,10.06-20.92,15.99-30.83,3.87-6.47,5.87-13.74,9.38-20.3,3.72-6.94,8.36-8.87,16.09-6.29,3.26,6.53,3.09,13.16,3.65,19.7,1.31,15.47,1.4,30.92-.62,46.96Z"/>
  <path class="st9" d="M389.85,523.16c.19,1.97-.25,3.84-.77,6.19-59.66,4.35-119.28,4.31-179.57,2.17-2.89.34-5.14.59-7.88.87-1.32-.43-2.07-1.02-3.24-1.84-3.1-.35-5.81-.45-9.09-.56-2.09-.06-3.61,0-5.56-.2-2.27-.1-4.1-.14-6.46-.2-2.35-1.36-5.03-2.05-3.85-5.76,19.23-.41,37.35-4.47,54.75-12.14,2.37-1.04,4.71-.92,7.24-.55,30.71,4.45,61.44,4.58,92.11-.31,3.15-.5,5.71.37,8.44,1.5,17.1,7.03,34.66,11.66,53.87,10.84Z"/>
  <path class="st34" d="M495.12,352.73c-.63-21.84-.46-44.12-4.13-66.69-3.32-3.87-2.87-8.37-3.6-12.43-5.32-29.65-14.49-57.64-32.35-82.5-14.56-20.87-32.32-36.69-55.28-45.59-1.49-.58-2.76-1.54-4.55-2.63-4.84-3.25-10.81-3.52-14.14-9.28-.69-2.61-.6-4.59.91-6.89,24.42,6.7,45.59,19.16,63.51,37.28,30.92,31.28,47.62,69.95,53.19,114.11,3.14,24.9,2.11,49.69-3.56,74.63Z"/>
  <path class="st8" d="M277.22,507.28c-44.68.68-86.25-9.32-124.7-33.59-2.78-6.61-8.99-11.19-7.86-19.45,3.04-1.99,5.01.06,6.97,1.39,15.91,10.82,33.31,18.19,51.8,24.41,21.72,6.24,43.09,11.04,65.24,10.89,4.01-.03,8.07-.45,12.54,1.08,4.81,6.84.27,10.79-4,15.26Z"/>
  <path class="st22" d="M72.8,375.95c-.76-1.85-1.19-3.35-1.83-5.26-.52-.85-.82-1.29-1.14-2.14-.08-.88-.11-1.37-.29-2.18-.46-.78-.76-1.23-1.07-2.1-.04-.88-.05-1.35-.21-2.14-.51-.76-.83-1.22-1.14-2.14-1.31-11.5-4.7-22.24-4.68-34.14,6.08-8.16,9.69-8.54,17.74-2.1.86.92,1.25,1.53,1.76,2.67.49,1.91,1.38,3,2.25,4.7,1.08,3.25.9,6.11.94,9.47-.43,4.49,1.24,7.75,3.07,11.04,9.27,16.6,19.17,32.75,30.99,48.17,2.41,4.19,7.05,6.07,7.42,11.45-5.63,2.68-9.08-1.17-12.68-4.11-4.96-4.05-8.23-9.78-12.65-14.39-2.05-2.14-4.04-4.35-6.45-6.07-3.66-2.61-7.23-3.69-10.71.4-1.17,1.38-2.48,2.78-4.97,1.95-2.27-4.43-4.15-8.56-6.36-13.05Z"/>
  <path class="st13" d="M277.15,507.85c.25-5.17,5.88-7.79,5.04-13.91,1.95-3.14,4.8-2.93,7.43-2.9,35.64.43,69.46-8,102.02-22.67,2.27-1.02,4.59-1.96,7.7-1.3,1.81,1.39,2.12,2.94,2.07,5.18-1.81,5.62-6.53,6.59-10.38,8.62-3.75,1.98-7.76,3.42-12.18,5.2-9.28,3.17-18.14,5.93-27.22,7.72-5.69,1.12-10.76,3.25-15.03,8.12-19.5,5.62-39.25,5.94-59.46,5.94Z"/>
  <path class="st40" d="M78.83,389.19c.9-.99,2.1-1.26,2.81-2.02,6.34-6.79,9.61-7.21,16.2-.65,5.67,5.65,10.73,11.98,16.06,18,3.14,3.54,6.89,5.98,12.05,6.73,1.64-.56,2.74-.26,3.63.46,7.92,6.38,15.38,13.36,23.55,19.43,1.38,1.02,2.81,2.49,1.14,5.01-9.19,1.09-17.97,1.17-27.27,1.13-6.33-.41-9.58-4.89-12.91-8.88-6.9-8.29-13.9-16.49-20.9-25.36-1.88-5.12-5.26-6.1-9.92-5.5-1.71-2.8-3.04-5.33-4.43-8.36Z"/>
  <path class="st39" d="M173.18,523.3c.15,2.62,2.32,3.68,3.42,5.84-7.16-.4-14.31-2.63-22.34-2.1-9.34-3.92-19.1-3.32-27.96-6.73-1.04-.4-2.25-.35-3.28-.78-5.13-2.17-10.83-4.81-10.94-11.14-.09-5.16,4.97-8.01,9.17-10.31,9.48-5.19,19.7-7.78,30.89-8.88-7.97,19.24-.82,31.45,21.04,34.11Z"/>
  <path class="st42" d="M93.36,401.04c8.73,10,16.85,19.69,25.09,29.28,1.62,1.89,3.14,4.05,6.11,4.97,7.79,5.13,14.81,10.6,20.78,17.95-.65,4.41,1.59,7.23,3.5,10.08,1.84,2.75,3.58,5.43,3.34,9.52-4.37-2.37-8.75-5.28-13.36-8.6-.46-.84-.73-1.25-1.37-1.83-.3-.21-.19-.19-.21-.13-.48-.76-1.32-.84-2.43-1.27-.35-.21-.26-.26-.27-.21-.26-.34-.56-.7-1.18-1.23-.28-.2-.2-.14-.23-.1-1.68-2.19-3.49-4.23-6.47-5.52-1.15-.82-1.92-1.39-2.86-2.29-4.34-6.01-9.6-10.59-14.75-15.95-.38-.28-.31-.41-.31-.34-3.07-5.56-7.44-10.12-11.88-15.2-.38-.28-.31-.4-.31-.33-2.43-4.8-5.22-9.42-9.07-13.86-.34-.32-.28-.35-.29-.32-1.71-6.01,1.35-6.23,6.19-4.62Z"/>
  <path class="st13" d="M190.35,515.13c-8.74,3.36-17.03,2.25-25.76-.63-.67-.5-.85-.72-1.36-1.22-.32-.29-.23-.28-.24-.23-9.17-6.58-8.96-14.57,1.12-23.06,6.36-.06,10.21,5.03,15.98,6.42,8.18,3.59,11.08,9.91,10.25,18.71Z"/>
  <path class="st47" d="M377.91,485.28c7.36-4.05,14.4-7.56,21.73-11.44,3.5-4.16,7.96-6.03,11.95-8.6,17.12-11.05,32.82-23.81,45.05-40.7,2.04-2.81,6.38-5.81,1.11-10.36.92-9.23,6.46-15.83,13.47-15.95.08,5.53-4.19,9.65-3.05,15.93-6.88,15.63-18.32,26.7-29.74,37.62-17.27,16.53-37.29,28.58-59.59,37.52-1.5-.93-1.63-2.15-.92-4.03Z"/>
  <path class="st35" d="M362.98,504.64c6.93-5.62,15.27-7.49,23.73-10.42,8.76,5.55,9.15,13.56,1.14,21.49-6.96,2.72-13.21,1.11-19.92-1.29-2.89-2.67-2.53-6.64-4.95-9.78Z"/>
  <path class="st35" d="M190.58,515.57c-1.97-6.99-3.36-13.95-9.88-18.55,12.68,2.67,24.8,8.22,37.85,10.97-8.89,3.81-17.94,6.53-27.97,7.58Z"/>
  <path class="st47" d="M388.05,516.17c-.43-1.98.69-3.45,1.73-4.99,4-5.96,1.43-11.07-2.29-16.52,2.4-2.97,5.69-4.25,9.38-5.79,8.09,5.41,10.01,12.15,6.17,21.11-3.97,5.04-9.06,5.95-14.99,6.19Z"/>
  <path class="st42" d="M377.7,484.74c.55,1.15.56,2.31.6,4.06-13.01,6.8-26.72,10.67-41.32,13.49-.18-5.02,2.95-8.04,7.3-8.92,11.13-2.25,21.98-5.54,33.42-8.63Z"/>
  <path class="st34" d="M345.38,119.54c5.71-1.25,10.74,1.33,16.56,1.02,1.09-.15,1.6,0,2.39.58.95.36,1.55.49,2.62.58,1.55.4,2.64.85,4.15,1.44,1.32,3.38-.21,5.94-2.15,8.86-2.12,1.37-3.96,1.35-6.37,1.07-5.35-2.12-10.82-1.59-15.85-4.77-2.03-2.83-3-5.38-1.36-8.79Z"/>
  <path class="st13" d="M362.31,504.14c6.85.32,4.76,5.33,5.11,9.58-5.52,1.17-10.49-1.11-15.99-2.98-1.04-1.29-1.27-2.33-.57-3.91.94-.57,1.54-.71,2.59-.86,1.19-.04,1.89-.19,2.84-.77,2.04-.48,3.77-.78,6.02-1.07Z"/>
  <path class="st48" d="M368.72,132.11c-.24-3.43,1.09-5.67,2.57-8.37,3.58.41,6.94,1.24,10.7,2.3.31,2.49.22,4.76.1,7.7-4.93,4-9.17,1.59-13.37-1.63Z"/>
  <path class="st48" d="M164.47,489.74c-8.32,10.11-8.65,13.87-1.62,22.88-5.62-.31-7.79-4.55-7.74-9.78.06-5.99,2.47-11.17,7.57-14.51.23-.15,1.05.67,1.78,1.41Z"/>
  <path class="st39" d="M403.28,510.25c1.7-7.68-.62-14.52-5.61-21.12,5.87-.01,10.99,9.68,8.59,16.81-.5,1.48-1.69,2.7-2.99,4.31Z"/>
  <path class="st47" d="M93.75,400.93c-2.29,1-5.94-1.17-6.57,4.21-1.4-1.93-2.78-4.41-4.23-7.37,4.49-3.11,8.78-4.68,10.8,3.16Z"/>
  <path class="st47" d="M108.78,435.89c6.83,2.34,11.01,8.17,14.84,14.91-5.73-3.59-10.35-8.89-14.84-14.91Z"/>
  <path class="st47" d="M96.57,420.36c6.28,2.25,9.51,7.9,12.2,14.55-5.11-3.4-8.52-8.81-12.2-14.55Z"/>
  <path class="st47" d="M87.22,406.13c5.5,2.01,7.6,7.24,9.36,13.24-4.1-3.15-6.46-8.12-9.36-13.24Z"/>
  <path class="st35" d="M350.73,506.34c.44,1.08.41,2.08.35,3.58-2.43.27-4.87.21-7.14-2.04,2.3-.59,4.31-1.11,6.8-1.54Z"/>
  <path class="st47" d="M126.51,454.11c3.23-.67,5.61.74,6.58,4.88-2.68-.35-4.37-2.61-6.58-4.88Z"/>
  <path class="st35" d="M356.22,504.92c.07,1.33-.28,2.5-2.1,1.34.43-.67,1.07-1.06,2.1-1.34Z"/>
  <path class="st47" d="M134.69,461.15c.55-.1,1.32.16,2.31.8-.55.11-1.32-.17-2.31-.8Z"/>
  <path class="st48" d="M162.93,513.34c.37-.21.69.01,1.06.61-.34.26-.73.08-1.06-.61Z"/>
  <path class="st47" d="M137.23,462.59c.3-.08.69.23,1.21.9-.28.07-.7-.22-1.21-.9Z"/>
  <path class="st47" d="M133.2,459.72c.26-.09.65.19,1.18.79-.25.08-.66-.18-1.18-.79Z"/>
  <path class="st27" d="M183.55,530.13c1.25-1.94,2.89-1.85,4.9-.52-1.2,2.07-2.86,2.09-4.9.52Z"/>
  <path class="st27" d="M198.14,530.71c1.1-.67,2.12-.41,2.86,1.29-1.09.67-2.13.44-2.86-1.29Z"/>
  <path d="M71.13,509.08c1.16-3.2,2.85-4.32,5.91-1.81.89,4.01-1.72,3.46-4.36,3.11-.43-.38-.39-.21-.3-.23-.34-.24-.76-.47-1.25-1.07Z"/>
  <path class="st31" d="M72.57,510.45c1.66-.02,3.46-.19,4.84-2.53,1.55-.58,2.78-.14,2.81,1.64.02,1.35-1.04,1.98-2.21,2.08-1.75.16-3.54.42-5.44-1.19Z"/>
  <path class="st31" d="M70.89,508.96c.54,0,.92.25,1.44.83-.43,0-1.55.81-1.44-.83Z"/>
  <path class="st26" d="M285.91,170.03c.89-3.04,2.72-4.59,5.18-6.08,1.91.17,3.29.8,5.17,1.33,7.14,2.35,13.94,4.31,20.06,8.13,1.29.8,2.72,1.73,4.55-.15,2.08-1.53,3.94-2.26,6.55-2.23.86.16,1.19.26,1.99.64,2.32,2.12,3.23,4.53,4.23,7.51.34,1.65.38,2.76.34,4.44-2.02,6.62-1.23,13.32-2.79,19.16-3.96,14.79-2.34,30.85-9.62,44.79-.32.62-.7,1.25-.83,1.92-2.76,14.79-11.65,25.61-21.35,35.91-2.44,2.59-4.08,5.61-4.38,9.29-.43,5.4-3.1,9.32-7.62,11.66-3.64,1.89-5.66,4.36-5.14,8.81.39,3.27-.92,6.1-3.36,8.05-3.94,3.16-6.93,7.37-11.28,10.77-4.63,1.34-3.8,4-2.27,7.37-5.49,10.99-20.51,16.22-28.88,10.06-4.93-3.93-8.27-2.67-10.11,3.8.56,1,.87,1.59,1.32,2.7.51,1.98.42,3.42-.46,5.29-6.24,2.96-12.29,5.01-17.8,8.68-4.28,2.85-7.6.51-9.39-4.83.34-6.52,4.51-12.19,1.39-19.04.35-1.43.78-2.49,1.68-2.62,8.21-1.15,14.87-6.5,22.59-8.94,14.1-4.47,24.66-13.53,33.48-25.8,4.61-6.42,11.45-10.99,15.9-17.91,8.84-13.74,20.66-25.46,25.49-41.86.74-2.52,2.34-4.54,4-6.47,5.06-5.88,5.26-13.41,5.75-20.54.39-5.64-3.46-8.93-8.72-7.83-9.76,2.03-16.78-3.27-24.21-9.06-.83-1.89-.89-3.34-.31-5.33.44-.78.66-1.06,1.34-1.6,6.92-3.1,9.58-9.23,7.85-18-.76-3.87-1.91-7.64-.37-12.03Z"/>
  <path class="st4" d="M77.97,86.59c-2.72-3.29-5.36-6.12-7.62-9.25-.93-1.29-3.85-2.23-1.33-4.93,4.33,2.37,8.72.84,13.51,1.42,1.03.58,1.24,1.15,1.07,2.25-.31.58-.46.78-.65.89-.6.37-.65.75-.06.94,9.63,3.17,19.07,7.07,29.75,7.97,3.3.41,6.03,1.91,9.47.73,1.17-.07,1.83.03,2.94.45,6.49,5.21,14.4,4.15,21.07,7.2,3.62,1.66,7.91,1.74,11,5.63,1.15,5.38-1.81,7.8-5.27,9.91-4.36,2.66-9.46,2.93-14.52,4.98-1.03.56-1.65.77-2.77.94-2.3-.24-4.01,0-5.97,1.35-3.44.91-6.08-1.11-9.46-1.1-3.3-.54-6.05-1.33-8.85-1.96,2.66.67,5.34,1.25,8.49,1.96,17.82,2.11,34.54,1.58,48.77-12.18,10.38-1.34,18.38,4.46,27.48,8.08,2.7,9.02-3.44,13.58-8.06,18.68-2.44,2.69-6,4.09-9.21,6.79-.68.57-.96.78-1.72,1.24-8.4,3.33-16.43,6.01-25.5,6.28-2.64.18-4.78-.28-8.23-.45,6.72,2.73,12.79,2.1,18.45,5.2,1.99,3.07,2.99,5.87,1.16,9.45-.38.43-.29.74-.24.9-8.09-2.46-16.28-4.93-24.07-9.72-1.74-1.85-2.55-3.92-4.37-5.01-14.76-8.89-25.17-22.34-35.17-36.27-3.09-4.3-6.56-8.3-10.77-12.21-.42-.24-.36-.37-.3-.34-.11-.42-.38-.81-1.03-1.33-.3-.19-.2-.23-.2-.17-.23-.36-.52-.73-1.14-1.24-.73-.36-1.07-.66-1.39-1.44-.67-.87-1.27-1.37-2.34-1.87-1.54-.94-2.09-2.21-2.93-3.76Z"/>
  <path class="st29" d="M236.28,83.11c8.56,10.26,10.99,22.5,13.22,34.77.83,4.54,1.05,9.2,1.55,14.42-2.35,5.93-6.17,10.01-10.61,14.15-18.7,8.34-37.19,15.77-58.09,15.88-3.58-3.17-8.5-4.47-8.53-10.42,1.8-2.11,3.81-2.46,5.83-2.7,8.31-.97,16.43-2.83,24.93-5.44,7.56-.28,13.28-4,18.95-7.79,3.57-2.39,6.31-5.99,10.28-7.83,2.11-.97,1.97-2.86,1.66-5.34-.15-10.64-1.01-20.64-2.28-30.62-.43-3.38-1.26-7.12,3.09-9.09Z"/>
  <path class="st28" d="M119.31,61.15c1.3-.99,2.3-1.53,3.73-2.15,8.01-.49,15.5.07,23.29,2.38.81-.07,1.14-.1,1.94-.1,2.49.43,4.24,2.22,6.97,1.22,2.07-.23,3.54.16,5.17,1.51,1.48,2.16,2.78,3.75,5.64,3.69,9.38,4.07,12.76,12.84,17.23,21.37,1.06,3.17,2.15,5.78,2.58,8.56.86,5.5-1.6,8.33-6.87,7.07-8.74-2.09-16.88-6.26-25.56-8.71-2.59-.73-3.33-3.63-4.28-6.01-1.12-2.81-2.07-5.71-4.38-8.47-5.38-7.15-12.2-10.98-19.81-13.64-2.07-.72-4.49-.91-6.05-3.63-.28-1.24-.18-1.95.4-3.08Z"/>
  <path class="st17" d="M244.86,162.21c4.45-1.97,8.72-2.58,13.7-2.34,2.05,3.1-.22,4.2-2.02,4.55-10.13,1.99-16.95,8.86-23.76,16.91-1.91,1.08-3.43,1.63-5.01,1.71-22.69,1.16-45.38,2.71-68.12,1.53-1.35-.07-2.68-.38-4.51-1.07-4.52-.88-8.39-1.99-12.61-3.68-5.76-5.41-8.22-.41-11.5,3.35-1.22.95-2.14,1.42-3.6,2-3.86.8-7.15,1.06-10.45-1.7-.57-7.36,4.62-14.8,12.16-17.5,20.38,8.78,41.07,10.44,62.12,7.49,14.12-1.98,27.7-6.26,40.47-13.05,4.51-2.39,8.95-3.58,13.13,1.79Z"/>
  <path class="st50" d="M245.6,161.92c-.69,1.96-2.42,2.49-2.8,1.72-3.36-6.71-7.39-2.73-11.11-.84-30.4,15.44-61.91,17.92-94.41,8.94-2.8-.77-5.73-1.48-7.95-4.48-.68-.97-.91-1.59-.84-2.78,2.49-3.39,5.35-5.48,9.44-6.33,7.87,2.45,15.26,4.87,23.18,7.29,18.46,5.21,36.19,3.36,53.63-2.3,9.65-3.13,19.05-7.11,28.57-10.68,3.66-1.37,7.44-2.24,11.15-.49,1.09.51,2.28,1.95,2.46,3.12.3,2.02-1.67,1.63-2.87,1.9-3.13.69-5.99,1.89-8.45,4.94Z"/>
  <path class="st33" d="M236.66,82.9c-4.92,5.78-.49,11.7-.1,17,.57,7.72.72,15.4.85,23.75-8.74,4.37-17.33-1.4-18.17-12.16.82-10.69-1.7-19.88-6.87-28.36-1.09-1.78-1.83-3.72-2.06-6.43.56-3.79.47-7,.27-10.23-.14-2.26-.58-4.69,2.38-5.96,10.31,5,17.67,12.58,23.72,22.38Z"/>
  <path class="st4" d="M148.59,61.49c-1.22,2.01-2.97,2.8-4.3,2.09-6.37-3.43-13.52-1.78-20.45-4.17,17.28-9.6,35.88-13.26,56.1-11.01,4.85,2.94,4.95,9.33,10.97,12.28,2.6,1.9,4.25,2.61,6.39,3.37,2.34,1.55,3.13,3.88,5.02,5.93,10.3,11.53,17.45,23.94,16.73,40.48-1.76,7.28-2.11,7.46-8.87,4.43-2.38-7.84-4.78-15.12-7.36-22.36-3.74-10.49-11.93-17.36-18.65-25.42-1.61-1.93-3.99-3.26-4.91-5.7-2.62-6.93-7.85-7.84-13.83-6.52-4.57,1.01-9.24,1.83-13.93,4.16-1.05.99-1.78,1.59-2.91,2.45Z"/>
  <path class="st48" d="M292.42,137.51c-3.42-5.26-3.37-10.9-4.07-16.33-.37-2.89,1.48-3.52,3.72-3.57,4.88-.1,9.77-.2,15.27-.16,4.53,3.28,9.66,3.44,14.19,6.38,2.26,3.26,4.72,5.43,7.74,7.07,2.68,1.45,4.69,3.54,3.53,7.66-3.22,3.15-6.87,3.34-11.04,3.61-1.66-.05-2.77-.04-4.45-.03-9.04,1.75-17.52,3.53-24.89-4.62Z"/>
  <path class="st28" d="M124.9,88c-.51-.29-.94-.31-.94-.31,0,0-.43,0-.65.02-3.07.61-5.83-.07-9.13-.68-8.51-1.79-16.39-3.97-24.2-6.4-2.28-.71-4.79-1.08-6.68-3.66-.17-1.07-.17-1.64-.17-2.63,10.14-2.09,19.63-5.84,29.33-10.45,1.41.42,2.38.11,3.8.28,3.65,2.09,7.65,1.92,10.94,4.86,1.51,3.44,3.4,5.9,5.62,8.17,3.27,3.33,4.61,7.17,1.88,12.11-3.52.78-6.57,1.01-9.81-1.32Z"/>
  <path class="st29" d="M286.84,83.07c-5.92,15.49-6.22,31.27-3.02,47.18,1.87,9.33,6,17.63,14.67,23.66-6.33,2.69-11.74,5.01-15.57,9.88-1.27,1.61-2.41,1.36-3.84-.28-1.79-2.06-4.04-3.67-6.37-5.86-.92-5.24,1.34-9.55,2.3-14.09.85-4.02,1.07-7.82-.14-12.32.03-12.06-.65-23.53,1.19-34.95,1.36-8.4,3.78-11.99,10.78-13.23Z"/>
  <path class="st45" d="M233.35,180.12c3.97-8.58,9.91-13.88,18.38-16.25,2.41-.67,5.37-.38,7.29-3.38,7.14-.85,12.84,1.53,16.67,8.57-2.1,2.31-2.83,4.69-2.58,7.64.21,2.47.14,5.01-1.66,7.57-3.37,1.81-6.36,1.13-8.58-.88-4.47-4.05-8.94-3.66-14.3-2.2-4.89,1.33-10.34,4-15.22-1.07Z"/>
  <path class="st22" d="M321.55,141.66c2.79-2.35,6.39-1.91,10.13-3.07,2.16-1.41,3.8-1.31,5.77.4,1.1,4.86-2.64,5.48-5.43,7.53-7.96,4.44-7.92,4.64-1.34,10.2,4.17,3.52,8.07,7.38,10.98,12.82,1.26,2.84,1.93,5.25.74,8.33-6,3.29-8.76-1.4-12.5-4.99-.38-.39-.99-.46-1.29-.47-5.48-4.73-11.47-7.62-18.25-8.83-1.94-.35-4.03-.66-5.23-3.18,1.47-.77,2.91-1.02,4.85-1.45,3.93-2,6.97-.22,10.46,1.01.68-.01.88.66.9.17-3.59-1.42-7.15-2-10.47-4.41-2.27-2.5-1.58-4.17.61-5.41,3.11-1.76,6.27-3.41,9.72-5.48.81-1.14,1.04-1.93.35-3.18Z"/>
  <path class="st52" d="M201.36,71.1c-2.71-1.07-3-3.34-4.04-5.59-1.74-1.53-3.57-1.82-5.55-2.9-.37-.27-.34-.3-.34-.28-.23-.17-.45-.36-1.02-.28-6.32-1.73-7.29-7.71-9.77-13.02,11.74.04,21.9,5.62,32.49,11.33-2.73,2.4-.19,4.87-.13,7.16.07,2.75.45,5.53-1.11,8.64-5.11,2.03-6.09-4.48-10.53-5.06Z"/>
  <path class="st52" d="M287.35,82.9c-7.3,1.8-8.12,8.02-9.3,13.99-2.17,11.03-1.15,22.2-1.39,33.97-.69,1.82-1.47,2.73-3.29,1.55-1.18-11.5-.45-22.5-.74-33.48-.2-7.62-2.51-15.22-.15-23.49.56-3.44,1.84-4.1,4.1-2.14,3.55,3.08,7.15,6.09,10.76,9.59Z"/>
  <path class="st0" d="M321.88,124.95c-5.38-1.31-10.35-2.06-13.91-6.83,12.25-1.19,24.49-1.07,37.23.8.96,2.54,1.37,4.92,1.84,7.82-8.45,3.63-16.56,1.16-25.15-1.79Z"/>
  <path class="st17" d="M263.45,141.54c-3.04,2.37-3.36-.28-3.98-1.78-2.34-5.66-3.1-11.73-3.62-17.77-.48-5.57,4.12-2.59,6.34-3.45,1.84-.71,4.81-1.88,4.86,2.19.09,7,.63,14.11-3.6,20.82Z"/>
  <path class="st28" d="M272.05,75.19c.87.61,1.89,1.66,1.8,2.59-1.71,17.98,1.33,35.92.28,54.55,3.16,9.28-1.46,18.64-10.57,20.87-2.44-2.13-.66-2.98.5-3.99,5.22-4.53,7.28-10.51,7.53-17.4.53-14.35.07-28.67-.85-42.98-.29-4.48-.44-8.92,1.31-13.63Z"/>
  <path class="st25" d="M270.83,184.28c.33-4.36.84-8.36.05-12.06-1.22-5.73,2.19-2.55,4.45-2.66.91.14,1.18.43,1.35,1.18,3.5,9.56,4.16,19.18,3.05,29.45-.41.47-1.04.5-1.36.53-6.23,1.5-9.66-1.02-10.2-7.34-.27-3.12.15-6.12,2.66-9.09Z"/>
  <path class="st17" d="M279.61,201c-2.52-9.68-.51-19.43-2.9-29.36,2.58,1.93,2.61,5.6,3.9,9.26,1.82,1.78,1.48,3.63,1.36,5.73.32-2.21-.09-4.26,1.27-6.39.45-3.67.32-7.04,2.52-10.33.05,3.77,1.44,7.48,2.48,11.32,2.49,9.13-1.56,18.63-8.64,19.76Z"/>
  <path class="st24" d="M304.61,159.82c5.2,1.41,9.85,2.71,14.48,4.11,3.99,1.2,7.32,3.31,9.12,8-2.17,1.04-4.42,1.6-7.24,2.3-3.48.33-5.43-1.83-7.73-3.11-5.3-2.94-10.61-5.81-17.31-4.52-1.94.16-3.2-.49-4.21-2.36,3.36-3.87,7.87-4.13,12.9-4.43Z"/>
  <path class="st52" d="M173.26,152.27c2.56,3.83,7.24,4.65,8.48,9.51-6.5.86-12.82-.49-19.67-2.1.14-3.19-1.56-5.82-1.77-9.22,4.67-3.37,8.64-.9,12.96,1.82Z"/>
  <path class="st34" d="M293.49,68.79c2.62,2.2,5.2,3.72,6.71,6.45-6,2.54-15.33-.46-18.79-5.81-1.42-2.19-.98-3.85.56-5.61,1.49-1.69,2.97-1.8,4.69-.41,2.12,1.72,4.29,3.37,6.83,5.37Z"/>
  <path class="st50" d="M292.02,137.59c7.58,4.15,15.97,4.33,25.08,4.12.65.06.77.7.56.93-4.59.78-8.26,2.97-11.14,6.26-2.35,2.69-3.66,2.7-6.29,0-3.22-3.3-6.28-6.53-8.21-11.31Z"/>
  <path class="st33" d="M263.27,153.42c8-3.78,10.24-11,10.87-19.85.65-.96,1.25-1.35,2.19-1.89,3.18,8.78-.28,16.77-3.51,25.23-3.36-.78-6.33-1.93-9.55-3.49Z"/>
  <path class="st38" d="M240.6,146.77c2.03-5.17,5.21-9.81,10.04-13.64q4.67,9.36-4.33,12.08c-1.73.52-3.45,1.05-5.7,1.56Z"/>
  <path class="st41" d="M310.57,155.79c4.39-.74,7.84,1.7,11.89,3.92.62.56.77.99.77,2.09-3.97-.4-7.8-1.46-12.19-2.77-.53-1.1-.5-1.95-.47-3.23Z"/>
  <path class="st13" d="M283.2,180.11c.3,3.14,1.02,6.63-1.16,10.1-2.01-2.69-1.05-5.33-1.4-8.24.77-.91,1.49-1.28,2.57-1.87Z"/>
  <path class="st41" d="M317.92,142.89c-.46,0-.29-.55-.23-.83.97-.36,1.87-.44,3.21-.65,1.44.46,3.32-.34,3.35,1.64,0,.43-1.26.89-2.34,1.38-1.1-1.23-2.25-1.53-4-1.54Z"/>
  <path class="st4" d="M116.08,65.12c-1.15-.2-1.89-.41-2.88-.93,1.66-1.34,3.57-2.36,5.94-3.44.47.7.47,1.45.45,2.76-.89,1.42-1.97,1.59-3.51,1.62Z"/>
  <path class="st1" d="M364.37,121.09c-.25.21-.8.14-1.62-.29.26-.23.79-.11,1.62.29Z"/>
  <path class="st19" d="M129.95,163.84c-.09,1.06-.34,1.6-.72,2.56-5.79,3.76-8.9,9.49-12.65,15.24-.38,3.23-2.17,5.12-3.61,7.21-11.78,17.14-21.14,35.58-27.62,56.19-1.73,2.77-3.11,5.16-5.34,6.74-4.02,2.85-7.23,1.71-9.51-3.89,9.55-35.35,26.81-64.91,54.02-88.33,2.66.31,4.22,1.7,5.44,4.28Z"/>
  <path class="st17" d="M70.34,247.69c3.4,5.15,6.23,5.68,9.81,1.33,1.16-1.41,2.16-2.97,3.58-4.82,3.77.75,4.64,4.29,6.8,7.33-2.1,11.51-4.1,22.59-8.73,33.45-4.9,3.8-3.66,9.21-4.56,13.81-.75,3.78.14,8.41-4.22,10.21-4.42,1.83-7.6-1.07-10.8-4.66-.93-4.84-.22-9.15.28-14.05-.05-.57-.19-1.26-.07-1.58,1.57-13.98,3.56-27.52,7.92-41.02Z"/>
  <path class="st44" d="M61.76,304.54c1.71-.66,3.23-.42,4.42.83,1.79,1.88,3.77,3.58,6.46,2.31,3.15-1.49,2.08-4.69,2.41-7.35.68-5.56-.09-11.59,4.93-16.11,1.19.52,1.93,1.25,2,2.17,1.04,12.59,2.17,25.19-1.12,38.22-6.09-3.84-11.71-5.37-17.86.52-2.21-6.53-1.19-13.26-1.24-20.58Z"/>
  <path class="st28" d="M86.99,96.97c6.09.67,8.99,6.07,12.29,10.57,8.76,11.97,17.77,23.58,29.42,32.74,3.11,2.45,8.99,2.13,8.59,9.04-16.82-7.22-29.95-19.48-40.02-35.42-3.44-5.45-6.78-10.97-10.27-16.94Z"/>
  <path class="st34" d="M130.48,164.23c-2.48-.55-3.95-2.04-5.33-4.38,3.43-6.11,7.79-6.51,13.02-2.04-2.27,2.34-4.79,4.31-7.69,6.42Z"/>
  <path class="st7" d="M77.74,86.79c.91.33,1.82,1.19,3.05,2.27,1.06.38,1.48.85,1.5,2.17-3.11.74-4.48-.86-4.55-4.44Z"/>
  <path class="st28" d="M82.44,91.78c-.47-.58-.71-1.13-1.14-2.09.44.15,1.07.72,1.77,1.74.07.45-.39.38-.63.36Z"/>
  <path class="st28" d="M84.48,93.8c.25-.07.63.21,1.15.82-.25.07-.63-.2-1.15-.82Z"/>
  <path class="st28" d="M85.77,95.26c.28-.09.66.19,1.17.83-.27.08-.67-.18-1.17-.83Z"/>
  <path class="st1" d="M62.37,288.51c.18-.12.29.56.18.89-.54.03-.62-.33-.18-.89Z"/>
  <path class="st1" d="M67.14,359.98c.3.02.63.48.97,1.37-.31-.02-.62-.48-.97-1.37Z"/>
  <path class="st1" d="M68.46,364.27c.28.03.6.47.92,1.33-.29-.02-.59-.47-.92-1.33Z"/>
  <path class="st1" d="M69.81,368.56c.28.02.6.45.92,1.3-.29-.02-.59-.45-.92-1.3Z"/>
  <path class="st37" d="M347.63,429.61c-12.52,5.17-24.36,10.79-36.99,14.13-13.44,3.56-27.13,5.54-41.47,7.09-10.36,4.43-20.57,2.4-30.54,1.68-15.59-1.13-30.71-5.08-45.96-10.82-5.09-2.78-10.84-3.2-13.97-8.95,1.4-4.02,4.26-3.35,6.92-3.2,14.62.83,29.2-.67,43.78-1.24,9.91-.38,19.72-1.09,29.62.14,5.72.71,11.59,1.45,17.19-1.36,1.85-.93,3.98-.63,5.95.14,11.93,4.68,22.71,1.79,31.92-6.53,9.39-8.47,19.45-15.14,31.69-17.88,3.15-.7,5.68-2.76,8.28-4.63,6.66-4.78,13.08-9.88,21.1-12.31,6.17-1.87,6.81-7.4,6.51-13.69,2.99-3.24,6.51-2.63,9.78-2.56,6.78.14,13.41-.72,19.95-2.47,2.84-.75,5.63-1.66,8.03-3.45,3.54-2.63,6.83-5.54,6.49-10.7-.34-5.11-3.71-7.78-7.69-9.77-5.53-2.76-11.49-3.85-17.52-4.58-2.22-.27-4.49-.11-7.05-1.35-2.78-4.19,0-6.77,2.25-8.65,8.38-6.98,7.64-16.42,6.38-25.67-.69-5.04-.51-8.73,4.14-11.22,2.41-1.29,2.91-4.02,3.99-6.31,1.6-3.38,3.13-7.16,7.64-6.66,4.43.49,2.98,5.01,4.72,8.67,1.34-6.99,3.04-12.95,3.59-19.18.25-2.86.59-5.83,3.2-7.39,7.26-4.36,10.27-11.97,14.04-19.1,2.08-3.93,2.8-9.14,8.53-10.37,5.37,6.58,4.18,14.46,5.07,21.74.74,6.03.15,12.22.17,18.92.59,8.39-.72,16.09-1.78,23.71-1.23,8.85-2.58,17.62-2.43,26.58.05,2.84-.79,5.58-1.86,8.18-8.98,21.88-20.84,41.72-38.91,56.68-17.82,14.76-36.85,27.75-56.71,39.38-2.32,1.36-4.74,2.73-8.05,2.97Z"/>
  <path class="st32" d="M471.83,398.12c-8.59,1.36-9.66,9.61-13.65,15.47-.36,6.44-4.66,9.99-7.91,13.97-13.79,16.9-29.46,31.39-49.89,40.1-15.63,5.96-30.53,12.72-46.24,16.99-23.16,6.3-46.71,9.53-71.32,8.71-27.55.94-53.86-2.82-80.06-11.39-1.27-5.86,2.94-4.52,5.55-4.17,5.8.79,11.66,1.27,17.41,2.27,13.15,2.28,26.48,2.01,39.67,3.57,6.53.77,13.03.39,19.13-2.83,4.54-2.4,9.52-2.94,14.5-2.55,7.53.58,13.23-1.81,16.57-9.98,1.4-.47,2.41-.47,3.93-.48,2.01-.94,3.9.69,5.63-1.09,22.23-4.95,43.32-12.18,63.07-23.22,26.16-14.62,49.52-32.94,68.71-56.87,6.77-8.43,13.73-16.69,20.19-25.39,1.01-1.35,2.17-3.65,4.22-2.69,2,.93,1.23,3.4,1.05,5.1-1.29,12.04-5.87,23.03-10.57,34.49Z"/>
  <path class="st3" d="M347.44,430.01c11.91-8.18,24.35-15.67,36.35-23.85,19.2-13.1,38.05-26.77,50.87-47.35,5.52-8.86,10.21-18.22,14.46-27.81.84-1.91,1.98-4.01,1.89-5.97-.76-16.74,4.38-32.88,4.4-50.15,2.82-9.32,1.77-18.33.99-27.02-1.71-19.07-2.87-38.32-9.32-56.58-.61-1.74-1.26-3.88.88-4.97,2.78-1.42,4.55,1.03,7.02,2.75,9.56,10.12,15.08,22.15,20.17,34.39,8.1,19.46,13.53,39.69,15.6,61.46-7.6.69-12.66,4.26-15.1,11.96-2.48,7.82-7.9,14.36-10.74,21.56-3.78,9.6-10.06,17.48-13.6,27.19-7.02,19.26-20.06,34.27-35.62,46.62-17.55,13.92-36.54,25.51-56.51,35.29-3.56,1.74-7.05,4.39-11.75,2.49Z"/>
  <path class="st6" d="M315.39,467.79c-.13,10.16-2.64,12.83-12.41,12.64-7.96-.16-15.33.79-22.69,4.73-5.33,2.84-11.95,1.2-17.95.73-14.02-1.1-28.02-2.56-42.01-4.02-4.21-.44-8.39-1.27-12.56-2.09-1.97-.38-3.94-1.52-5.4,1.59-19.92-6.27-39.04-14.54-56.56-27.45-7.22-5.86-14.79-10.55-20.58-18.15,9.34-.24,18.9-1.95,29.06-.5,2.21-1.51,3.88-.77,6.03.08,11.81,7.28,23.65,13.21,36.13,17.73,3.14,1.14,6.52,1.72,9.53,4.43,12.35,6.76,25.6,8.14,38.59,10.09,14.85,2.24,29.85,3.84,44.9,2.93,8.47-.51,16.89-1.8,25.92-2.74Z"/>
  <path class="st3" d="M206.64,457.56c-16.76-3.41-31.66-10.91-46.14-20.42,8.5-3.4,16.83.17,25.28,1.34,1.48.2,2.91,1.11,5.09,1.03,5.6.27,10.05,2.71,14.74,4.2,20.17,6.4,40.83,7.77,62.36,7.12.44,2.64-1.54,3.43-3.46,4.03-4.31,1.35-8.26,3.3-12.17,5.7-5.67,3.48-11.9.29-17.63-.28-9.23-.93-18.69-.27-28.06-2.71Z"/>
  <path class="st6" d="M324.96,466.38c0,3.46-1.94,2.92-4.51,1.6.72-1.83,2.41-1.56,4.51-1.6Z"/>
  <path class="st44" d="M455.36,188.96c-2.62,1.15-4.43-1.25-7.96-2.12,3.4,6.29,4.25,12.55,5.71,18.65,5.14,21.59,5.26,43.57,4.97,65.59-.02,1.24-.45,2.28-2.12,3-.51-13.83.07-27.86-4.21-41.88-2.74-2.56-2.99-5.76-3.84-8.61-4.81-16.02-11.78-30.85-22.03-44.48-.59-.57-.82-.8-1.39-1.39-3.05-3.79-6.22-6.7-9.72-9.21-3.82-2.74-8.43-4.83-5.11-11.36,1-1.97-1.33-3.77-3.05-4.84-3.07-1.91-4.16,1.56-6.54,2.98-4.11,2.26-7.55,2.14-9.91-1.73-2.37-3.89-.77-7.18,2.55-10.39.86-.97,1.45-1.38,2.64-1.81,20.57,7.36,37.2,20.14,51.81,36.06,3.11,3.38,5.86,7.01,8.2,11.54Z"/>
  <path class="st17" d="M395.55,140.87c.06.77-.2,1.18-.77,1.78-1.69,1.53-3.38,1.87-5.7,1.71-2.15-.5-3.64-1.33-5.67-2.12-2.41-.48-4.25-1.2-6.51-2.17-4.85-3.14-10.45-3.22-14.75-7.63,1.74-.96,3.61-.97,6.03-.98,4.39,2.12,8.56,2.69,13.34,2.93,4.93,2.05,9.33,4.08,14.03,6.47Z"/>
  <path class="st12" d="M80.42,325.55c-.01-13.67,0-26.89.04-40.77,3.34-5.58,2.73-11.67,4.5-17.05,1.65-5,3.2-10.03,4.84-15.56-.16-1.3.08-1.88,1.27-2.23,4.75,3.03,3.27,9.51,7.77,12.98,1,2.26,1.21,4.12,1.16,6.61.67,6.94-1.94,12.72-3.07,19.34-4.3,10.8-5.52,21.13-.76,32.07.76,1.38,1.14,2.6,3.03,2.05.71-.17,1.01-.22,1.75-.3,4.77.34,7.68-2.03,10.09-5.4,1.76-2.46,3.07-5.2,4.68-7.74,2.96-4.69,4.59-4.73,8.24-.41.89,1.06,1.77,2.16,2.39,3.4,2.29,4.58,4.7,4.73,10.05,3.9,8.69-1.34,17.06-1.82,24.43-7.54,1.6-1.24,3.86.5,6.16,1.53.74.36,1.03.52,1.74.97.92.74,1.4,1.23,2.13,2.17,5.95,13.87,17.07,18.59,30.27,20.98,1.8,2.65,1.8,5.27,1.95,8.43-.23,1.77-.99,2.59-2.32,3.56-11.99-5.55-23.85-9.1-36.82-8.12-4.73.36-9.32,1.3-14.49,2.02-6.58-2.2-18.68-3.99-24.58-3.86-2.28-5.04-3.05-9.79-1.88-14.01-1.65,4.14-.3,9.8-2.66,15.17-6.31,2.38-12.24,4.71-19.14,2.79-2.2-2.51-3.48-4.81-2.49-7.14-5.04,4.82-7.27,4.62-13.94-2.26-1.22-1.45-2.53-1.85-3.94-3-.34-.97-.35-1.57-.4-2.61Z"/>
  <path class="st37" d="M118.77,401.68c-13.53-16.13-23.42-34.21-33.9-51.88-1.2-2.03-1.96-4.21-1.75-7.21,1.96-2.22,3.98-1.42,5.52-.14,3.84,3.2,8.49,5.07,12.57,8.77,1.3,2.33,1.42,4.49,2.13,7.02,1.44,5.4,2.43,10.42,5.24,15.3,5.53,8.71,13.1,13.63,21.98,16.63,5.41,1.83,9.28,4.71,7.51,12.11-.16,1.94.15,3.4-.83,5.16-7.63,2.96-12.28-3.06-18.46-5.76Z"/>
  <path class="st44" d="M118.53,401.79c6.46-.94,10.96,5.89,18.2,5.25,1.97-.27,3.28.18,4.39.98,12.04,8.69,24.83,16.07,37.81,24.06,3.62,3.58,7.89,4.86,12.19,7.07-3.08,3.81-6.51.32-9.86.18-6.64-.26-13.24-1.66-20.42-2.61-2.05-.45-3.54-.9-5.49-1.4-9.58-8.04-19.51-14.97-28.5-23.85-2.98-3.23-5.55-6.25-8.33-9.69Z"/>
  <path class="st36" d="M101.36,351.9c-7.09-1.52-11.24-7.37-17.75-9.79-.5-3.41-.52-6.75-.56-10.73.09-1.13.35-1.53,1.08-1.95,1.27.46,2.49.77,3.06,1.59,3.52,5.02,7.19,5.95,11.19.41,1.45,2.33,2.17,4.44,2.36,7.27,3.55,4.4,4.79,8.53.63,13.2Z"/>
  <path class="st44" d="M84.19,328.97c0,.73-.28,1.09-.86,1.62-1.54.01-2.55-.43-2.82-2.35,1.11-.18,2.26.09,3.68.73Z"/>
  <path class="st42" d="M399.9,468.24c6.46-6.77,15.02-9.41,21.89-15.09,13.55-11.21,25.98-23.4,35.98-38.78,7.23-.71,6.16,2.82,3.51,6.84-9.63,14.6-21.84,26.54-35.69,36.62-7.87,5.74-15.68,11.69-25.18,15.56-.49-1.48-.5-3.03-.51-5.16Z"/>
  <path class="st17" d="M321.41,125.08c8.18.39,16.36,1.3,25.11,2.19,5.32,1.14,10.08,2.29,15.17,3.83.34.4.31.44.3.46-2.8,2.76-6.08,1.84-9.28,1.35-2.25-.35-4.66-1.9-6.57,1.61-1.95,3.34-3.62,6.31-7.95,5.81-1.96-.79-3.49-1.26-5.5-1.75-.02-4.23-2.71-5.83-5.86-6.82-3.05-.96-5.25-2.54-5.41-6.69Z"/>
  <path class="st16" d="M202.62,343.79c-2.56-2.42-1.41-5.18-1.72-8.21.71-1.88,1.95-2.45,3.18-3.03,17.95-8.48,23.47-20.08,19.02-39.97-.2-.92-.34-1.84-.4-3.3-1.19-16.61,8.53-28.26,15.54-40.84,3.24-5.82,9.25-9.69,14.72-13.09,5.96-3.7,8.59-8.51,9.25-15.23.23-2.34.5-4.68.37-7.02-.17-3.01,1.53-6.74-.52-8.86-2.29-2.38-4.65,1.5-7.22,1.86-3.06.43-5.26-.67-6.94-3.21-1.04-1.57-1.45-3.42-2.04-5.19-2.63-7.84-3.36-8.07-9.29-2.95-.7.6-1.46,1.09-2.76,1.67-5.31.94-9.58-.44-12.63-4.34-4.01-5.12-8.17-4.86-12.99-1.54-3.02,2.07-6.37,3.53-9.89,4.44-3.82.99-7.79,1.34-11.07-1.2-2.81-2.18-5.74-2.39-9.42-2.25-8.24,1.52-13.47,6.95-18.65,12.5-2.33,2.5-4.52,5.22-7.48,6.97-2.29,1.36-4.65,1.68-6.99-1.01-1-5.6,1.08-10.01,3.15-14.36,2.08-4.37,4.14-8.71,5.24-14,18.8,1.56,37.32,1.65,55.83-.38,7.78-.85,15.71,1.18,23.92-1.59,6.49,3.5,12.59.77,17.76-1.21,5.13-1.97,8.25-1.66,11.74,2.24,2.04,2.28,4.79,3.34,8.39,3.12.15,2-.33,4-.56,6.02-.65,5.62.34,10.18,7.39,10.92.52,1.52.53,3.03.53,5.11.3,2.65-.01,4.85.85,6.82,1.53,3.51,3.49,6.17,7.79,3.95,5.48-2.83,9.11.79,12.27,4.46,3.36,3.89,3.54,8.74.99,13.13-2.51,4.31-6.28,6.81-11.44,5.15-4.26-1.37-6.6.35-7.07,4.77-.41,3.91-2.58,6.96-4.08,10.36-1.9,4.31-4.13,4.33-6.57.62-.98.88-1.69,1.78-1.64,2.61.7,11.13-7.87,17.89-11.67,26.88-2.76,6.54-7.32,11.81-13.3,15.6-5.38,3.42-8.27,8.84-9.28,14.98-1.16,7.04-4.76,12.26-9.88,16.25-6.75,5.25-13.4,10.94-22.41,12.36Z"/>
  <path class="st14" d="M337.52,140.41c3.31-.61,4.73-3.16,6.7-5.63,7.28-3.72,18.28,1,21.48,9.29-2.98,4.27-5.31.34-8.3-.18-3.22,2.17-.78,4.15.13,5.89,2.19,4.17,2.65,8.01-.95,11.49-2.6,2.51-2.33,4.19.96,5.53,1.82.74,3.43,2.36,2.78,4.28-2.82,8.27,2.68,16.1.22,24.75-3.96,13.93-2.88,29.22-10.13,42.39-.78,1.41-1.24,3.02-1.51,5.14-1,3.68-2.59,6.85-.23,10.61,2.33,4.23,2.87,7.88-.5,11.32-1.69,1.73-2.36,3.95-2.27,6.43.11,3.35-1.34,5.95-3.85,7.82-3.35,2.5-4.12,5.95-3.76,10.44-.03,4.26-.59,7.88-2.21,11.83-2.76,2.59-4.39,5.04-4.86,8.61-.79,5.96-4.11,10.66-7.49,15.46-5.25,7.46-11.81,13.96-14.92,23.05-2.69,7.86-7.37,13.86-16.11,15.13-3.38.49-6.36,2.27-8.98,5.5-3.78,1.8-7.27,1.47-11.24,1.06-1.42-.32-2.33-.64-3.72-.88-1.36-.24-2.18-.62-3.33-1.37-1.77-1.79-3.44-1.65-5.65-1.02-9.35-1.09-17.55-4.2-24.72-9.77-4.69-3.64-4.3-5.54,1.71-8.9,1.17,3.44,3.58,5.17,6.34,4.18,7.53-2.69,16.35-2.93,21.33-11.6,2.7-2.04,4.8-.18,6.99.75,9.48,4.02,16.62,3.01,24.92-4.07-4.77,1.93-9.27,5-14.63,4.58-3.04-.23-6.55.31-7.36-4.66.61-1.63,1.4-2.59,2.54-2.76,13.7-2.12,21.17-12.61,29.21-22.81,8.73-11.07,13.64-24.26,20.35-36.44,1.12-2.03,2.33-4.2,2.55-6.5,1.53-16.12,7.07-31.51,7.99-47.73.09-1.64-.12-3.39.47-4.89,2.71-7.02,2.63-13.69-1.65-20.09-.76-1.14-.85-2.66-.48-4.6,3.74-1.92,6.78-3.58,4.95-8.62-.53-1.46-.2-3.18,1.08-4.95.51-2.93-.01-5.36-.99-8.24-.14-5.32-3.46-7.84-6.56-10.44-4.28-3.59-6.16-7.79-3.29-13.77,2.47-2.01,4.62-3.61,7-5.61Z"/>
  <path class="st30" d="M202.11,343.82c10.41-5.63,20.55-11.06,28.17-20.4,1.45-1.78,1.45-3.79,1.89-5.85,1.81-8.44,4.8-16.16,12.82-20.42,4.64-2.46,7.14-7.03,9.89-11.32,3.66-5.7,4.46-13.3,10.77-17.31,1.26-.8,1.51-2.79.77-4.54-1.35-3.19.23-6.06,1.38-8.76.86-2.04,2.42-4.71,4.84-4.19,2.92.63-.58,3.76,1.54,5.81,1.59-5.31,5.49-8.98,5.71-15.05.18-5.04,3.91-7.26,8.79-4.37,4.24,2.5,6.83-.38,9.27-3.15,2.78-3.16,2.51-7.19.88-10.55-1.74-3.6-5.23-5.66-8.97-6.84-.44-.14-1.23.52-1.7.99-2.28,2.29-5.22,4.37-7.53,1.26-2.46-3.31-7.36-6.62-2.94-12.41,8.45,3.62,15.49,10.42,25.88,7.03,4.99-1.63,10.48,6.16,8.97,12.25-1.96,7.94-2.95,15.76-8.57,23.02-4.86,6.27-6.25,15.62-11.53,22.57-7.45,9.81-13.12,21.36-21.59,29.99-9.75,9.93-17.56,21.93-29.28,29.91-6.02,4.1-12.69,5.83-19.14,8.37-6.39,2.51-11.88,7.83-19.77,7.34-1.01.7-1.55.61-1.87-.48.46-1.17.81-1.85,1.3-2.89Z"/>
  <path class="st5" d="M336.55,190.47c-.27.64-.34.91-.25,1.1,8.99,18.8,2.32,36.89-2.25,55.09-1.26,5-.57,10.19-1.4,15.33-1,6.17-2.75,11.8-5.54,17.19-6.49,12.52-11.86,25.74-20.94,36.65-8.06,9.69-15.27,20.62-29.39,21.18-.53.02-1.03.82-1.86,1.84-4.17,1.05-7.32-.01-9.16-4.43,4.16-4.76,7.42-9.85,12.46-13.16,2.53-1.66,2.87-4.36,1.95-7.49-1.26-4.26.33-7.15,4.61-8.48,5.23-1.63,8.46-5.07,8.18-11.2-.2-4.42,2.34-7.32,5-10.32,6.49-7.34,14.12-13.89,17.32-23.76,4.31-13.3,8.5-26.45,11.02-40.52,2.05-11.45.94-23.66,5.85-35.13,3.31-1.01,2.74,2.44,4.37,4.28.23.78.27,1.1.03,1.83Z"/>
  <path class="st14" d="M107.9,374.91c-4.22-4.36-4.61-9.74-5.82-15.35,1.66-2.05,3.41-1.26,5.06-.6,5.28,2.1,10.48,4.14,16.26,1.69,1.66-.71,3.63,0,5.15,1.07,8.21,5.77,17.99,8.64,25.83,15.01,5.27,4.29,10.98,4.91,17.18,3.61,3.96-.83,7.87-1.89,11.75-3.09,3.2-.99,5.71-2.71,6.72-6.88,2.5-3.93,5.44-5.91,10.07-4.8,4.96,7.42,5.43,7.52,11.95,2.32,4.03-3.22,8.57-4.73,14.19-4.63,2.22,1.04,3.25,2.71,3.28,4.57.11,6.8,3.35,12.98,3.22,20.29-6.7,2.83-13.95,1.25-20.2,5.16-7.62,4.76-16.31,6.35-24.82,8.57-15.69,4.09-30.48,2.94-45.01-5.01-11.89-6.5-24.6-11.43-34.8-21.91Z"/>
  <path class="st41" d="M232.23,389.11c-3.04-8.28-4.31-16.47-5.21-25.33-.26-2.06-.3-3.6-.51-5.68-.29-.77-.42-.99-.87-1.41-2.22-.76-3.69-1.61-2.74-4.09,1.48-3.86,9.98-6.73,14.21-4.29-1.44,1.66-3.06,2.86-5.29,4.51,8.11,7.31,17.49,11.03,27.92,13.7,2.2-.41,3.87-.67,5.81.76,1.02.69,1.7.98,2.75,1.22.37-.05,1-.13,1.31-.04,4.43.35,8.55.6,13.28.73,2.46-2.41,5.1-2.22,8.09-2.63,1.21-.18,1.89-.29,3.08-.5,7.26-.68,13.55-3.07,20.25-5.76,3.18-1.27,5.5-3.08,7.94-4.68,2.24-1.47,3.28-3.06,2.88-6.24-.58-4.66,1.85-6.24,6.06-4.72,6,2.17,8.13,6,6.31,12.22-.67.79-1.03,1.26-1.53,2.15-.52,1.55-.58,2.74-.51,4.42.01,1.5,0,2.51.05,4.06-2.14,21.02-9.96,38.61-25.32,51.81-7.98,6.86-17.28,11.1-28.09,8.45-4.29-1.05-8.37.71-12.7.17-12.66-1.57-21.38-9.15-29.27-19.38-4.34-5.92-7.57-11.79-7.9-19.43Z"/>
  <path class="st15" d="M200.7,365.42c-3.42.58-5.96,2.59-9.01,4.39-3.82,4.72-8.89,4.24-13.44,4.43-11.66.48-23.38.6-34.21-5.18-5.97-3.18-10.33-10.52-9.28-16.55,1.23-7.04,5.2-11.78,12.78-13.25,14.94-4.55,29.18-4.27,43.39.92,3.48,1.27,6.52,3.03,9.56,5.86.59.62.85.97,1.49,1.37,4.39,6.34,3.02,12.06-1.29,18.01Z"/>
  <path class="st41" d="M265.3,333.81c2.52,2.79,5.38,4.19,8.84,5.5,8.2,3.99,14.79.87,21.21-3.51,1.69-1.15,3.71-4.15,5.56-1.16,1.54,2.48-1.3,4.1-2.98,5.5-9.83,8.19-19.75,8.38-32.92.71-2.12-1.63-4.85-2.71-4.11-5.68.45-1.79,2.45-1.33,4.4-1.36Z"/>
  <path class="st24" d="M336.69,191.09c-.41-.22-.41-.92-.41-1.28-2.03-3.03-1.95-6.58-3.77-9.86-1.17-2.43-2.04-4.47-2.95-6.99,4.32.02,6.62,4.96,11.62,5.14.09,3.49,1.57,6.76,1.73,10.14.23,4.88-1.65,6.63-6.22,2.84Z"/>
  <path class="st31" d="M296.06,166.94c.58-4.15,3.47-2.98,5.96-2.3,6.5,1.78,12.52,4.64,18.03,9.49,1.09,4.09-.76,2.85-2.45,1.74-6.5-4.28-13.52-7.22-21.54-8.93Z"/>
  <path class="st14" d="M332.22,180.1c3.31,1.44,3.27,5.08,4.05,8.83-3.23.41-2.25-2.8-3.7-4.8-.35-1.38-.35-2.44-.35-4.03Z"/>
  <path class="st14" d="M225.44,356.71c.34-.39.7-.25.93.52-.33.19-.59-.01-.93-.52Z"/>
  <path class="st38" d="M124.46,88.26c3.01-.59,6.1-.71,9.58.61,2.68-.51,4.82-.26,7.4.03,2.51,0,2.2-1.48,2.04-2.86-.27-2.24-1.09-4.58,1.47-6.57,1.53,1.3,3.28,2.61,3.6,4.24,1.98,9.83,9.01,12.39,17.15,14.11,4.07.86,7.92,2.94,11.83,4.56,2.14.88,4.5,1.74,6.26-.02,1.68-1.68.17-3.94-.31-5.91-.49-2.03-1.06-4.04-1.65-6.6-.45-2.03.43-2.56,2.11-2.85,4.88,2.42,5.81,6.97,6.33,11.3.69,5.81,3.64,8.61,8.84,9.86,3.67.88,7.53,1.51,10.85,4.75,3.01,1.02,6.77,6.42,7.5-1.93.84-1.47,1.8-1.6,3.3-.95.56,10.09,3.28,12.62,16.1,14.34,1.03,1.4,2.5,3.55.83,4.32-10.6,4.86-18.18,15.64-31.1,16.93-.99-2.6.93-3.75,2.4-5.1,2.03-1.86,4.32-3.56,5.73-5.92,1.77-2.95,6.95-5.5,2.7-9.83-4.62-4.71-10.33-4.1-14.36.56-5.28,6.11-10.67,12.17-18.48,14.8-2.75.93-5.57,2-8.96.58-1.04-1.33-.79-2.2.45-3.29.37-.35.41-.23.37-.28,5.69-3.67,11.84-6.66,16.8-11.42,3.26-3.13,6.94-6.64,2.35-12.12-9.17-2.61-17.13-7.54-26.7-9.08-1.48.09-2.41.1-3.79-.17-3.02-1.26-5.96-1.4-8.5-3.74-8.84-4.27-17.83-6.6-26.95-8.46-2.17-.44-4.59-.25-5.21-3.89Z"/>
  <path class="st33" d="M174.61,140.22c13.14-.43,21.62-8.38,28.53-18.09,2.57-3.61,3.94-4.12,7.74-2.54,13.89,5.79,14.29,7.24,3.37,18.48-2.37,2.44-5.09,4.5-7.91,7.14-10.51,3.84-21.12,5.36-32.22,7.33-4.61-.73-8.69-1.67-13.3-2.62-6.73-.34-12.84-1.25-18.71-3.36-1.54-.55-3.88-1.24-2.88-3.73.82-2.04,2.61-.75,4.07-.48,1.73.32,3.51.4,5.84.63,9.01,1.96,16.84-1.74,25.47-2.76Z"/>
  <path class="st29" d="M164.89,103.22c1.31.25,2.11.46,3.19.99-13.05,16.7-30.65,15.47-49.08,13.15-1.1-.51-1.31-1.13-.84-2.23,3.53-.02,6.69.32,10.39.61,1.51-.83,2.61-1.14,4.25-1.1,1.03,0,1.63-.01,2.67-.06,10.56-2.12,19.52-7.32,29.42-11.34Z"/>
  <path class="st29" d="M195.24,113.83c5.24-.15,6.62,2.2,3.97,7.2-4.8,9.05-13.45,12.26-22.27,16.04-.16-2.48,1.91-3.1,3.62-4.05,7.37-4.13,12.12-10.49,14.68-19.19Z"/>
  <path class="st29" d="M82.67,76.44c9.87,4.13,19.9,5.97,30.03,8.82.53.71.75,1.12.55,2.1-12.97-.82-24.72-4.8-36.26-10.79,2.23-2.43,3.65.01,5.68-.13Z"/>
  <path class="st52" d="M165.15,102.85c-8.27,6.76-17.73,10.53-28.68,11.71,1.39-4.69,5.99-2.66,9.2-4.19,4.34-2.07,9.78-2.56,10.64-9.61,3.08-.56,5.86.48,8.85,2.09Z"/>
  <path class="st29" d="M175.27,139.92c-7.93,4.93-16.3,4.81-25.17,3.46,8.6-.33,16.87-3.73,25.83-6.3.18.8-.17,1.61-.66,2.84Z"/>
  <path class="st52" d="M118.04,114.5c.44.83.4,1.4.37,2.41-3.56.51-6.63-.92-10.96-3.23,4.4-.65,7.28-.97,10.58.82Z"/>
  <path class="st38" d="M113.35,88.03c-.49-.52-.45-.91-.38-1.9,3.06-.06,6.09.47,9.62,1.29-2.43,3.57-5.61,1.38-9.24.61Z"/>
  <path class="st52" d="M132.97,114.28c-.55,1.54-1.72,1.67-3.43,1.48.06-2.26,1.17-3.06,3.43-1.48Z"/>
  <path class="st29" d="M145.17,78.89c-1.82,3.69.29,6.75.82,9.82.48,2.76-.1,3.59-2.97,2.4-2.61-2.38-3.66-5.25-4.78-8.04-2.27-5.68-7.43-8.54-11.51-13.12-3.66-1.64-7.01-2.9-10.72-4.49.39-1.49,1.51-1.56,3.12-1.44,9.74,3.22,19.32,5.87,26.04,14.86Z"/>
  <path class="st29" d="M184.92,87.28c-1.07.75-1.84,1.04-2.88,1.68-4.72-6.69-7.77-14.89-15.62-19.63-2.15-1.2-4.54-1.14-5.85-3.74-1.74-.91-3.19-1.48-5.11-2.09-2.15.29-3.78.12-5.69-1.01-.35-.37-.93-.53-1.22-.6-.77-1-1.57-2.02.6-2.34,1.96-1.66,3.92-1.8,5.95-1.25,14.81,4,25.55,12.71,29.83,28.97Z"/>
  <path class="st4" d="M160.31,65.77c1.71.54,3.44,1.63,5.42,3.09-2.05.28-4.99,1.52-5.42-3.09Z"/>
  <path class="st4" d="M149.62,62.56c1.41-.22,3.02,0,5,.56-1.58,2.98-3.23,1.92-5-.56Z"/>
  <path class="st0" d="M152.87,181.06c1.74,3.06,1.49,5.72-.08,8.62-3.15,5.82-6.09,11.8-7.36,19.02-4.94,6.82-4.75,7.37,2.85,8.6,1.33.22,2.65.4,4.12,1.61,1.28,3.24-.33,5.42-1.54,7.62-2.73,4.95-4.64,10.18-5.8,16.29-5.85,7.12-7.48,15.48-9.81,24.12-1.95,1.62-3.58,1.19-5.62.1-2.84-3.08-3.4-8.53-9.44-6.81-3.92-.22-5.2,3-7.41,4.75-4.16,3.29-7.98,7.55-14.42,5.36-.37-2.28-.39-4.23-.43-6.77-3.73-9.67-3.26-18.27,3.18-26.46,4.01-.33,3.79,3.03,4.96,5.07,2.63,4.57,5.53,5.34,9.27,1.84,7.12-6.65,11.04-15.34,12.88-24.93,1.05-5.44-1.21-7.16-6.46-5.78-1.09.29-2.13.74-3.67.21-1.82-2.84-1.39-5.45-.04-7.63,3.74-6.02,7.11-12.28,11.15-18.64,4.84-1.95,10.67-1.51,11.88-8.78,3.98.6,7.63,1.55,11.78,2.62Z"/>
  <path class="st48" d="M91.68,249.95c-.87.42-1.22.69-1.66,1.38-3.85-.32-3.72-4.19-5.7-6.98,6.58-23.04,16.96-43.59,31.7-62.09,3.55,1.94,7.1,1.55,11.16,1.52,1.67,2.66-.04,4.57-1.34,6.3-12.95,17.22-23.31,36.01-31.44,56.16-.52,1.3-1.24,2.49-2.71,3.69Z"/>
  <path class="st49" d="M91.45,250.68c7.22-22.1,18.16-41.66,31.56-59.79,1.51-2.04,2.92-4.16,4.56-6.67.75-.89,1.32-1.35,2.26-1.85,1.99,1.1,2.08,2.71,1.34,5.02-3.57,9.17-11.36,15.25-12.88,25.4.95,2.02.27,3.42-.64,4.36-5.65,5.86-9.23,13.24-14.15,20.14-5.29,4.32-5.59,10.05-5.51,15.92.04,2.81,0,5.63-.03,9.1-6.18-.92-4.07-7.29-6.51-11.62Z"/>
  <path class="st31" d="M131.33,187.84c-.7-1.4-.91-2.88-1.12-4.93,1.46-2.35,2.96-4.1,4.38-5.92,2.32-2.98,4.44-2.71,6.64.73,2.41,9.47-4.75,8.4-9.9,10.13Z"/>
  <path class="st29" d="M221.22,109.71c-.93.65-1.85.67-3.21.72-.37-15.39-6.68-27.93-16.82-39.23,4.68-1.7,6.62,2.73,10.04,5.34,1.03,4.57,4.42,7.45,5.99,11.35,2.74,6.8,4.67,13.72,3.99,21.83Z"/>
  <path class="st28" d="M184.87,88.2c-6.88-16.07-17.59-26.32-34.87-28.66,4.07-6.83,11.62-5.47,18-6.97,6.09-1.43,10.06,1.02,13.02,7.72,2.55,5.78,8.16,10.21,12.63,14.74,10.26,10.39,13.91,23.37,16.7,37.67-.67.51-1.34.38-2,.34-14.81-.8-21.09-10.45-23.48-24.84Z"/>
  <path class="st33" d="M191.63,62.76c1.76-.57,3.61-.32,5.14,1.99-1.74.57-3.62.33-5.14-1.99Z"/>
  <path class="st33" d="M190.4,62.32c.04-.16.41-.3.9-.22-.11.23-.34.23-.9.22Z"/>
  <path class="st4" d="M126.45,70.08c9.42,2.67,13.7,10.35,16.23,20.16-2.4.15-4.83-.24-7.67-.95-.15-5.11-.27-9.54-5.33-12.13-2.24-1.14-2.99-3.92-3.23-7.08Z"/>
  <path class="st24" d="M330.36,145.68c-.19,6.12.84,11.21,6.8,14.62,2.73,1.56,5.09,4.65,3.5,9.09-3.86-4.15-7.52-8.47-11.92-12.02-2.14-1.73-6.2-1.83-5.67-5.8.49-3.67,3.89-4.68,7.3-5.88Z"/>
  <path class="st35" d="M323.35,162.7c-.3-.68-.34-1.12-.39-2.21,1.95-.35,3.98.28,3.37,2.84-.25,1.03-1.81.16-2.97-.63Z"/>
  <path class="st35" d="M328.59,164.88c-.14-.16.33-.26.33-.26,0,0-.19.41-.33.26Z"/>
  <path class="st2" d="M425.29,177.12c10.9,10.67,16.92,24.47,22,38.78,1.7,4.79,3.88,9.52,4.07,15.36-5.54,7.58-7.18,16.95-13.04,23.87-2.21,2.61-2.29,7.09-7.26,6.82-1.98-.11-2.84,2.26-2.66,4.26.67,7.19-3.21,13.66-2.9,20.81.1,2.33-1.19,4.26-3.77,3.79-2.52-.46-3.04-2.43-2.36-4.85.62-2.2,1.98-4.85-1.32-5.8-2.85-.83-3.9,2.03-4.96,3.91-2.39,4.23-1.85,10.77-8.79,11.35-.86.07-1.92,2.49-1.05,3.69,4.7,6.49-.53,13.8,1.74,20.5.78,2.31-1.54,3.67-2.83,5.25-2.9,3.55-6.96,6.02-8.99,10.92-5.82,4.41-12.43,4.01-19.41,4.3-2.42-1.77-1.84-3.65-.9-6.03,2.97-3.68,6.72-5.51,9.65-8.45,11.06-11.11,12.78-26.15,4.38-39.58-1.34-2.15-3.25-3.91-4.04-6.98,3.39-6.64,7.19-12.56,8.27-19.88.3-2.07,1.25-4.09.52-6.14-2.27-6.3.57-9.6,5.79-12.12,5.02-2.43,7.53-6.51,5.97-12.59-1.25-4.83-.13-9.23,2.34-13.45,2.76-4.71,4.51-9.65,2.83-15.39-1.24-4.22,1.13-6.63,4.61-8.14,1.89-.82,3.96-.88,5.92-1.4,4.52-1.19,8.36-2.84,5.59-9.03-.48-1.07-.2-2.31.62-3.79Z"/>
  <path class="st2" d="M239.76,406.68c6.43,2.6,8.24,9.72,13.61,12.76,21.42,12.14,50.06,11.2,66.49-13.41,7.58-11.36,11.84-23.95,13.81-38.12.38-1.19.72-1.79,1.43-2.72,9.22-4.79,14.53-12.81,19.81-20.98,4.36-6.75,6.5-7.25,13.71-4.21,1.03,3.92-1.97,5.08-3.73,6.99-6.12,6.65-5.3,12.72,2.08,17.87,4.59,3.2,10.53,2.4,15.11,6.46,3.86,9.61.54,15.25-9.25,17.49-5.34,1.22-9.53,5.2-13.88,8.35-5.55,4.02-10.78,7.64-17.74,9.16-10.29,2.24-18.23,9.48-26.24,16.44-9.74,8.46-20.75,12.29-33.2,6.17-1.5-.74-3.23-1.15-4.57-.34-7.22,4.32-14.68,2.56-22.17,1.35-1.55-.25-3.15-.34-4.71-.26-17.91.86-35.88.56-53.71,2.84-5.67.72-11.02-2.19-16.99-.41-15.78-4.91-28.44-15.23-42.06-24.68-.7-1.49-1.12-2.61-1.58-4.17,3.77-2.76,6.5.04,9.05,2.04,7.87,6.15,16.81,8.76,26.4,9.5,2.94.23,5.76.93,8.6,1.67,5.81,1.52,11.2.74,17.08-1.19,13.66-4.5,27.53-8.69,42.66-8.57Z"/>
  <path class="st20" d="M382.94,371.72c-5.3-1.54-10.34-1.63-14.83-3.97-10.33-5.38-14.11-15.42-2.33-24.12.91-.67,1.78-1.39,2.92-2.5.85-1.76,1.94-2.28,3.72-2.14,6.74-1.09,13.01-2.73,20.12-2.7,10.77,0,20.81.94,29.69,6.78,7.83,5.15,8.46,13.11,1.82,19.78-7.19,7.22-16.58,7.67-25.65,8.74-4.88.58-9.88.1-15.46.12Z"/>
  <path class="st36" d="M425.62,176.75c.14,1.16.09,2.39.44,3.47,2.49,7.62.7,10.77-7.12,11.97-2.21.34-4.47.12-6.54,1.36-1.91,1.14-3.84,2.71-2.47,4.94,3.98,6.48.44,11.86-2.38,16.86-2.47,4.38-3.21,8.38-2.28,13.24,1.43,7.47-.68,11.84-7.6,14.48-4.92,1.87-6.45,4.31-4.17,9.35,1.27,2.82,2.02,5.83-1.13,8.19-.66.49-1.55,1.76-1.36,2.19,3.56,8.02-4.21,10.2-7.18,15.36-.64.59-1.15.84-1.49.66-9-4.82-18.54-5.88-28.94-4.7-4.27-4.96-4.16-7.19.41-10.99,4.01-3.34,8.94-5.44,12.63-10.08,1.4-.91,2.46-.95,3.6-.81,1.82.23,4.16,2.19,5.34-.45,1.3-2.93-1.18-4.55-3.08-6.17-3.52-3.01-8.13-3.66-12.3-6.4-3.22-4.32-2.52-8.44-.27-12.18,5.45-9.08,5.33-19.68,7.82-29.56.29-1.14.4-2.44-.1-3.46-4.74-9.66-2.93-20-2.79-30.12.08-5.74-2.7-9.66-6.22-13.41-2.17-2.31-4.9-4.5-2.27-8.71,3.39-.17,5.09,2.6,8.12,3.7,2.5-1.95,5.06-1.61,7.24-.54,5.6,2.77,10.57,1.92,15.73-2.06,2.35-.03,4.22-.03,6.65-.03.22.81.1,1.95-.49,2.39-2.7,2-3.93,4.31-2.01,7.56,1.96,3.31,4.69,2.72,7.99,1.4,5.33-2.76,7.41-.51,7.01,4.44-.47,5.95,2.51,9.24,7.14,11.3,3.93,1.75,7.59,3.93,11.65,6.51.42.3.43.3.42.3Z"/>
  <path class="st2" d="M425.42,176.33c-5.72-.22-10.82-3.35-15.83-6.2-3.89-2.21-7.18-5.9-5.02-11.56,1.46-3.83-.7-4.47-4.15-4.43,3.9-6.51,8.37-6.12,11.87,1.13.36.75.72,2.25.42,2.49-6.84,5.45.12,6.72,2.64,8.77,3.53,2.88,7.05,5.7,10.07,9.79Z"/>
  <path class="st24" d="M387.44,142.45c-3.78,7.14-9.15,8.07-15.77,4.57-1.73-.91-3.9-.92-6.41-1.35-.54-1.9-.43-4.26-2.34-4.93-5.81-2.05-10.56-7.3-17.93-6.37-.84-4.81,2.43-4.7,5.26-4.04,3.5.81,6.96,1.4,11.13,1.25,5.38,2.1,10.16,4.18,15.25,6.66.75,3.98,2.87,4.06,5.77,2.76,1.98-.63,3.4.08,5.05,1.45Z"/>
  <path class="st10" d="M382.26,140.59c1.58,3.03-.28,3.51-2.21,3-2.37-.62-5.79.45-6.6-3.21-.28-1.28,1.45-1.43,3-1.68,2.11.56,3.76,1.19,5.81,1.89Z"/>
  <path class="st11" d="M223.53,288.1c6.15,19.49,2.63,32.8-11.23,42.51-3.14,2.2-6.54,3.78-10.89,4.25-14.93.14-25.6-6.08-31.72-20.68-.39-.72-.55-.99-.89-1.69-.19-.43-.15-.28-.08-.33-4.34-7.27-3.14-14.91-.5-22.08,5.77-15.64,19.3-22.86,35.07-19.43,1.75.38,3.5.78,5.7,1.64,6.31,4.11,12.59,7.54,14.54,15.8Z"/>
  <path class="st49" d="M210.66,274.59c-7.09-2.16-13.81-3.38-20.91-1.93-13.09,2.67-21.99,14.98-21.7,30.49.05,2.57.42,5.13.69,8.33-6.13-1.97-11.11.2-15.78,4.57-2.28,2.14-5.44,2.5-8.35,1.87-4-.87-7.32-1.58-10.91,2.13-2.45,2.53-5.3-.32-7.05-3.07-6.54-10.25-6.46-10.18-13.16-.06-2.98,4.5-5.67,10.16-12.93,6.31-1.2-1.89-1.18-3.38-.36-5.41,7.12-3.85,10.01-9.23,9.73-17.31-.16-4.48,1.02-9.63,7.49-10.25,3.08,2,2.48,4.9,2.82,7.53,1.4-1.93,1.38-4.64,3.23-6.96,4.41-2.09,7.85.07,11.25,1.71,5.17,2.49,10.55,3.96,16.16,4.63,4.47.53,7.33-1.5,8.47-6.09.51-2.04.92-4.11,1.24-6.19q1.74-11.24-8.56-14.38c-3.84-8.23-.44-15.14,2.67-22.66.97-1.48,1.85-2.21,3.34-3.02,10.05-1.31,12.03.57,12.4,10.65.11,2.93-1.3,6.96,1.55,8.48,3.06,1.63,5.62-2.01,8.38-3.36,2.09-1.02,3.37-3.06,5.16-5.3,11.9-7.8,19.45-7.78,28.23.23.97,6.87-.88,12.76-3.1,19.06Z"/>
  <path class="st45" d="M147.83,338.85c-2.24,2.28-5.01,3.92-7.25,6.13-6.58,6.5-5.27,16.48,2.63,21.27,4.3,2.61,9.04,4.7,13.83,5.11,11.06.95,22.24,2.24,33.77-1.15.93,3.51.33,6.59-3.44,7.79-7.9,2.53-15.71,5.2-24.19,5.13-6.13-.05-9.7-4.74-14.02-7.64-6.98-4.7-15.45-6.38-21.73-12.34-1.13-1.08-2.92-1.77-4.41-.81-7.57,4.85-13.51-.91-20.47-3.27-2.41-1.7-1.67-3.98-1.83-6.59,2.66-4.38,1.18-8.27.07-12.71,6.04,1.73,11.58-3.77,18.24-1.98,2.99,1.75,2.22,5.02,3.76,7.37.72-2.8.02-5.72,1.95-8.46.58-.34.86-.28,1.01-.41,7.96-6.8,15-3.71,22.07,2.56Z"/>
  <path class="st25" d="M118.83,290.98c-7.31,1.12-7.51,6.85-7.1,11.7.69,8.21-1.72,13.44-10.19,15.3-3-2.21-1.64-5.15-1.55-7.79.21-6.85,0-13.54-4.46-19.8-1.17-7.03,3.45-12.67,2.48-19.79,6.76-.68,11.51-4.62,15.91-9.39,1.33-1.44,1.89-4.8,5.45-2.63.43,5.68,1.12,10.9,2.68,16.34,1.4,4.91.71,11.03-3.22,16.05Z"/>
  <path class="st31" d="M95.04,290.27c4.02-.24,5.04,2.56,5.73,5.68,1.55,6.98,1.11,13.96.21,21.53-.19,1.83-.46,3.08-.72,4.81.02.47-.5.85-.7,1.11-1.11,1.1-2.15,1.33-3.78.64-6.16-11.24-6.48-22.25-.74-33.76Z"/>
  <path class="st17" d="M125.1,335.77c-.46,4.94,1.2,9.59-2.07,13.96-3.13-3.09-3.31-6.92-3.38-11.37-.04-6.34-.39-12.16,3.26-17.82,1.56,5.04,2.51,9.7,2.2,15.23Z"/>
  <path class="st25" d="M95.36,324.18c.96-.52,1.97-.57,3.49-.57-.17,3.14-1.36,3.97-3.49.57Z"/>
  <path class="st49" d="M168.65,312.38c.25,0,.54.32.82,1-.39.11-.65-.23-.82-1Z"/>
  <path class="st36" d="M240.26,406.27c-3.05,3.4-7.27,3.08-10.71,3.25-10.21.52-20.43,3-29.31,6.72-18.01,7.54-33.48-.7-49.71-4.7-5.03-1.24-8.31-7.03-14.12-8.7,1.89-5.91-.1-9.09-5.88-10.71-9.49-2.65-17.24-8.15-22.99-17.11,6.21-.27,9.26,5.54,13.97,8.47,13.74,8.54,28.05,15.82,43.77,18.64,10.15,1.82,20.26-2.48,30.36-4.23,7.28-1.26,13.31-5.46,19.94-8.18,5.35-2.2,10.27-2.87,16.19-1.12,3.85,5.39,4.56,12.07,8.47,17.67Z"/>
  <path class="st25" d="M186.07,255.44c-.81,3.7-12.12,13.03-14.88,12.62-2.29-.34-2.69-2.21-2.74-4.17-.07-3.04-.3-6.12.01-9.13.69-6.64-1.63-9.85-8.86-8.76-1.74-2.73.32-4.37,1.49-6.2,4-6.25,7.21-12.92,10.12-20.32,3.3-4.74,6.88-8.78,7.28-14.53.17-2.38.24-4.94-1.98-6.31-2.45-1.5-4.33.42-5.9,2.02-3.99,4.06-8.68,7.56-10.72,13.92-1.99,2.51-3.94,4.28-7.12,4.76-2.72-.15-4.96-.25-7.19-.19-2.94.07-5.9-.73-6.29-3.89-.39-3.19,1.38-5.83,5.57-6.01,4.41,3.44,6.58-.04,8.92-2.41,6.58-6.68,12.32-14.5,22.25-17.29,9.8,1.58,15.01,8.65,20.2,16.5.52,1.5.55,2.54.19,4.07-4.2,5.39-9.35,9.62-8.56,17.25.39,3.77,1.45,6.97,5,8.43,3.25,1.33,5.83-.67,7.68-3,6.64-8.35,12.04-17.37,12.5-29.16-.52-2.62-.99-4.74-.04-7.34,8.81-2.87,14.33,0,15.34,8.69.83,7.15,7.33,7.42,10.83,12,3.46,9.57-.26,16.39-6.9,22.66-3.8,1.67-7.24,1.38-10.05-.6-5.3-3.73-9.44-2.29-13.75,2.4-3.73,1.21-7.15.58-10.49,1.04-7.52,1.03-11.42,5.16-11.91,12.96Z"/>
  <path class="st21" d="M230.36,239.24c6.14-5.61,9.3-12.06,8.44-20.91-4.57-7.05-3.64-15.15-5.72-22.74.69-.72,1.15-.88,1.46-1.2,8.48-8.72,10.33-8.19,13.59,3.9,1.99,7.41,4.25,8.23,10.4,3.71,1.4-1.03,2.48-3.13,4.59-1.72,1.83,1.23,2.45,2.8,1.97,5.37-1.25,6.65-.14,13.56-1.84,20.25-.78,3.07-1.45,6.67-4.17,7.67-6.6,2.42-9.92,9.27-16.21,12-3.39,1.47-4.27,5.41-5.56,8.53-3.19,7.74-9.69,13.49-11.61,22.01-.88,3.91.69,8.05-1.82,12.13-3.84-4.83-7.6-9.65-13.38-12.97-.85-6.64,1.14-12.54,2.58-19.13.89-2.46,2.29-4,3.46-6.24,4.73-3.62,8.61-7.7,13.81-10.67Z"/>
  <path class="st49" d="M232.85,195.12c4.83,6.46,4.39,14.22,5.94,22.02-3.85.16-5.83-4.22-10.03-4.36-1.87-.06-1.97-2.69-2.14-4.6-.94-10.14-2.37-11.46-12.92-11.67-7.7.42-11.49,6.7-17.36,10.1-2-1.36-4.11-2.36-4.97-4.05-3.23-6.35-8.93-9.17-14.74-12.58,4.32-.52,8.21-.08,12.47,2.58,5.92,3.7,12.13-.2,17.58-3.37,9.16-5.33,9.05-5.47,16.44,2.56,2.48,2.69,5.82,3.16,9.73,3.37Z"/>
  <path class="st11" d="M352.36,273.53c11.12-3.09,21.22-2.52,30.82,4.89,15.84,16.95,14.86,42.37-8.53,55.24-5.9,5.35-12.09,3.44-18.14,2.01-5.07-1.2-9.47-3.93-13.85-7.8-5.34-7.6-11.15-14.47-8.28-24.92,1-4.04,1.69-7.61,2.29-11.7,1.9-9.29,6.41-15.62,15.68-17.72Z"/>
  <path class="st24" d="M356.31,141.1c-.38,2.95-.4,5.04,2.16,7.03,6,4.65,10.04,10.11,7.8,18.98-1.57,6.24-1.14,14,.47,19.18,5.1,16.42.15,30.13-6.54,43.98-1.47,3.04-.1,5.45.42,8.7-3.48,4.05-8.06,4.94-12.99,5.95-.69-2.79-.65-5.51.95-7.59,5.87-7.63,5.84-16.88,6.55-25.83.42-5.24,4.1-9.17,3.34-15.32-.71-5.74,2.51-11.97-1.73-17.66-.44-.59.14-2.32.64-3.3,2-3.93,2.97-7.12-3.17-7.22-1.74-.03-2.7-1.53-2.92-3.34-.24-1.93.74-2.84,2.39-3.64,4.78-2.31,5.3-5.64,2.21-10.13-1.39-2.02-2.17-4.63-2.77-7.09-.53-2.16.35-3.66,3.17-2.71Z"/>
  <path class="st24" d="M334.18,302.5c.95,8.44,3.07,16.22,8.89,23.05,1.03,2.49.52,3.94-1.38,5.08-9.52,5.69-17.25,13.78-25.66,20.96-1.79,1.53-2.08,2.82-.6,4.62,1.04,1.27,1.88,2.65.83,4.82-6.51,3.82-13.16,5.85-20.61,6.77-1.04-.17-1.52-.02-2.29.52-3.13.44-5.91.68-9.29.82-.21-5.37,3.98-6.58,7.54-6.93,10.08-.99,13.66-8.26,16.35-16.77.91-2.88,2.51-5.29,4.15-7.83,6.48-10.02,17.44-17.36,17.53-31.31.01-2.5,1.69-3.66,4.54-3.81Z"/>
  <path class="st41" d="M347.01,245.16c4.09-2.79,8.03-5.13,13.2-5.46,4.93.39,9.22,1.48,12.94,4.3,3.13,2.37,6.93,5.07,4.5,9.49-2.68,4.87-6.13.73-9.67-.64-7.07.54-13.36,4.02-20.44,1.55-3.1-3.14-2.85-5.93-.53-9.24Z"/>
  <path class="st24" d="M347.28,254.39c6.59.39,12.58-5.5,19.78-1.98-.69,7.42-7.34,8.23-11.59,11.68-2.93,2.38-5.48,4.31-2.82,9.04-6.77,4.16-11.91,9.66-15.65,17.3-1.21-5.13-.72-10.07,4.69-12.81,5.32-2.69-.26-8.7,3.32-11.68,3.78-3.14,5.52-6.44,2.28-11.55Z"/>
  <path class="st24" d="M265.8,367.15c-1.52.33-3.12.14-5.14-.31,1.44-2.58,3.27-3.13,5.14.31Z"/>
  <path class="st24" d="M269.78,368.37c.12.17-.52.27-.82.16-.02-.52.32-.6.82-.16Z"/>
  <path class="st35" d="M282.05,392.79c16.68-1.13,30.16-6.13,35.6-24.22,1.05-3.5,5.05-4.55,8.07-5.87,3.06-1.34,2.56,1.67,2.45,3.29-1.07,15.17-5.85,28.82-15.49,40.46-1.79,2.16-3.59,1.82-5.26.31-2.99-2.68-6.91-3.39-10.1-5.45-15.21-9.84-28.92-4.98-41.84,4.74-3.82,2.87-5.61,2.27-8.16-1.14-9.48-12.65-13.44-27.31-15.16-43.77,6.41,2.75,12.02,4.35,14.93,11.84,6.15,15.85,19.83,19,34.98,19.82Z"/>
  <path class="st36" d="M316.42,361.37c-4.78-5.71-5.83-8.35,1.93-14.28,8.23-6.29,16.4-13.35,24.77-20.55,8.94,6.75,18.55,10.71,30.5,7.15.14,1.59-.28,3.1-.74,5.07-1.07.94-2.09,1.41-3.53,1.93-7.3-3.2-10.92.73-14.28,6.4-4.77,8.06-9.74,16.12-19.8,19-.85-.53-1.03-1.13-1.17-2.24-.04-2.04.05-3.62.27-5.78.13-.58-.07-1.23.21-1.4,3.37-1.75,4.39-4.05,1.44-6.5-2.63-2.18-5.15-5.46-9.27-3.8-.93.37-1.23,1.73-.53,2.34,6.71,5.86-1.05,6.46-3.1,8.73-1.6,1.77-4.13,2.63-6.69,3.95Z"/>
  <path class="st46" d="M259.3,408.68c14.06-8.34,27.67-9.01,41.33-.43,1.89,1.19,4.64,2.23,4.6,4.71-.03,2.54-2.9,3.27-4.86,4.17-13.59,6.24-27.13,5.75-40.49-.78-3.72-1.82-5.76-4.28-.58-7.67Z"/>
  <path class="st31" d="M280.77,375.22c10.51-.18,20.19-1.53,29.92-5.2-4.15,12.3-12.38,16.93-29.1,17.02-16.34.08-25.34-4.79-29.43-16.43,9.32,2.87,18.52,4.61,28.61,4.61Z"/>
  <path class="st47" d="M333.82,363.85c.42.18.67.84.94,1.87-.12.73-.31,1.04-.79,1.46-.25-.85-.28-1.85-.15-3.32Z"/>
  <path class="st47" d="M334.64,356.56c.27.19.23.43-.02.79-.44-.12-.46-.4.02-.79Z"/>
  <path class="st36" d="M293.43,368.56c.03-.3.48-.57,1.31-.86-.04.28-.47.59-1.31.86Z"/>
  <path class="st25" d="M151.8,270.31q12.06-.32,11.2,11.46c-1.32,18.04-5.06,20.71-21.77,15.74-5.63-1.67-10.45-5.59-16.92-6.32-5.14-8.79-3.58-17.94,4.28-25.26,2.02.27,3.51.71,5.45,1.2,3.06,1.89,3.05,5.35,4.85,7.68,1.84,2.39,3.82,4.82,7.04,4.51,3.35-.32,3.69-3.52,4.46-6.15.26-.89.56-1.75,1.41-2.86Z"/>
  <path class="st31" d="M103.11,238c2.79-9.74,8.38-17.05,14.95-24.25,3.5-1.97,6.6-6.08,10.46-2.46,3.58,3.35,2.18,7.81.88,11.81-2.46,7.58-5.7,14.78-10.91,20.78-2.4,2.76-4.89,5.89-9.13,4.44-4.44-1.51-6.18-5.09-6.26-10.33Z"/>
  <path class="st51" d="M152.14,269.37c-.05,5.58.24,11.86-5.56,12.5-5.36.6-9.32-3.85-11.03-9.55-.4-1.33-.67-2.7-1.02-4.59.29-9.52,2.07-17.93,9.13-24.49,4.65-.15,8.09,2.37,12.28,3.77-1.49,7.42-4.85,14.11-3.81,22.36Z"/>
  <path class="st19" d="M156.63,247.25c-4.55.32-8.74.46-12.06-3.84-1.76-9.4,4.04-15.88,7.64-23.72,1.93-1.93,3.77-3.37,6.05-4.85,4.45,2.83,8.95,3.92,14.06,4.28-2.34,9.91-6.86,18.4-13.11,26.45-.86.8-1.54,1.16-2.57,1.68Z"/>
  <path class="st48" d="M129.12,265.23c-5.43,7.72-8.27,15.54-5.34,25.34.28,5.05-1.49,8.7-4.47,12.8-1.75-3.91-.66-7.53-.97-11.56,1.1-7.87,5.02-14.99-.65-22.33-2.27-2.94-.17-6.72,1.86-10.25,6.03-3.1,8.96-.81,9.57,6Z"/>
  <path class="st2" d="M409.24,181.36c-1.12-1.16-2.3-1.93-1.86-3.24.6-1.8,2.35-1.63,3.4-1.01,3.53,2.1,6.92,4.29,11.26,4.1,1.62-.07,2.32,1.43,1.74,3.01-.77,2.1-2.66,2.87-4.43,2.17-3.33-1.31-6.49-3.12-10.11-5.04Z"/>
  <path class="st31" d="M190.28,299.83c-6.62,1.63-10.8-1.05-12.12-7.13-1.15-5.29,1.07-9.69,6.27-11.64,4.97-1.86,8.81.07,11.29,4.69,2.7,5.02.91,9.75-5.44,14.08Z"/>
  <path class="st10" d="M210.67,313.22c-2.7-2.5-1.62-4.08.64-5,1.35-.54,2.83.12,3.19,1.75.65,2.92-.91,3.81-3.83,3.25Z"/>
  <path class="st10" d="M182.56,304.31c2.99-.1,4.3,1.14,3.13,3.74-.59,1.31-2.08,1.73-3.43.89-2.14-1.33-1.8-2.86.3-4.63Z"/>
  <path class="st41" d="M217.83,249.69c-.58,2.86-1.31,4.94-4.3,5.7-9.13-6.53-17.84-4.12-27.03.35-4.14-3.79-2.79-7.25.68-10.29,5.44-4.77,11.79-6.02,19.24-4.8,6.15.15,10.44,2.12,11.42,9.05Z"/>
  <path class="st51" d="M213.73,203.54c.79.36,1.43.72,1.39.98-1.73,13.14-6.59,24.71-16.94,32.82-4.63,3.63-11.21-.68-12.16-7.23-1.2-8.22,1.83-14.5,8.47-19.46,8.93,2.97,9.62,2.78,15.76-4.52.88-1.05,1.71-2.14,3.48-2.6Z"/>
  <path class="st31" d="M172.99,219.18c-5.55,1.86-10.75,3.45-13.99-3.95.44-6.22,10.02-17.98,15.16-19.38,4.55-1.24,5.64,2.26,6.06,5.5.92,7.07-2.02,12.77-7.22,17.84Z"/>
  <path class="st31" d="M214.24,203.07c-2.68,3.59-4.11,7.64-7.76,9.91-4.18,2.6-7.85,3.03-11.3-1.96,0-1.46.25-2.45.6-3.94,4.87-5.16,8.09-12.51,16.93-10.75,1.24,2.11,1.94,4.06,1.53,6.74Z"/>
  <path class="st49" d="M218.07,250.13c-2.02-4.98-6.24-6.83-10.73-9.13,4.79-8.67,10.88-7.72,17.66-2.57,1.07.82,3.04.36,5.14.49-2.14,5.35-7.06,8.03-12.06,11.22Z"/>
  <path class="st51" d="M253.22,213.95c-2.14,2.88-4.04,2.43-5.98.49-1.94-1.94-1.01-3.87.07-5.72.88-1.51,2.21-2.6,3.94-1.87,3.02,1.27,2.55,4.01,1.96,7.09Z"/>
  <path class="st31" d="M350.04,299.47c-5.1-3.62-5.59-8.34-3.72-13.28,1.54-4.06,4.99-6.09,9.14-5.68,4.39.43,7.38,3.03,8.39,7.76,1.71,8.03-4.76,13.59-13.82,11.21Z"/>
  <path class="st31" d="M380.93,313.66c-2.88-1.07-3.53-2.58-1.46-4.6.89-.87,2.06-.94,2.96-.05,2.07,2.04,1.29,3.55-1.5,4.65Z"/>
  <path class="st18" d="M348.95,309.02c-2.27-1.89-1.89-3.44-.01-4.61,1.48-.92,2.7.14,3.13,1.43.8,2.38-.61,3.29-3.12,3.18Z"/>
</svg>